<svg width="72" height="72" viewBox="0 0 72 72" fill="none" xmlns="http://www.w3.org/2000/svg">
<g clip-path="url(#clip0)">
<path d="M70.865 47.054L54.4776 16.8582C54.2822 16.4982 53.9054 16.274 53.4958 16.274C53.0863 16.274 52.7095 16.4982 52.5141 16.8583L48.6882 23.9082C48.3939 24.4504 48.595 25.1284 49.1373 25.4227C49.6797 25.7171 50.3575 25.5158 50.6518 24.9737L53.496 19.7328L62.3673 36.0793L57.8872 40.0947C57.4279 40.5066 57.3892 41.2127 57.801 41.6721C58.0215 41.9183 58.3267 42.0436 58.6332 42.0436C58.8986 42.0436 59.1651 41.9494 59.3783 41.7584L63.4627 38.0975L68.9017 48.1197C69.104 48.4926 69.4881 48.7041 69.8845 48.7041C70.0645 48.7041 70.247 48.6605 70.4162 48.5686C70.9582 48.2744 71.1593 47.5962 70.865 47.054Z" fill="#1B202F"/>
<path d="M12.6228 41.7577C12.836 41.9489 13.1025 42.0429 13.3679 42.0429C13.6742 42.0429 13.9794 41.9175 14.2 41.6715C14.6118 41.2122 14.5731 40.5059 14.1137 40.0941L9.63362 36.0787L18.5049 19.7321L21.3492 24.973C21.6433 25.5153 22.3211 25.7162 22.8637 25.4221C23.4058 25.1278 23.6069 24.4497 23.3126 23.9075L19.4866 16.8577C19.2912 16.4977 18.9145 16.2736 18.5048 16.2736C18.0951 16.2736 17.7184 16.4977 17.523 16.8577L1.13598 47.0536C0.841679 47.5957 1.04274 48.2738 1.58487 48.5681C1.75421 48.66 1.93665 48.7036 2.11671 48.7036C2.51318 48.7036 2.89713 48.4921 3.09954 48.1192L8.5385 38.097L12.6228 41.7577Z" fill="#1B202F"/>
<path d="M36.982 7.90541C36.7866 7.54544 36.4098 7.32129 36.0002 7.32129C35.5906 7.32129 35.2138 7.54544 35.0184 7.90541L5.10375 63.0275C4.80945 63.5698 5.01052 64.2479 5.55264 64.5421C5.72198 64.6339 5.90442 64.6776 6.08449 64.6776C6.48095 64.6776 6.86491 64.4661 7.06731 64.0932L22.476 35.7004L28.3387 40.9556C28.763 41.336 29.4055 41.3359 29.8298 40.9556L35.9996 35.4251L42.1703 40.9558C42.3825 41.146 42.6491 41.241 42.9159 41.241C43.1826 41.241 43.4492 41.146 43.6614 40.9558L49.5247 35.7006L64.9336 64.0935C65.2279 64.6356 65.9057 64.8367 66.4481 64.5424C66.9904 64.2481 67.1913 63.57 66.8971 63.0278L36.982 7.90541ZM42.9157 38.6237L36.7449 33.093C36.3207 32.7127 35.6782 32.7128 35.2537 33.093L29.0841 38.6236L23.5713 33.6821L36.0002 10.78L48.4292 33.6821L42.9157 38.6237Z" fill="#1B202F"/>
<path d="M48.0445 49.5911C47.3876 49.5911 46.853 50.1256 46.853 50.7825C46.853 51.4395 47.3876 51.974 48.0445 51.974C48.7015 51.974 49.236 51.4395 49.236 50.7825C49.236 50.1256 48.7016 49.5911 48.0445 49.5911Z" fill="#1B202F"/>
<path d="M22.0567 56.1124C21.3998 56.1124 20.8652 56.647 20.8652 57.3039C20.8652 57.9609 21.3998 58.4954 22.0567 58.4954C22.7137 58.4954 23.2482 57.9609 23.2482 57.3039C23.2482 56.647 22.7137 56.1124 22.0567 56.1124Z" fill="#1B202F"/>
<path d="M51.9776 53.1925C51.3207 53.1925 50.7861 53.727 50.7861 54.384C50.7861 55.0409 51.3207 55.5755 51.9776 55.5755C52.6346 55.5755 53.1691 55.0409 53.1691 54.384C53.1691 53.727 52.6346 53.1925 51.9776 53.1925Z" fill="#1B202F"/>
</g>
<defs>
<clipPath id="clip0">
<rect x="1" y="1" width="70" height="70" fill="white"/>
</clipPath>
</defs>
</svg>
