<svg width="72" height="72" viewBox="0 0 72 72" fill="none" xmlns="http://www.w3.org/2000/svg">
<g clip-path="url(#clip0)">
<path d="M65.9355 65.6949H68.0001V67.7595H65.9355V65.6949Z" fill="black"/>
<path d="M4 65.6949H6.06452V67.7595H4V65.6949Z" fill="black"/>
<path d="M56.5686 51.5873C55.4622 48.4265 52.8301 46.106 49.6744 45.3318L44.9189 29.0283C43.8679 25.4245 40.7062 22.8222 37.0323 22.4054V17.9069L53.2757 12.1055L34.9677 4.25818V22.4054C34.3443 22.4764 33.7344 22.6065 33.1477 22.7985C31.3785 21.4568 29.0242 20.9754 26.8911 21.5576C25.3906 18.2824 22.1195 16.1468 18.4516 16.1468C13.3286 16.1468 9.16129 20.3141 9.16129 25.4371C9.16129 25.8106 9.187 26.1821 9.23135 26.552C6.27319 27.0162 4 29.5752 4 32.6629C4 36.0787 6.77772 38.8565 10.1935 38.8565H24.2147L23.6129 40.921C19.5106 40.921 15.8432 43.672 14.6951 47.609L9.41936 65.6952H7.09677V67.7597H63.871V65.6952H61.5071L56.5686 51.5873ZM37.0323 7.39024L47.6275 11.9301L37.0323 15.7143V7.39024ZM38.685 56.2809C39.2752 56.922 40.068 57.4371 41.1552 57.4371C43.3402 57.4371 44.3584 55.4033 45.1749 53.7693C45.9592 52.1982 46.499 51.2436 47.3478 51.2436C48.1971 51.2436 48.7369 52.1982 49.5227 53.7693C50.3412 55.4033 51.3579 57.4371 53.5454 57.4371C54.6366 57.4371 55.4304 56.92 56.0227 56.2768L59.3186 65.6952H35.3911L38.685 56.2809ZM54.62 52.2683L55.1825 53.8766C54.5766 54.9543 54.1129 55.3726 53.5454 55.3726C52.6956 55.3726 52.1558 54.4175 51.3705 52.8464C50.5529 51.2123 49.5348 49.179 47.3478 49.179C45.1613 49.179 44.1437 51.2123 43.3271 52.8464C42.5423 54.4175 42.0035 55.3726 41.1552 55.3726C40.5892 55.3726 40.128 54.9563 39.5242 53.8822L40.0887 52.2683C41.1684 49.1861 44.0887 47.1145 47.3548 47.1145C50.621 47.1145 53.5413 49.1861 54.62 52.2683V52.2683ZM47.3548 45.05C43.2122 45.05 39.5096 47.677 38.1401 51.5873L35.7142 58.5198L32.5318 47.609C31.5822 44.3529 28.9083 41.9139 25.692 41.1644L27.3105 35.616C27.9113 36.2778 28.7082 36.792 29.8004 36.792C31.9854 36.792 33.0035 34.7582 33.8201 33.1241C34.6043 31.553 35.1442 30.5984 35.9929 30.5984C36.8422 30.5984 37.3821 31.553 38.1678 33.1241C38.9864 34.7582 40.003 36.792 42.1905 36.792C43.2858 36.792 44.0847 36.2738 44.6875 35.611L47.4415 45.054C47.4128 45.053 47.3836 45.05 47.3548 45.05ZM42.937 29.6075L43.936 33.0324C43.2671 34.2693 42.7903 34.7274 42.1905 34.7274C41.3407 34.7274 40.8009 33.7723 40.0156 32.2012C39.1981 30.5672 38.1799 28.5339 35.9929 28.5339C33.8065 28.5339 32.7888 30.5672 31.9723 32.2012C31.1875 33.7723 30.6487 34.7274 29.8004 34.7274C29.2026 34.7274 28.7278 34.2713 28.062 33.0394L29.063 29.6075C29.9572 26.5435 32.8095 24.4049 36 24.4049C39.1905 24.4049 42.0428 26.5435 42.937 29.6075ZM10.1935 36.792C7.91633 36.792 6.06452 34.9401 6.06452 32.6629C6.06452 30.3857 7.91633 28.5339 10.1935 28.5339C12.4708 28.5339 14.3226 30.3857 14.3226 32.6629H16.3871C16.3871 29.6352 14.2016 27.1125 11.3261 26.5777C11.2661 26.2017 11.2258 25.8212 11.2258 25.4371C11.2258 21.4537 14.4682 18.2113 18.4516 18.2113C21.5781 18.2113 24.3367 20.2098 25.313 23.1826L25.6683 24.2612L26.7087 23.8061C28.062 23.2133 29.6174 23.2622 30.936 23.861C29.1179 25.048 27.7152 26.8565 27.0822 29.0283L24.8165 36.792H10.1935ZM23.6129 42.9855C26.8034 42.9855 29.6557 45.1241 30.5499 48.1881L31.1472 50.237C30.5736 51.1085 30.1628 51.2436 29.8034 51.2436C28.9536 51.2436 28.4138 50.2884 27.6285 48.7174C26.811 47.0833 25.7928 45.05 23.6058 45.05C21.4194 45.05 20.4017 47.0833 19.5852 48.7174C18.8004 50.2884 18.2616 51.2436 17.4133 51.2436C17.0559 51.2436 16.6472 51.107 16.0766 50.2431L16.6759 48.1881C17.5701 45.1241 20.4224 42.9855 23.6129 42.9855V42.9855ZM15.3972 52.5732C15.9299 53.0077 16.5822 53.3081 17.4133 53.3081C19.5983 53.3081 20.6164 51.2743 21.433 49.6402C22.2172 48.0692 22.7571 47.1145 23.6058 47.1145C24.4551 47.1145 24.995 48.0692 25.7807 49.6402C26.5993 51.2743 27.6159 53.3081 29.8034 53.3081C30.6487 53.3081 31.3075 52.981 31.8256 52.5616L34.5413 61.8716L33.2026 65.6952H11.5696L15.3972 52.5732Z" fill="black"/>
</g>
<defs>
<clipPath id="clip0">
<rect x="4" y="4" width="64" height="64" fill="white"/>
</clipPath>
</defs>
</svg>
