<svg width="72" height="72" viewBox="0 0 72 72" fill="none" xmlns="http://www.w3.org/2000/svg">
<path d="M20.7671 11.0547C21.3011 11.0547 21.7339 10.6218 21.7339 10.0879V8.24866C21.7339 7.71473 21.3011 7.28186 20.7671 7.28186C20.233 7.28186 19.8003 7.71473 19.8003 8.24866V10.0878C19.8003 10.6218 20.2332 11.0547 20.7671 11.0547Z" fill="#1B202F"/>
<path d="M19.8003 25.1604V26.9995C19.8003 27.5334 20.233 27.9663 20.7671 27.9663C21.3011 27.9663 21.7339 27.5334 21.7339 26.9995V25.1604C21.7339 24.6265 21.3011 24.1936 20.7671 24.1936C20.233 24.1936 19.8003 24.6265 19.8003 25.1604Z" fill="#1B202F"/>
<path d="M14.7542 12.9788C15.1314 13.3562 15.7436 13.3565 16.1215 12.9788C16.4991 12.6012 16.4991 11.989 16.1214 11.6115L14.8209 10.3111C14.4434 9.93336 13.8313 9.93349 13.4536 10.3111C13.076 10.6886 13.076 11.3008 13.4537 11.6784L14.7542 12.9788Z" fill="#1B202F"/>
<path d="M26.7795 22.2694C26.4018 21.8918 25.7898 21.8918 25.4121 22.2694C25.0345 22.6469 25.0345 23.2591 25.4121 23.6367L26.7126 24.9372C27.0903 25.3148 27.7024 25.3148 28.0801 24.9372C28.4577 24.5597 28.4576 23.9475 28.0801 23.5699L26.7795 22.2694Z" fill="#1B202F"/>
<path d="M11.3916 18.5909H13.2308C13.7649 18.5909 14.1976 18.1581 14.1976 17.6241C14.1976 17.0902 13.7649 16.6573 13.2308 16.6573H11.3916C10.8575 16.6573 10.4248 17.0902 10.4248 17.6241C10.4248 18.1581 10.8575 18.5909 11.3916 18.5909Z" fill="#1B202F"/>
<path d="M27.3364 17.6241C27.3364 18.1581 27.7692 18.5909 28.3032 18.5909H30.1425C30.6765 18.5909 31.1092 18.1581 31.1092 17.6241C31.1092 17.0902 30.6765 16.6573 30.1425 16.6573H28.3032C27.7693 16.6573 27.3364 17.0902 27.3364 17.6241Z" fill="#1B202F"/>
<path d="M14.7543 22.2694L13.4538 23.5699C12.8426 24.1811 13.2841 25.2204 14.1375 25.2204C14.3849 25.2204 14.6324 25.1261 14.8212 24.9372L16.1217 23.6367C16.4993 23.2591 16.4993 22.6469 16.1217 22.2694C15.744 21.8918 15.132 21.8918 14.7543 22.2694Z" fill="#1B202F"/>
<path d="M26.7795 12.9788L28.08 11.6784C28.4577 11.3008 28.4577 10.6888 28.0802 10.3111C27.7026 9.93349 27.0904 9.93336 26.7129 10.3111L25.4122 11.6115C25.0345 11.989 25.0345 12.6011 25.4121 12.9788C25.7896 13.3563 26.4021 13.3565 26.7795 12.9788Z" fill="#1B202F"/>
<path d="M68.9974 61.509C68.9261 59.734 67.2715 58.2883 65.4183 58.5922C64.6738 57.1684 67.9275 63.6613 54.5617 36.93L49.9804 27.7673C49.0712 25.9488 46.4772 25.9549 45.5712 27.7673C45.1605 28.5888 42.4808 33.9482 41.9253 35.0588L36.4432 24.0945C35.6182 22.4438 33.2598 22.4438 32.4346 24.0945L27.9405 33.0828C27.7504 33.4629 27.2061 33.4658 27.0147 33.0828C26.1893 31.4321 23.8312 31.4323 23.006 33.0828L15.7367 47.622L15.5397 47.2279C14.9304 46.0094 13.2005 46.0219 12.5975 47.2279V47.2277C12.5975 47.2278 12.5975 47.2277 12.5975 47.2278L4.819 62.7844H3.9668C3.43274 62.7844 3 63.2173 3 63.7512C3 64.2852 3.43274 64.718 3.9668 64.718C5.01081 64.718 51.6187 64.718 52.6596 64.718C53.1936 64.718 53.6264 64.2852 53.6264 63.7512C53.6264 63.2173 53.1936 62.7844 52.6596 62.7844H41.9498C41.5178 62.7844 41.1706 62.4318 41.1764 61.9997C41.1824 61.576 41.5756 61.1892 42.0347 61.2423C42.7713 61.3278 43.4322 60.8434 43.5709 60.1154C43.7359 59.2523 44.494 58.6267 45.3725 58.6267C46.0189 58.6267 46.6352 58.974 46.967 59.5565C47.2851 60.1152 47.9328 60.4002 48.5437 60.2661C48.6842 60.2353 49.0078 60.0928 49.4527 60.2362C50.5832 60.6009 50.7991 59.5845 51.8892 59.8012C52.6486 59.9526 53.3793 59.4378 53.481 58.6766C53.68 57.1875 54.9635 56.0646 56.4666 56.0646C57.5518 56.0646 58.5582 56.6544 59.0925 57.6038C59.4027 58.1549 59.9938 58.471 60.5963 58.4442C60.7353 58.438 60.875 58.4136 61.0119 58.3697C62.1592 58.0016 63.3513 58.6114 63.79 59.6703C64.0834 60.3787 64.86 60.7489 65.5965 60.5313C66.322 60.3169 67.0366 60.871 67.0654 61.5864C67.0918 62.2455 66.5675 62.7844 65.9166 62.7844H57.1717C56.6376 62.7844 56.2049 63.2173 56.2049 63.7512C56.2049 64.2852 56.6376 64.718 57.1717 64.718H65.9166C67.6666 64.718 69.0677 63.2672 68.9974 61.509ZM47.3007 28.6319C47.497 28.2396 48.0554 28.2412 48.2509 28.6319C48.6238 29.3777 51.4418 35.0138 52.524 37.1783L49.1163 40.66C49.0337 40.7442 48.8995 40.7499 48.8103 40.6732L46.7451 38.8961C45.823 38.1024 44.4288 38.2269 43.6619 39.1726L42.5548 40.5383C42.4738 40.6384 42.325 40.6502 42.229 40.5615L41.6184 39.9967C45.451 32.3314 45.3521 32.5291 47.3007 28.6319ZM14.0684 48.6094L16.7074 53.8873L15.3037 55.3215L13.7562 53.9899C13.0662 53.3962 12.097 53.4046 11.4278 53.8902L14.0684 48.6094ZM6.98101 62.7844L9.80522 57.1359C11.1908 57.4829 11.8118 56.3854 12.5366 55.4914L14.0804 56.8198C14.8306 57.4655 15.9598 57.4158 16.651 56.7097L17.6224 55.7173L21.1561 62.7844H6.98101ZM28.0626 62.7844H23.3179L16.8176 49.7837L24.7358 33.9476C24.8496 33.7201 25.1716 33.72 25.2854 33.9477C26.1891 35.755 28.7675 35.7531 29.6703 33.9477L34.1644 24.9592C34.2782 24.7317 34.6001 24.7317 34.7139 24.9592L40.8447 37.2207C40.2968 38.3158 29.1195 60.6708 28.0626 62.7844ZM61.591 56.33C61.2763 56.3381 60.9651 56.3813 60.6613 56.4591C59.7572 55.0128 58.168 54.1308 56.4667 54.1308C54.198 54.1308 52.2338 55.6891 51.6778 57.8404C51.0416 57.8261 50.4005 57.9887 49.8297 58.3343C49.3816 58.2235 48.9092 58.2103 48.4548 58.2963C47.7535 57.2995 46.6025 56.693 45.3726 56.693C43.7215 56.693 42.2789 57.7688 41.7849 59.3087C40.3957 59.3931 39.2633 60.5433 39.243 61.9721V61.9722C39.2393 62.2375 39.282 62.5359 39.3541 62.7842H30.2247L40.718 41.7976L40.9162 41.981C40.9162 41.981 40.9162 41.981 40.9164 41.981C41.8303 42.8264 43.2726 42.7235 44.0572 41.756L45.1643 40.3903C45.2444 40.2917 45.3882 40.2792 45.4841 40.3616L47.5495 42.1388C48.4095 42.8787 49.7051 42.8232 50.4986 42.0125L53.4391 39.0079L62.1093 56.3483C61.9394 56.3317 61.7635 56.3255 61.591 56.33Z" fill="#1B202F"/>
<path d="M20.767 23.4087C22.9121 23.4087 24.8704 22.2304 25.8778 20.3338C26.1282 19.8622 25.949 19.2769 25.4775 19.0263C25.0059 18.7757 24.4207 18.9551 24.17 19.4265C23.499 20.6901 22.195 21.4748 20.767 21.4748C18.6436 21.4748 16.9161 19.7474 16.9161 17.624C16.9161 15.5007 18.6436 13.7732 20.767 13.7732C22.195 13.7732 23.4989 14.558 24.17 15.8215C24.4203 16.2929 25.0057 16.4724 25.4775 16.2218C25.949 15.9713 26.1283 15.3861 25.8778 14.9143C24.8706 13.0176 22.9121 11.8394 20.767 11.8394C17.5774 11.8394 14.9824 14.4342 14.9824 17.6239C14.9824 20.8136 17.5774 23.4087 20.767 23.4087Z" fill="#1B202F"/>
</svg>
