<?xml version="1.0" encoding="utf-8"?>
<!-- Generator: Adobe Illustrator 24.0.1, SVG Export Plug-In . SVG Version: 6.00 Build 0)  -->
<svg version="1.1" id="Layer_1" xmlns="http://www.w3.org/2000/svg" xmlns:xlink="http://www.w3.org/1999/xlink" x="0px" y="0px"
	 viewBox="0 0 35 33" style="enable-background:new 0 0 35 33;" xml:space="preserve">
<style type="text/css">
	.st0{fill:#CC3300;}
</style>
<g>
	<g>
		<path class="st0" d="M34.9,32.2L22.7,8.6c-0.2-0.3-0.5-0.4-0.8-0.2c-0.1,0.1-0.2,0.1-0.2,0.2l-1.1,2.1L18,5.8
			c-0.2-0.3-0.5-0.4-0.8-0.2c-0.1,0-0.2,0.1-0.2,0.2l-2.5,4.9l-1-2V4.4h4.1c0.3,0,0.6-0.2,0.6-0.5c0-0.1,0-0.2-0.1-0.3l-1-1.3l1-1.3
			c0.2-0.3,0.1-0.6-0.2-0.8C17.7,0,17.6,0,17.5,0h-5.2v8.7L0.1,32.2c-0.1,0.3,0,0.6,0.3,0.7C0.4,33,0.5,33,0.6,33h33.8
			c0.3,0,0.6-0.2,0.6-0.5C35,32.4,35,32.3,34.9,32.2z M13.4,1.1h3l-0.6,0.8c-0.1,0.2-0.1,0.4,0,0.6l0.6,0.8h-3V1.1z M17.5,7.3
			l2.4,4.6l-2.4,4.6l-2.4-4.6L17.5,7.3z M1.5,31.9l11.3-21.8l4,7.8l-1.3,2.4l-2.2-4.5c-0.1-0.3-0.5-0.4-0.8-0.3
			c-0.1,0.1-0.2,0.1-0.3,0.3L4.2,32H1.5V31.9z M5.6,31.9l7.3-14.6l2.2,4.5c0.1,0.2,0.3,0.3,0.5,0.3s0.4-0.1,0.5-0.3l6.1-11.7
			l11.3,21.8L5.6,31.9L5.6,31.9z"/>
	</g>
</g>
</svg>
