<?xml version="1.0" encoding="utf-8"?>
<!-- Generator: Adobe Illustrator 24.0.1, SVG Export Plug-In . SVG Version: 6.00 Build 0)  -->
<svg version="1.1" id="Layer_1" xmlns="http://www.w3.org/2000/svg" xmlns:xlink="http://www.w3.org/1999/xlink" x="0px" y="0px"
	 viewBox="0 0 35 33" style="enable-background:new 0 0 35 33;" xml:space="preserve">
<style type="text/css">
	.st0{fill:#CC3300;}
</style>
<g>
	<path class="st0" d="M34.9,32.3L29.8,23c-0.1-0.2-0.4-0.3-0.7-0.2c-0.3,0.1-0.4,0.4-0.2,0.7l4.7,8.6H23.4L16,19l1.1-2l1.8,1.7
		c0.2,0.1,0.4,0.2,0.6,0.1l2.6-1.1l3.2,2.1c0.1,0.1,0.2,0.1,0.3,0.1c0.1,0,0.1,0,0.2,0c0.2-0.1,0.3-0.2,0.3-0.3l0.3-1.1l1.8,3.3
		c0.1,0.2,0.3,0.3,0.5,0.3c0.1,0,0.2,0,0.2-0.1c0.3-0.1,0.4-0.4,0.2-0.7l-3.3-6h5.9c1.5,0,2.8-1.2,2.8-2.6c0-1.3-0.9-2.3-2.2-2.6
		c0-0.2,0-0.4,0-0.6c0-2.2-1.9-4-4.2-4C26,5.5,24.3,7,24,8.9C23.2,9,22.4,9.4,21.9,10c-0.2,0-0.4-0.1-0.6-0.1l0,0
		c-0.9,0-1.8,0.5-2.2,1.3L15.4,18L14,15.5c-0.4-0.8-1.3-1.2-2.2-1.2s-1.7,0.5-2.2,1.2L0.1,32.3c-0.1,0.2-0.1,0.3,0,0.5
		C0.2,32.9,0.3,33,0.5,33h7.6l0,0h26.3c0.2,0,0.3-0.1,0.4-0.2C35,32.6,35,32.4,34.9,32.3L34.9,32.3z M24.4,9.9
		c0.3,0,0.5-0.2,0.5-0.5c0.1-1.6,1.5-2.9,3.2-2.9c1.8,0,3.2,1.4,3.2,3c0,0.3,0,0.6-0.1,0.9c0,0.2,0,0.3,0.1,0.4
		c0.1,0.1,0.3,0.2,0.4,0.2l0,0c1,0,1.8,0.7,1.8,1.7s-0.8,1.7-1.8,1.7h-6.5l-1.7-3.1c-0.2-0.3-0.4-0.6-0.7-0.8
		C23.3,10.1,23.9,9.9,24.4,9.9L24.4,9.9z M20,11.7c0.3-0.5,0.7-0.7,1.3-0.7c0.6,0,1,0.3,1.3,0.7l3,5.6l-0.4,1.4l-2.8-1.9
		c-0.1-0.1-0.3-0.1-0.5,0l-2.5,1.1l-1.8-1.7L20,11.7z M10.5,16c0.3-0.5,0.7-0.7,1.3-0.7s1,0.3,1.3,0.7l1.9,3.3l0,0l0.7,1.2L12.2,22
		l-1.7-1.6c-0.1-0.1-0.3-0.2-0.5-0.1L7.7,21L10.5,16z M7,22.2l3-0.9l1.8,1.7c0.1,0.1,0.2,0.1,0.4,0.1c0.1,0,0.1,0,0.2,0l3.9-1.7
		l6,10.6H1.4L7,22.2z"/>
	<path class="st0" d="M3.5,9.8h6.3c0.3,0,0.5-0.2,0.5-0.5s-0.2-0.5-0.5-0.5H3.5c-1.3,0-2.4-1-2.4-2.2s1.1-2.2,2.4-2.2
		C3.8,4.3,4,4.1,4,3.9C4.1,2.2,5.4,1,7.2,1s3.2,1.4,3.2,3c0,0.3,0,0.6-0.1,0.9c0,0.1,0,0.3,0.1,0.4s0.2,0.2,0.4,0.2l0,0l0,0
		c1,0,1.8,0.7,1.8,1.7c0,0.7-0.4,1.3-1,1.5c-0.3,0.1-0.4,0.4-0.3,0.6c0.1,0.2,0.4,0.4,0.7,0.2c1-0.4,1.6-1.4,1.6-2.4
		c0-1.3-0.9-2.3-2.2-2.6c0-0.2,0-0.4,0-0.6c0-2.2-1.9-4-4.2-4C5.1,0,3.3,1.5,3,3.4C1.4,3.6,0.1,5,0.1,6.6C0.1,8.4,1.6,9.8,3.5,9.8
		L3.5,9.8z"/>
</g>
</svg>
