<?xml version="1.0" encoding="utf-8"?>
<!-- Generator: Adobe Illustrator 24.0.1, SVG Export Plug-In . SVG Version: 6.00 Build 0)  -->
<svg version="1.1" id="Layer_1" xmlns="http://www.w3.org/2000/svg" xmlns:xlink="http://www.w3.org/1999/xlink" x="0px" y="0px"
	 viewBox="0 0 35 33" style="enable-background:new 0 0 35 33;" xml:space="preserve">
<style type="text/css">
	.st0{fill:#CC3300;}
</style>
<path class="st0" d="M35,30.5c0-1.4-0.9-2.5-1.9-2.3c-0.4-1.1,1.3,4-5.8-17.1l0,0l-2.4-7.2c-0.5-1.4-1.9-1.4-2.3,0
	c-0.2,0.6-1.6,4.9-1.9,5.7l-3-8.6l0,0c-0.4-1.3-1.7-1.3-2.1,0l-2.4,7.1c-0.1,0.3-0.4,0.3-0.5,0c-0.4-1.3-1.7-1.3-2.1,0L6.8,19.5
	l-0.1-0.3c-0.3-1-1.2-1-1.6,0l0,0l0,0L1,31.5H0.5c-0.3,0-0.5,0.3-0.5,0.8S0.2,33,0.5,33c0.6,0,25.3,0,25.8,0c0.3,0,0.5-0.3,0.5-0.8
	s-0.2-0.8-0.5-0.8h-5.7c-0.2,0-0.4-0.3-0.4-0.6c0-0.3,0.2-0.6,0.5-0.6c0.4,0.1,0.7-0.3,0.8-0.9c0.1-0.7,0.5-1.2,1-1.2
	c0.3,0,0.7,0.3,0.8,0.7c0.2,0.4,0.5,0.7,0.8,0.6c0.1,0,0.2-0.1,0.5,0c0.6,0.3,0.7-0.5,1.3-0.3c0.4,0.1,0.8-0.3,0.8-0.9
	c0.1-1.2,0.8-2.1,1.6-2.1c0.6,0,1.1,0.5,1.4,1.2c0.2,0.4,0.5,0.7,0.8,0.7c0.1,0,0.1,0,0.2-0.1c0.6-0.3,1.2,0.2,1.5,1
	c0.2,0.6,0.6,0.9,1,0.7c0.4-0.2,0.8,0.3,0.8,0.8s-0.3,0.9-0.6,0.9h-4.6c-0.3,0-0.5,0.3-0.5,0.8s0.2,0.8,0.5,0.8h4.6
	C34.3,33,35,31.9,35,30.5z M23.5,4.6c0.1-0.3,0.4-0.3,0.5,0c0.2,0.6,1.7,5,2.3,6.7L24.5,14c0,0.1-0.1,0.1-0.2,0l-1.1-1.4
	c-0.5-0.6-1.2-0.5-1.6,0.2L21,13.9c0,0.1-0.1,0.1-0.2,0l-0.3-0.4C22.5,7.5,22.5,7.6,23.5,4.6z M5.9,20.3l1.4,4.2l-0.7,1.1l-0.8-1
	c-0.4-0.5-0.9-0.5-1.2-0.1L5.9,20.3z M2.1,31.5L3.6,27c0.7,0.3,1.1-0.6,1.4-1.3l0.8,1c0.4,0.5,1,0.5,1.4-0.1l0.5-0.8l1.9,5.6
	L2.1,31.5L2.1,31.5z M13.3,31.5h-2.5L7.3,21.2l4.2-12.5c0.1-0.2,0.2-0.2,0.3,0c0.5,1.4,1.8,1.4,2.3,0l2.4-7.1c0.1-0.2,0.2-0.2,0.3,0
	l0,0l3.3,9.7C19.8,12.2,13.9,29.8,13.3,31.5z M31.1,26.4c-0.2,0-0.3,0-0.5,0.1c-0.5-1.1-1.3-1.8-2.2-1.8c-1.2,0-2.2,1.2-2.5,2.9
	c-0.3,0-0.7,0.1-1,0.4c-0.2-0.1-0.5-0.1-0.7,0c-0.4-0.8-1-1.3-1.6-1.3c-0.9,0-1.6,0.8-1.9,2.1c-0.7,0.1-1.3,1-1.3,2.1l0,0
	c0,0.2,0,0.4,0.1,0.6h-4.8L20,14.9l0.1,0.1l0,0c0.5,0.7,1.2,0.6,1.7-0.2l0.6-1.1c0-0.1,0.1-0.1,0.2,0l1.1,1.4
	c0.5,0.6,1.1,0.5,1.6-0.1l1.6-2.4l4.6,13.7C31.3,26.4,31.2,26.4,31.1,26.4z"/>
</svg>
