<?xml version="1.0" encoding="utf-8"?>
<!-- Generator: Adobe Illustrator 24.0.1, SVG Export Plug-In . SVG Version: 6.00 Build 0)  -->
<svg version="1.1" id="Layer_1" xmlns="http://www.w3.org/2000/svg" xmlns:xlink="http://www.w3.org/1999/xlink" x="0px" y="0px"
	 viewBox="0 0 35 33" style="enable-background:new 0 0 35 33;" xml:space="preserve">
<style type="text/css">
	.st0{fill:#CC3300;}
</style>
<g>
	<g>
		<path class="st0" d="M34.3,10.6c-0.3-0.3-0.4-0.6-0.4-1V7.4c0-0.2-0.1-0.5-0.4-0.6l-1.2-0.6c-0.2-0.1-0.3-0.3-0.4-0.5
			s0-0.4,0.1-0.6c0.2-0.3,0.2-0.7,0-0.9C31.7,4,31.3,4,31,4.1l-0.4,0.2c-0.1,0-0.1,0-0.1,0.1h-0.2c0,0,0,0-0.1,0S30,4.3,29.9,4.2
			c-0.3-0.6-0.3-1.4,0.1-2l0.2-0.3c0.3-0.5,0.2-1-0.1-1.4c-0.4-0.4-0.9-0.6-1.5-0.4l-4.1,1.2c-0.2,0.1-0.4,0.1-0.5,0.1h-6.6
			c-3.8,0-7.4,1.1-10.5,3.3C6.6,4.9,6.5,5.3,6.7,5.6c0.2,0.3,0.7,0.3,1,0.1c2.8-2,6.1-3.1,9.6-3.1h6.6c0.3,0,0.7,0,1-0.1L29,1.3
			l-0.1,0.1l-2.3,1.5C26,3.3,25.7,4,26,4.7c0.2,0.7,0.8,1.1,1.6,1.1h2.6c0.1,0,0.2,0,0.3,0c0,0.1,0,0.3,0.1,0.4
			c0.1,0.6,0.6,1.1,1.1,1.3l0.2,0.1l-6.9,4c-0.5,0.3-0.7,0.9-0.6,1.4c0.2,0.5,0.7,0.9,1.3,0.9h4.2c0.7,0,1.4-0.2,2-0.4l1.6-0.8
			c0,0.1-0.1,0.2-0.2,0.2l-2.2,2c-1.3,1.2-3,1.7-4.8,1.3l-4.7-1c-1.9-0.4-3.8,0.1-5.1,1.4l-0.7,0.7c-1.6,1.5-3.6,2.3-5.9,2.5
			l-8.7,0.4v-2.4c0-3.1,1-6,2.8-8.5c0.4-0.4,0.3-0.8,0-1S3.3,8.2,3,8.5c-2,2.7-3,5.9-3,9.3v3.1c0,0.2,0.1,0.3,0.2,0.5
			c0.1,0.1,0.3,0.2,0.5,0.2l0,0l9.4-0.5c1.9-0.1,3.8-0.7,5.3-1.7v5.5c0,0.1,0,0.1,0,0.2l-0.1,0.1c-0.5,0.6-0.8,1.4-0.7,2.1l0.2,1.8
			c0,0.2,0.2,0.4,0.4,0.5v1.5c0,1.1,1,2.1,2.2,2.1s2.2-0.9,2.2-2.1v-1.5c0.1,0,0.2-0.1,0.3-0.2l0,0l4.7-5.1c0.2-0.3,0.2-0.7-0.1-0.9
			c-0.3-0.2-0.7-0.2-1,0.1l-3.2,3.6c0-0.6-0.2-1.1-0.5-1.6l6.8-7.7c0.8,0.1,1.6,0.1,2.3-0.1l-1.9,2c-0.2,0.3-0.2,0.7,0.1,0.9
			c0.1,0.1,0.3,0.2,0.4,0.2c0.2,0,0.4-0.1,0.5-0.2l4.8-5.2l1.4-1.3C35.2,12.9,35.2,11.5,34.3,10.6z M27.5,4.4
			c-0.2,0-0.2-0.1-0.3-0.2s0-0.2,0.1-0.3l0.9-0.6c0,0.4,0.1,0.7,0.2,1.1H27.5L27.5,4.4z M31.3,12.3c-0.4,0.2-0.9,0.3-1.4,0.3h-4
			l6.6-4v1c0,0.6,0.2,1.2,0.7,1.7L31.3,12.3z M16.8,18.2L16.8,18.2C16.8,18.2,16.9,18.2,16.8,18.2l0.7-0.7c0.2-0.2,0.4-0.3,0.6-0.5
			v7.2c-0.2-0.1-0.5-0.1-0.7-0.1s-0.5,0-0.7,0.1v-6H16.8z M18.3,30.9c0,0.4-0.4,0.8-0.8,0.8s-0.8-0.3-0.8-0.8v-1.4h1.6L18.3,30.9
			L18.3,30.9z M19,27l-0.2,1.3h-2.6L16,27c-0.1-0.4,0.1-0.8,0.4-1.1c0.3-0.3,0.7-0.5,1.1-0.5s0.8,0.2,1.1,0.5
			C18.9,26.2,19,26.6,19,27z M19.6,23.5v-7.1c0.6-0.1,1.2-0.1,1.9,0l3.7,0.8L19.6,23.5z"/>
	</g>
</g>
<g>
	<g>
		<path class="st0" d="M6,6.2c-0.3-0.3-0.7-0.3-1,0c0,0,0,0-0.1,0.1C4.7,6.5,4.7,6.9,5,7.2c0.1,0.1,0.3,0.2,0.5,0.2S5.9,7.3,6,7.2
			V7.1C6.3,6.8,6.3,6.4,6,6.2z"/>
	</g>
</g>
<g>
	<g>
		<path class="st0" d="M19.9,4.5c-0.1-0.3-0.4-0.5-0.8-0.4L13.8,5c-2.6,0.4-4.9,1.7-6.6,3.6C7,8.9,6.9,9.3,7.1,9.7s0.6,0.6,1,0.6
			h2.5c0.2,0,0.4-0.1,0.6-0.2l8.4-4.9C19.9,5.1,20,4.8,19.9,4.5z M10.6,9h-2C10,7.5,11.9,6.5,14,6.2l1.8-0.3L10.6,9z"/>
	</g>
</g>
<g>
	<g>
		<path class="st0" d="M8.5,12c-0.3-0.4-0.8-0.5-1.3-0.3l-1.4,0.6c-1.8,0.7-3,2.3-3.3,4.1c0,0.3,0,0.5,0.2,0.7s0.5,0.3,0.7,0.3
			c1.1,0,2.1-0.5,2.8-1.3l2.2-2.8C8.9,12.8,8.8,12.3,8.5,12z M5.2,15.2C4.9,15.6,4.5,15.9,4,16c0.3-1.1,1.2-2.1,2.3-2.6l0.4-0.2
			L5.2,15.2z"/>
	</g>
</g>
<g>
	<g>
		<path class="st0" d="M19.1,11.3c-0.3-0.5-0.9-0.8-1.5-0.7c-3.6,0.7-6.8,2.3-9.4,4.7L8,15.5c-0.4,0.3-0.4,0.9-0.1,1.3
			c0.2,0.3,0.5,0.5,0.9,0.5c0.1,0,0.3,0,0.4-0.1l7.1-2.5c0.1-0.1,0.3-0.1,0.4-0.2l2-1.6C19.2,12.5,19.3,11.9,19.1,11.3z M17.8,11.9
			l-2,1.6l-5.8,2C12.2,13.7,14.9,12.4,17.8,11.9L17.8,11.9L17.8,11.9L17.8,11.9z"/>
	</g>
</g>
<g>
	<g>
		<path class="st0" d="M25.5,6.9c-0.2-0.5-0.6-0.8-1.2-0.8h-1.5c-1.2,0-2.3,0.3-3.3,0.9l-1.1,0.7C17.9,8,17.7,8.5,17.9,9
			s0.6,0.8,1.2,0.8h1.5c1.2,0,2.4-0.3,3.4-1l1-0.7C25.5,7.9,25.7,7.4,25.5,6.9z M23.2,7.8c-0.8,0.5-1.7,0.7-2.6,0.7h-1.1L20.3,8
			c0.8-0.5,1.6-0.7,2.5-0.7h1L23.2,7.8z"/>
	</g>
</g>
<g>
	<g>
		<path class="st0" d="M26.4,21.3c-0.3-0.2-0.7-0.2-1,0.1l0,0c-0.2,0.3-0.2,0.7,0.1,0.9c0.1,0.1,0.3,0.2,0.4,0.2
			c0.2,0,0.4-0.1,0.5-0.2l0,0C26.7,21.9,26.6,21.5,26.4,21.3z"/>
	</g>
</g>
</svg>
