<?xml version="1.0" encoding="utf-8"?>
<!-- Generator: Adobe Illustrator 24.0.1, SVG Export Plug-In . SVG Version: 6.00 Build 0)  -->
<svg version="1.1" id="Layer_1" xmlns="http://www.w3.org/2000/svg" xmlns:xlink="http://www.w3.org/1999/xlink" x="0px" y="0px"
	 viewBox="0 0 35 33" style="enable-background:new 0 0 35 33;" xml:space="preserve">
<style type="text/css">
	.st0{fill:#CC3300;}
</style>
<g>
	<g>
		<path class="st0" d="M34.4,24.5c-0.1-0.3-0.6-0.5-1-0.4s-0.6,0.5-0.4,0.8c0.3,0.7,0.5,1.4,0.5,2.1v2.1h-4.8v-3.9
			c0-0.4-0.3-0.6-0.8-0.6s-0.8,0.3-0.8,0.6v1.4L26.7,27c-1.4,1.3-2.3,2.9-2.5,4.7h-6v-5.9c0-0.4-0.3-0.6-0.8-0.6s-0.8,0.3-0.8,0.6
			v5.9h-6c-0.2-1.7-1-3.4-2.5-4.7l-0.4-0.4v-1.4c0-0.4-0.3-0.6-0.8-0.6s-0.8,0.3-0.8,0.6v3.9H1.5V27c0-2.8,2.2-5.1,5.4-5.8L13,20
			c1.2,0.9,2.8,1.5,4.5,1.5s3.3-0.5,4.5-1.4l6.1,1.2c0.4,0.1,0.7,0.2,1.1,0.3c0.1,0,0.2,0,0.3,0c0.3,0,0.6-0.1,0.7-0.4
			c0.2-0.3,0-0.7-0.4-0.8c-0.4-0.1-0.9-0.3-1.3-0.4l-6.3-1.3v-1.3c1.8-0.9,2.9-2.5,3-4.3c1.4-0.1,2.5-1,2.5-2.2
			c0-0.6-0.3-1.2-0.8-1.6C27.3,9,27.5,8.5,27.5,8c-0.2-4.4-4.5-8-9.8-8h-0.3C12,0,7.7,3.6,7.7,8.1c0,0.5,0.2,0.9,0.6,1.3
			c-0.5,0.4-0.8,1-0.8,1.6c0,1.2,1.1,2.1,2.5,2.2c0.1,1.8,1.2,3.4,3,4.3v1.3L6.6,20c-1.9,0.4-3.5,1.3-4.7,2.5C0.7,23.8,0,25.4,0,27
			v5.3C0,32.7,0.3,33,0.8,33h33.5c0.4,0,0.8-0.3,0.8-0.6V27C35,26.2,34.8,25.3,34.4,24.5z M17.5,20.2c-1.1,0-2.2-0.3-3.1-0.9v-0.1
			V18c0.5,0.1,1,0.2,1.6,0.2h3c0.5,0,1.1-0.1,1.5-0.2v1.3v0.1C19.7,19.9,18.6,20.2,17.5,20.2z M23.6,10.8c0,0.4-0.2,0.8-0.5,1.1
			s-0.8,0.4-1.2,0.4h-1.2l2.6-2.2l0,0h0.3L23.6,10.8L23.6,10.8z M18.9,11.9c-0.3-0.4-0.8-0.7-1.4-0.7s-1.1,0.3-1.4,0.7
			c-0.1,0.2-0.4,0.4-0.7,0.4h-1.6l2.6-2.2l0,0H21L18.9,11.9z M25.1,11.9v-1v-0.7c0.5,0.1,0.9,0.4,0.9,0.9
			C26,11.4,25.6,11.8,25.1,11.9z M22.4,2.6c0.4,0.2,0.7,0.5,1.1,0.8l-1.6,1.1L22.4,2.6z M12.6,2.6l0.5,1.8l-1.6-1.1
			C11.8,3.1,12.2,2.8,12.6,2.6z M9.9,10.8v1C9.4,11.8,9,11.4,9,11c0-0.5,0.4-0.8,0.9-0.9V10.8z M10,8.8c-0.4,0-0.8-0.3-0.8-0.6
			c0-1.4,0.5-2.6,1.3-3.7L13,6.1c0.2,0.1,0.5,0.2,0.7,0.2s0.4-0.1,0.6-0.2c0.4-0.2,0.6-0.6,0.5-1l-0.9-3.2c0.9-0.3,1.8-0.5,2.8-0.6
			v4.6c0,0.4,0.3,0.6,0.8,0.6c0.4,0,0.8-0.3,0.8-0.6V1.3c1,0.1,1.9,0.3,2.8,0.6l-0.9,3.2c-0.1,0.4,0.1,0.8,0.5,1
			c0.2,0.1,0.4,0.2,0.6,0.2s0.5-0.1,0.7-0.2l2.5-1.7c0.8,1.1,1.3,2.4,1.3,3.7c0,0.4-0.3,0.6-0.8,0.6h-0.7H10.7H10V8.8z M11.4,10.1
			L11.4,10.1h2.9L12.1,12c0,0-0.1,0-0.1-0.1c-0.3-0.3-0.5-0.7-0.5-1.1L11.4,10.1L11.4,10.1z M11.4,13.2c0.5,0.3,1.1,0.4,1.7,0.4h2.3
			c0.9,0,1.6-0.4,2-1l0,0c0.4,0.6,1.2,1,2,1h2.3c0.6,0,1.2-0.1,1.7-0.4c0,1.3-0.9,2.4-2.1,3.1c0,0-0.5,0.2-0.8,0.4
			C20,16.9,19.4,17,18.9,17h-3c-0.6,0-1.2-0.1-1.7-0.3c-0.1,0-0.7-0.3-0.8-0.3C12.3,15.6,11.5,14.5,11.4,13.2z M6.3,31.7H1.5v-1.3
			h4.8V31.7L6.3,31.7z M7.9,31.7v-3.1c0.8,0.9,1.2,2,1.4,3.1H7.9z M27.1,31.7h-1.4c0.1-1.1,0.6-2.2,1.4-3.1V31.7z M33.5,31.7h-4.8
			v-1.3h4.8V31.7z"/>
	</g>
</g>
<g>
	<g>
		<path class="st0" d="M32.7,22.1L32.7,22.1c-0.4-0.3-0.8-0.3-1.1-0.1c-0.3,0.2-0.3,0.7,0,0.9l0,0c0.2,0.1,0.4,0.2,0.6,0.2
			s0.4-0.1,0.5-0.2C33,22.8,33,22.4,32.7,22.1z"/>
	</g>
</g>
<g>
	<g>
		<path class="st0" d="M18.1,22.8c-0.1-0.1-0.3-0.2-0.5-0.2s-0.4,0.1-0.5,0.2s-0.2,0.3-0.2,0.5s0.1,0.3,0.2,0.5
			c0.1,0.1,0.3,0.2,0.5,0.2s0.4-0.1,0.5-0.2s0.2-0.3,0.2-0.5S18.2,22.9,18.1,22.8z"/>
	</g>
</g>
</svg>
