<?xml version="1.0" encoding="utf-8"?>
<!-- Generator: Adobe Illustrator 24.0.1, SVG Export Plug-In . SVG Version: 6.00 Build 0)  -->
<svg version="1.1" id="Layer_1" xmlns="http://www.w3.org/2000/svg" xmlns:xlink="http://www.w3.org/1999/xlink" x="0px" y="0px"
	 viewBox="0 0 35 33" style="enable-background:new 0 0 35 33;" xml:space="preserve">
<style type="text/css">
	.st0{fill:#CC3300;}
</style>
<path class="st0" d="M34.5,31.4h-0.3L24,6.9c-0.5-1.1-1.3-1.8-2.1-1.8c-0.9,0-1.7,0.7-2.1,1.8l-0.6,1.5l-2.7-6.7
	C16,0.6,15.3,0,14.5,0s-1.5,0.6-2,1.7L0.6,31.4H0.5c-0.3,0-0.5,0.4-0.5,0.8S0.2,33,0.5,33h34c0.3,0,0.5-0.4,0.5-0.8
	S34.8,31.4,34.5,31.4z M19.8,9.9l0.8-2c0.3-0.7,0.8-1.1,1.3-1.1s1,0.4,1.3,1.1l4.2,10c-0.1,0.2-0.3,0.3-0.4,0.5
	c-0.2,0.2-0.3,0.7-0.2,1.1c0.1,0.3,0.3,0.4,0.4,0.4s0.2,0,0.3-0.1c0.1-0.1,0.3-0.3,0.4-0.5l5,12.1h-4.7L24,20.6
	c0.4,0.1,0.7,0.1,1.1,0.1c0,0,0,0,0.1,0c0.3,0,0.5-0.4,0.5-0.8c0-0.5-0.2-0.8-0.5-0.8c-0.6,0-1.2-0.1-1.9-0.4L19.8,9.9
	C19.7,9.9,19.8,9.9,19.8,9.9z M8.2,15.6c0.5,1.5,1.6,2.5,2.7,2.5c0.8,0,1.6-0.5,2.2-1.4c0.9,0.9,3.2,3.1,5.5,3.7h0.1
	c0.2,0,0.5-0.3,0.5-0.7c0-0.4-0.1-0.9-0.4-0.9c-2.6-0.7-5.4-3.8-5.4-3.8c-0.2-0.3-0.5-0.2-0.7,0.2c-0.4,0.8-1,1.3-1.7,1.3
	c-1,0-1.8-1.1-2-2.6l4.5-11.3c0.2-0.6,0.7-1,1.1-1c0.5,0,0.9,0.4,1.1,1l6.1,15.2c-0.3,0.4-0.6,0.7-1,0.9c-0.3,0.1-0.4,0.6-0.4,1
	c0.1,0.4,0.3,0.6,0.5,0.6H21c0.5-0.2,0.9-0.6,1.3-1.1l4.9,12.1H2L8.2,15.6z"/>
</svg>
