<?xml version="1.0" encoding="utf-8"?>
<!-- Generator: Adobe Illustrator 24.0.1, SVG Export Plug-In . SVG Version: 6.00 Build 0)  -->
<svg version="1.1" id="Layer_1" xmlns="http://www.w3.org/2000/svg" xmlns:xlink="http://www.w3.org/1999/xlink" x="0px" y="0px"
	 viewBox="0 0 35 33" style="enable-background:new 0 0 35 33;" xml:space="preserve">
<style type="text/css">
	.st0{fill:#CC3300;}
</style>
<g>
	<g>
		<path class="st0" d="M34.4,31.8h-2.3l-4.5-13.1l0,0l-0.8-2.4L21.5,0.4C21.4,0.1,21-0.1,20.8,0s-0.3,0.2-0.3,0.4l-4.6,13.3L13,5.2
			c-0.1-0.3-0.4-0.5-0.7-0.4C12.1,4.9,12,5,11.9,5.2L7.3,18.7l-1.2,3.6l0,0l-3.2,9.4H0.6C0.2,31.8,0,32,0,32.4S0.2,33,0.6,33h33.9
			c0.3,0,0.6-0.3,0.6-0.6S34.8,31.8,34.4,31.8z M20.9,2.4l4.6,13.4l-2.2-2.9c-0.2-0.3-0.5-0.3-0.8-0.1c-0.1,0.1-0.2,0.2-0.2,0.4
			l-0.8,5.3L19.9,11c-0.1-0.3-0.3-0.6-0.6-0.5c-0.1,0-0.2,0.1-0.3,0.2l-1.3,1.4L20.9,2.4z M8.3,19.1l4.1-12l4.1,12l0.9,2.7l-3-3.5
			c-0.2-0.2-0.6-0.3-0.8,0c-0.1,0.1-0.1,0.1-0.1,0.2l-1.7,4.4l-0.5-5.4c0-0.3-0.3-0.6-0.6-0.6c-0.1,0-0.2,0.1-0.3,0.2L8,19.8
			L8.3,19.1z M4,31.8l3-8.9l3.3-3.9l0.6,6.5c0,0.3,0.3,0.6,0.6,0.5c0.2,0,0.4-0.2,0.5-0.4l2.2-5.7l4.3,5l2.4,6.9L4,31.8z M22.1,31.8
			l-2.6-7.5l0,0l-1.9-5.6l-1.1-3.3l0.3-0.7l2.3-2.5l2,9.3c0.1,0.3,0.4,0.5,0.7,0.5c0.2-0.1,0.4-0.3,0.4-0.5l1.1-6.9l3.5,4.7L31,31.8
			H22.1z"/>
	</g>
</g>
</svg>
