<?xml version="1.0" encoding="utf-8"?>
<!-- Generator: Adobe Illustrator 24.0.1, SVG Export Plug-In . SVG Version: 6.00 Build 0)  -->
<svg version="1.1" id="Layer_1" xmlns="http://www.w3.org/2000/svg" xmlns:xlink="http://www.w3.org/1999/xlink" x="0px" y="0px"
	 viewBox="0 0 35 33" style="enable-background:new 0 0 35 33;" xml:space="preserve">
<style type="text/css">
	.st0{fill:#CC3300;}
</style>
<g>
	<g>
		<path class="st0" d="M34.9,31.4l-4-9.5c-0.1-0.3-0.4-0.4-0.7-0.3c-0.2,0.2-0.3,0.6-0.2,0.9l3.9,9.2H20.2c0-0.1-5.9-14.2-5.9-14.2
			l0.9-2.1l0.9,1.5c0.2,0.3,0.4,0.4,0.6,0.4c0.3,0,0.5-0.1,0.7-0.4l2.2-3.1l4.3,6.4c0.2,0.2,0.4,0.4,0.6,0.4l0,0
			c0.2,0,0.5-0.1,0.6-0.4l0,0l2.4-3.5l1,2.3c0.1,0.3,0.4,0.4,0.7,0.3c0.2-0.2,0.3-0.6,0.2-0.9l-7.6-18C21.7,0.2,21.5,0,21.1,0l0,0
			c-0.3,0-0.6,0.2-0.8,0.6L15,13.1L14.6,14l0,0l-0.9,2.2l-2.8-6.6c-0.1-0.3-0.3-0.5-0.5-0.5c-0.1,0-0.2,0-0.2,0l0,0l0,0l0,0l0,0l0,0
			l0,0l0,0c-0.4,0-0.6,0.2-0.8,0.5L7.6,14l-3.2,7.4l0,0l-4.3,10c-0.1,0.3-0.1,0.7,0,1.1C0.3,32.8,0.6,33,0.9,33h33.3
			c0.3,0,0.6-0.2,0.7-0.5C35,32.2,35,31.8,34.9,31.4z M15.9,13.9l5.3-12.3l6,14.1l-2.5,3.7L20.4,13c-0.2-0.2-0.4-0.4-0.6-0.4l0,0
			c-0.2,0-0.5,0.1-0.6,0.4l-2.4,3l-1.1-1.8L15.9,13.9z M1.1,31.7l3.9-9l1.5,1.6c0.2,0.2,0.4,0.3,0.6,0.3s0.5-0.1,0.6-0.4l1.7-2.4
			l1.1,1.4c0.2,0.2,0.5,0.2,0.7,0c0.2-0.3,0.2-0.7,0-0.9L10,20.6c-0.2-0.2-0.4-0.3-0.6-0.3c-0.2,0-0.5,0.1-0.6,0.4L7,23.1l-1.5-1.6
			l4.7-10.9l6,14.3l-1.5,1.7l-1.3-1.7c-0.2-0.2-0.5-0.2-0.7,0c-0.2,0.3-0.2,0.7,0,0.9l1.4,1.8c0.2,0.2,0.4,0.3,0.6,0.3
			c0.2,0,0.4-0.1,0.6-0.3l1.4-1.6l2.4,5.7H1.1z"/>
	</g>
</g>
</svg>
