<?xml version="1.0" encoding="utf-8"?>
<!-- Generator: Adobe Illustrator 24.0.1, SVG Export Plug-In . SVG Version: 6.00 Build 0)  -->
<svg version="1.1" id="Layer_1" xmlns="http://www.w3.org/2000/svg" xmlns:xlink="http://www.w3.org/1999/xlink" x="0px" y="0px"
	 viewBox="0 0 35 33" style="enable-background:new 0 0 35 33;" xml:space="preserve">
<style type="text/css">
	.st0{fill:#CC3300;}
</style>
<g>
	<g>
		<path class="st0" d="M34.9,32.1L18,0.3c-0.2-0.4-0.9-0.4-1.1,0L0.1,32.1c-0.1,0.2-0.1,0.4,0,0.6C0.2,32.9,0.4,33,0.6,33h33.8
			c0.2,0,0.4-0.1,0.5-0.3C35,32.5,35,32.3,34.9,32.1z M17.5,1.9l5.2,9.9l-2.3,0.5c-0.2,0-0.4,0.2-0.4,0.4l-0.7,1.9l-1.8-3.2
			c-0.2-0.4-0.8-0.4-1,0l-1.7,3.1l-1.4-4.2c0-0.1,0-0.1-0.1-0.1L17.5,1.9z M1.6,31.8L1.6,31.8l10.8-20.3l1.5,4.6
			c0.1,0.2,0.3,0.4,0.5,0.4c0,0,0,0,0.1,0c0.2,0,0.4-0.1,0.5-0.3l1.9-3.4l1.9,3.4c0.1,0.2,0.3,0.3,0.6,0.3c0.2,0,0.4-0.2,0.5-0.4
			l1.1-2.8l2.4-0.5l10,18.9L1.6,31.8L1.6,31.8z"/>
	</g>
</g>
</svg>
