<?xml version="1.0" encoding="utf-8"?>
<!-- Generator: Adobe Illustrator 24.0.1, SVG Export Plug-In . SVG Version: 6.00 Build 0)  -->
<svg version="1.1" id="Layer_1" xmlns="http://www.w3.org/2000/svg" xmlns:xlink="http://www.w3.org/1999/xlink" x="0px" y="0px"
	 viewBox="0 0 35 33" style="enable-background:new 0 0 35 33;" xml:space="preserve">
<style type="text/css">
	.st0{fill:#CC3300;}
</style>
<g>
	<g>
		<path class="st0" d="M32.6,21.1h-1.2c0.3-0.4,0.6-0.8,0.9-1.2c0.9-1.6,1.1-3.4,0.7-5.1c-1-3.6-4.7-5.7-8.3-4.8
			c-0.6,0.2-1.2,0.4-1.8,0.7L19.5,6l1-0.3c0.7-0.2,1.2-0.6,1.5-1.2c0.3-0.6,0.4-1.3,0.3-1.9c-0.2-0.7-0.6-1.2-1.2-1.5
			c-0.6-0.3-1.3-0.4-1.9-0.3l-3.3,0.9c-0.3,0.1-0.5,0.4-0.4,0.8c0,0.1,0.1,0.1,0.1,0.2c0,0,0,0,0,0l1.9,2.6l-1.5,0.4
			c-0.3,0.1-0.5,0.4-0.4,0.8c0.1,0.3,0.3,0.5,0.6,0.5c0.1,0,0.1,0,0.2,0l1.9-0.5L19.4,8l-6.9,1.8l-1.3-1.8c-0.1-0.2-0.4-0.3-0.7-0.2
			L7.3,8.7C6.7,8.9,6.2,9.3,6,9.9c-0.2,0.6-0.1,1.2,0.3,1.7c0.4,0.5,0.9,0.8,1.5,0.8c0.2,0,0.3,0,0.5-0.1l2.9-0.8l-0.8,3
			c-1-0.2-1.9-0.1-2.9,0.1c-1.7,0.5-3.2,1.6-4.1,3.1c-0.9,1.6-1.1,3.4-0.7,5.1c0.4,1.6,1.4,3,2.8,3.9l-3.3,1.7
			c-0.2,0.1-0.3,0.3-0.3,0.5v2.6c0,0.3,0.3,0.6,0.6,0.6h30.2c0.3,0,0.6-0.3,0.6-0.6v-9.9C33.2,21.4,33,21.1,32.6,21.1z M22.7,12.5
			l3.3,4.4c0.1,0.2,0.3,0.2,0.5,0.2c0.1,0,0.3,0,0.4-0.1c0.3-0.2,0.3-0.6,0.1-0.9l-3.3-4.4c0.4-0.2,0.9-0.4,1.3-0.6
			c0.5-0.1,1-0.2,1.4-0.2c2.4,0,4.7,1.6,5.3,4.1c0.4,1.4,0.2,2.9-0.6,4.2c-0.5,0.8-1.1,1.4-1.8,1.9c0,0,0,0,0,0l-0.1,0
			c-0.4,0.3-0.9,0.5-1.5,0.6c-1.4,0.4-2.9,0.2-4.2-0.6c-1.3-0.7-2.2-1.9-2.6-3.4C20.6,15.9,21.3,13.8,22.7,12.5z M18.7,4.9L17,2.7
			L19.5,2c0.3-0.1,0.7,0,1,0.1C20.8,2.3,21,2.6,21.1,3c0.1,0.3,0,0.7-0.1,1s-0.5,0.5-0.8,0.6L18.7,4.9z M12.3,11.6l0.9,1.2
			c0.1,0.2,0.3,0.2,0.5,0.2c0.1,0,0.3,0,0.4-0.1c0.3-0.2,0.3-0.6,0.1-0.9l-0.9-1.2l6.9-1.8l1.8,2.4c-1.8,1.6-2.7,4.3-2,6.8
			c0.5,1.7,1.6,3.2,3.1,4.1c0.9,0.5,2,0.8,3,0.9L25,24l-5.4-0.7c-0.2,0-0.3,0-0.4,0.1l-4.7,3.3H13c0.8-0.6,1.5-1.3,2-2.2
			c0.8-1.4,1.1-3,0.8-4.5l2.7-0.7c0.2-0.1,0.4-0.2,0.4-0.4c0.1-0.2,0-0.4-0.1-0.6L17,15.9c-0.2-0.3-0.6-0.3-0.9-0.1
			c-0.3,0.2-0.3,0.6-0.1,0.9l1.3,1.7l-1.8,0.5c-0.5-1.5-1.6-2.7-3-3.5c-0.3-0.2-0.7-0.4-1-0.5L12.3,11.6z M7.9,11.1
			c-0.2,0.1-0.5,0-0.7-0.2c-0.1-0.2-0.2-0.4-0.1-0.6c0.1-0.2,0.2-0.3,0.4-0.4l3-0.8l0.1,0.2c0,0,0,0,0,0l0.7,0.9L7.9,11.1z M11.2,16
			c0.3,0.1,0.5,0.2,0.7,0.4c1.1,0.6,1.9,1.6,2.4,2.8L10,20.3L11.2,16z M3.8,22.6c-0.8-2.9,1-6,3.9-6.8c0.5-0.1,1-0.2,1.4-0.2
			c0.3,0,0.5,0,0.8,0.1L8.5,21c-0.1,0.2,0,0.4,0.2,0.6c0.1,0.1,0.3,0.2,0.4,0.2c0.1,0,0.1,0,0.2,0l5.3-1.4c0.2,1.2,0,2.5-0.7,3.6
			c-0.7,1.3-1.9,2.2-3.4,2.6c-0.4,0.1-0.9,0.2-1.3,0.2h0c-1,0-2-0.2-2.8-0.7C5.1,25.2,4.2,24,3.8,22.6z M32,31L32,31H3v-1.6l2.9-1.5
			h8.8c0.1,0,0.3,0,0.4-0.1l4.7-3.3l5.3,0.7c0.1,0,0.3,0,0.4-0.1l4.5-2.8H32V31z"/>
	</g>
</g>
</svg>
