<?xml version="1.0" encoding="utf-8"?>
<!-- Generator: Adobe Illustrator 24.0.1, SVG Export Plug-In . SVG Version: 6.00 Build 0)  -->
<svg version="1.1" xmlns="http://www.w3.org/2000/svg" xmlns:xlink="http://www.w3.org/1999/xlink" x="0px" y="0px"
	 viewBox="0 0 35 33" style="enable-background:new 0 0 35 33;" xml:space="preserve">
<style type="text/css">
	.st0{display:none;}
	.st1{display:inline;}
	.st2{fill:#CC3300;}
</style>
<g id="chomu-z-namy" class="st0">
	<g class="st1">
		<g>
			<path class="st2" d="M33.65,18.46c-0.22-0.11-0.48-0.08-0.67,0.06l-5.06,3.62V6.6c0-0.34-0.29-0.62-0.64-0.62
				s-0.64,0.28-0.64,0.62v5.47c-0.25-0.08-0.53-0.11-0.81-0.08l-4.04,0.44c-0.14,0.01-0.27-0.05-0.33-0.17l-0.94-1.77l0.68-1.21
				c0.39-0.69,0.48-1.49,0.25-2.25c0.19-0.01,0.38-0.03,0.58-0.07c0.86-0.18,1.62-0.68,2.16-1.39c0.54-0.72,0.78-1.58,0.69-2.42
				c-0.09-0.87-0.53-1.62-1.23-2.11c-1.42-0.99-3.48-0.58-4.61,0.92c-0.54,0.72-0.78,1.58-0.69,2.42c0.01,0.09,0.03,0.19,0.04,0.28
				c-0.28-0.04-0.57-0.04-0.85,0c-0.03-0.02-0.06-0.05-0.1-0.07l-2.25-1.2c-0.88-0.47-1.89-0.59-2.86-0.33
				c-0.97,0.26-1.78,0.86-2.29,1.69l-3.39,5.58C6.14,11.21,6,12.23,6.28,13.21c0.28,0.98,0.94,1.78,1.85,2.27l1.45,0.77
				c-0.21,1.01-0.07,2.07,0.42,3.04l0.24,0.48l-0.53,5.77c0,0.02,0,0.04,0,0.06v5.03c0,1,0.84,1.82,1.87,1.82h3.04
				c0.86,0,1.56-0.68,1.56-1.51s-0.7-1.51-1.56-1.51h-0.66c-0.21,0-0.4-0.1-0.52-0.26c-0.08-0.11-0.13-0.24-0.13-0.38V25.9
				l1.83-4.82l0.93,0.65c0.35,0.24,0.56,0.64,0.56,1.06v5.86c0,0.82,0.69,1.49,1.53,1.49h2.14h0.81h2.91c0.28,0,0.52-0.17,0.61-0.43
				l1.68-4.87l6.39-4.58v10.93h-1.29v-4.3c0-0.34-0.29-0.62-0.64-0.62s-0.64,0.28-0.64,0.62v4.3h-2.86c-0.36,0-0.64,0.28-0.64,0.62
				c0,0.34,0.29,0.62,0.64,0.62h6.08c0.36,0,0.64-0.28,0.64-0.62V19.02C34,18.78,33.86,18.57,33.65,18.46z M20.09,2.69
				c0.46-0.61,1.15-0.95,1.81-0.95c0.36,0,0.7,0.1,1,0.31c0.4,0.28,0.65,0.71,0.7,1.23c0.06,0.54-0.1,1.09-0.45,1.56
				C22.8,5.3,22.3,5.62,21.76,5.74c-0.52,0.11-1.02,0.02-1.41-0.26c-0.01-0.01-0.02-0.01-0.03-0.02c-0.38-0.28-0.63-0.71-0.68-1.21
				C19.58,3.71,19.74,3.15,20.09,2.69z M18.77,6.06l0.55,0.27c0.09,0.04,0.17,0.09,0.25,0.15c0.01,0,0.01,0.01,0.01,0.01
				c0,0,0,0,0.01,0C19.88,6.7,20.1,7,20.21,7.34c0.14,0.45,0.1,0.92-0.14,1.33l-0.26,0.46l-0.04-0.07
				c-0.16-0.31-0.55-0.43-0.87-0.27c-0.32,0.16-0.44,0.53-0.28,0.84l1.68,3.18c0.3,0.58,0.96,0.91,1.62,0.84l4.04-0.44
				c0.3-0.03,0.58,0.16,0.65,0.44c0.04,0.16,0.01,0.33-0.09,0.47c-0.1,0.14-0.25,0.22-0.42,0.24l-5.26,0.59
				c-0.65,0.07-1.28-0.26-1.58-0.82l-1.16-2.2c-0.16-0.31-0.55-0.43-0.87-0.27c-0.32,0.16-0.44,0.53-0.28,0.84l0.46,0.87l-1.24,2.19
				l-3.4-2.13l3.65-6.66C16.87,5.97,17.92,5.65,18.77,6.06z M11.17,5.39c0.7-1.16,2.2-1.55,3.41-0.91l1.06,0.57l-1.12,0.71
				c-1.15,0.73-2.58,0.89-3.86,0.46L11.17,5.39z M7.59,13.11c-0.03-0.07-0.06-0.15-0.08-0.23c-0.18-0.65-0.09-1.32,0.26-1.9L10,7.32
				c0.68,0.26,1.39,0.39,2.11,0.39c0.94,0,1.88-0.22,2.72-0.67l-2.4,4.38l-0.8-0.55c-0.44-0.3-0.97-0.41-1.5-0.32
				c-0.53,0.09-0.99,0.38-1.29,0.81L7.59,13.11z M10,15.05l-1.26-0.67c-0.12-0.06-0.23-0.14-0.34-0.22l1.49-2.1
				c0.11-0.15,0.27-0.25,0.46-0.29c0.19-0.03,0.38,0.01,0.53,0.11l0.94,0.64L11.4,13.3l-0.62,0.66C10.47,14.29,10.21,14.66,10,15.05
				z M13.95,30.66h0.66c0.15,0,0.27,0.12,0.27,0.27s-0.12,0.27-0.27,0.27h-3.04c-0.32,0-0.59-0.25-0.59-0.57V29.4h1.13
				c0.06,0.18,0.15,0.34,0.27,0.5C12.76,30.37,13.34,30.66,13.95,30.66z M16.81,20.71l-2-1.39c-0.29-0.2-0.69-0.14-0.9,0.14
				c-0.2,0.28-0.14,0.66,0.14,0.86l-2,5.25c-0.03,0.07-0.04,0.14-0.04,0.22v2.36h-1.02v-2.53l0.55-5.92
				c0.01-0.11-0.01-0.23-0.06-0.33l-0.32-0.63c-0.41-0.82-0.48-1.73-0.23-2.56c0.02-0.04,0.03-0.08,0.04-0.12
				c0.16-0.46,0.42-0.89,0.77-1.26l0.31-0.33l6.23,3.87c1.25,0.76,1.84,2.21,1.46,3.59l-1.08,3.99h-0.74v-3.14
				C17.91,21.97,17.5,21.19,16.81,20.71z M21.11,28.88H20.3h-2.14c-0.14,0-0.25-0.11-0.25-0.24v-1.47h0.74
				c0.12,0.38,0.34,0.72,0.66,1c0.41,0.36,0.94,0.55,1.5,0.55h0.3c0.04,0,0.08,0.04,0.08,0.08C21.19,28.85,21.16,28.88,21.11,28.88z
				 M26.63,23.06l-1.24,0.89c-0.11,0.08-0.19,0.18-0.23,0.3l-1.6,4.63h-1.09c0-0.03,0-0.05,0-0.08c0-0.73-0.61-1.33-1.37-1.33h-0.3
				c-0.24,0-0.46-0.08-0.64-0.24c-0.2-0.18-0.32-0.42-0.32-0.68c0-0.01,0-0.01,0-0.02c0,0,0-0.01,0-0.01c0-0.08,0.01-0.15,0.03-0.23
				l1.1-4.06c0.52-1.91-0.29-3.91-2.02-4.96l-1.69-1.04l0.86-1.52c0.49,0.93,1.49,1.5,2.55,1.5c0.11,0,0.22-0.01,0.33-0.02
				l5.26-0.59c0.13-0.01,0.26-0.04,0.38-0.08L26.63,23.06L26.63,23.06z"/>
		</g>
	</g>
	<g class="st1">
		<g>
			<path class="st2" d="M27.73,4.04c-0.12-0.12-0.29-0.18-0.45-0.18c-0.17,0-0.34,0.07-0.46,0.18c-0.12,0.12-0.19,0.28-0.19,0.44
				c0,0.16,0.07,0.33,0.19,0.44c0.12,0.12,0.29,0.18,0.46,0.18c0.17,0,0.34-0.07,0.45-0.18c0.12-0.12,0.19-0.28,0.19-0.44
				C27.92,4.32,27.85,4.15,27.73,4.04z"/>
		</g>
	</g>
	<g class="st1">
		<g>
			<path class="st2" d="M8.28,31.59L5.77,25.1c-0.09-0.24-0.33-0.4-0.6-0.4H1.69c-0.36,0-0.64,0.28-0.64,0.62
				c0,0.34,0.29,0.62,0.64,0.62h3.03l2.35,6.09c0.1,0.25,0.34,0.41,0.6,0.41c0.08,0,0.15-0.01,0.23-0.04
				C8.24,32.28,8.4,31.92,8.28,31.59z"/>
		</g>
	</g>
	<g class="st1">
		<g>
			<path class="st2" d="M33.94,10.56c-0.16-0.31-0.54-0.44-0.86-0.29l-3.48,1.64c-0.22,0.1-0.36,0.32-0.36,0.56v5.66
				c0,0.34,0.29,0.62,0.64,0.62s0.64-0.28,0.64-0.62v-5.27l3.11-1.47C33.96,11.24,34.09,10.87,33.94,10.56z"/>
		</g>
	</g>
	<g class="st1">
		<g>
			<path class="st2" d="M31.24,24.06c-0.12-0.12-0.29-0.18-0.45-0.18s-0.34,0.07-0.46,0.18c-0.12,0.12-0.19,0.28-0.19,0.44
				c0,0.16,0.07,0.32,0.19,0.44c0.12,0.12,0.29,0.18,0.46,0.18s0.34-0.07,0.45-0.18c0.12-0.12,0.19-0.28,0.19-0.44
				C31.43,24.34,31.36,24.18,31.24,24.06z"/>
		</g>
	</g>
</g>
<g id="kontseptsiya" class="st0">
	<g class="st1">
		<g>
			<g>
				<path class="st2" d="M30.3,3.03C29.6,1.78,28.28,1,26.83,1c-1.5,0-2.85,0.84-3.53,2.14c-0.26-0.08-0.54-0.12-0.82-0.12
					c-1.62,0-2.94,1.32-2.94,2.94c0,0.33,0.27,0.61,0.61,0.61h4.93c0.33,0,0.61-0.27,0.61-0.61s-0.27-0.61-0.61-0.61h-4.21
					c0.25-0.65,0.88-1.12,1.62-1.12c0.29,0,0.59,0.08,0.84,0.22c0.16,0.09,0.35,0.1,0.52,0.04c0.17-0.07,0.3-0.2,0.36-0.37
					c0.38-1.14,1.43-1.9,2.63-1.9c1.1,0,2.1,0.65,2.54,1.66c0.1,0.23,0.34,0.38,0.59,0.36c0.03,0,0.07,0,0.1,0
					c0.74,0,1.37,0.47,1.62,1.12h-1.71c-0.33,0-0.61,0.27-0.61,0.61s0.27,0.61,0.61,0.61h2.42c0.33,0,0.61-0.27,0.61-0.61
					C33,4.42,31.81,3.15,30.3,3.03z"/>
			</g>
		</g>
		<g>
			<g>
				<path class="st2" d="M27.95,5.53c-0.11-0.11-0.27-0.18-0.43-0.18c-0.16,0-0.32,0.06-0.43,0.18c-0.11,0.11-0.18,0.27-0.18,0.43
					c0,0.16,0.06,0.32,0.18,0.43c0.11,0.11,0.27,0.18,0.43,0.18c0.16,0,0.32-0.06,0.43-0.18c0.11-0.11,0.18-0.27,0.18-0.43
					C28.13,5.8,28.06,5.64,27.95,5.53z"/>
			</g>
		</g>
		<g>
			<g>
				<path class="st2" d="M32.92,27.23L23.9,10.9c-0.11-0.19-0.31-0.31-0.53-0.31s-0.42,0.12-0.53,0.31l-3.61,6.53l-1.23-1.88
					c-0.11-0.17-0.3-0.27-0.51-0.27s-0.4,0.1-0.51,0.27L9.95,26.37L8.7,24.23h0.44c0.22,0,0.42-0.12,0.53-0.3s0.11-0.42,0-0.61
					l-1.43-2.44h0.3c0.22,0,0.42-0.12,0.53-0.3s0.11-0.42,0-0.61l-0.98-1.68l1.01-1.94l0.94,0.64c0.26,0.18,0.56,0.27,0.86,0.27
					c0.12,0,0.24-0.01,0.35-0.04c0.43-0.1,0.81-0.39,1.04-0.8l1.67-2.98c0.07-0.13,0.18-0.21,0.3-0.22c0.08-0.01,0.19,0.01,0.3,0.13
					c0.31,0.34,0.72,0.53,1.17,0.53c0.45,0,0.86-0.19,1.17-0.53l0.74-0.82l0.88,1.7c0.15,0.3,0.52,0.41,0.82,0.26
					c0.3-0.15,0.41-0.52,0.26-0.82l-1.28-2.47c0,0,0,0,0,0L14.89,4.6c-0.1-0.2-0.31-0.33-0.54-0.33S13.92,4.4,13.81,4.6L7.35,17.05
					l-0.57-0.97c-0.11-0.19-0.31-0.3-0.52-0.3s-0.41,0.11-0.52,0.3l-2.27,3.89c-0.11,0.19-0.11,0.42,0,0.61s0.31,0.3,0.53,0.3h0.3
					l-1.43,2.44c-0.11,0.19-0.11,0.42,0,0.61c0.11,0.19,0.31,0.3,0.53,0.3h0.44l-1.74,2.98c-0.11,0.19-0.11,0.42,0,0.61
					c0.11,0.19,0.31,0.3,0.53,0.3h29.79c0.21,0,0.41-0.11,0.52-0.3C33.02,27.64,33.03,27.41,32.92,27.23z M14.35,6.19l2.68,5.17
					l-1.04,1.16c-0.08,0.09-0.17,0.13-0.27,0.13c-0.1,0-0.19-0.05-0.27-0.13c-0.35-0.39-0.84-0.58-1.34-0.52
					c-0.51,0.06-0.96,0.36-1.22,0.83l-1.67,2.98c-0.06,0.11-0.16,0.19-0.26,0.21c-0.06,0.01-0.16,0.02-0.26-0.05l-1.06-0.72
					L14.35,6.19z M3.66,26.91l1.74-2.98c0.11-0.19,0.11-0.42,0-0.61c-0.11-0.19-0.31-0.3-0.53-0.3H4.44l1.43-2.44
					c0.11-0.19,0.11-0.42,0-0.61c-0.11-0.19-0.31-0.3-0.53-0.3h-0.3l1.22-2.09l1.22,2.09h-0.3c-0.22,0-0.42,0.12-0.53,0.3
					c-0.11,0.19-0.11,0.42,0,0.61l1.43,2.44H7.64c-0.22,0-0.42,0.12-0.53,0.3c-0.11,0.19-0.11,0.42,0,0.61l1.74,2.98H3.66z
					 M18.11,17.92l2.37,3.64h-2.37V17.92z M11.04,26.91l5.86-8.99v4.07l-3.21,4.92H11.04z M15.13,26.91l2.37-3.63l2.37,3.63H15.13z
					 M20.98,26.41l-2.37-3.63h2.37V26.41z M19.98,18.58l3.39-6.14l5,9.04c-0.05,0.18-0.17,0.32-0.34,0.39
					c-0.1,0.04-0.29,0.09-0.49-0.07l-2.39-1.9c-0.67-0.53-1.62-0.49-2.24,0.1l-1.23,1.17L19.98,18.58z M22.19,26.91V24.2l1.77,2.72
					H22.19z M25.41,26.91L25.41,26.91l-3.06-4.7l1.39-1.32c0.19-0.18,0.45-0.19,0.66-0.03l2.39,1.9c0.31,0.25,0.68,0.38,1.06,0.38
					c0.22,0,0.44-0.04,0.66-0.13c0.19-0.08,0.37-0.2,0.52-0.34l2.35,4.25L25.41,26.91L25.41,26.91z"/>
			</g>
		</g>
		<g>
			<g>
				<path class="st2" d="M10.48,28.85h-4.6c-0.33,0-0.61,0.27-0.61,0.61s0.27,0.61,0.61,0.61h4.6c0.33,0,0.61-0.27,0.61-0.61
					S10.81,28.85,10.48,28.85z"/>
			</g>
		</g>
		<g>
			<g>
				<path class="st2" d="M32.39,28.85h-7.76c-0.33,0-0.61,0.27-0.61,0.61s0.27,0.61,0.61,0.61h7.76c0.33,0,0.61-0.27,0.61-0.61
					S32.72,28.85,32.39,28.85z"/>
			</g>
		</g>
		<g>
			<g>
				<path class="st2" d="M22.59,30.79h-7.81c-0.33,0-0.61,0.27-0.61,0.61S14.44,32,14.78,32h7.81c0.33,0,0.61-0.27,0.61-0.61
					C23.19,31.06,22.92,30.79,22.59,30.79z"/>
			</g>
		</g>
		<g>
			<g>
				<path class="st2" d="M12.84,30.97c-0.11-0.11-0.27-0.18-0.43-0.18c-0.16,0-0.32,0.06-0.43,0.18c-0.11,0.11-0.18,0.27-0.18,0.43
					c0,0.16,0.06,0.32,0.18,0.43C12.1,31.94,12.25,32,12.41,32c0.16,0,0.32-0.06,0.43-0.18c0.11-0.11,0.18-0.27,0.18-0.43
					C13.02,31.24,12.96,31.08,12.84,30.97z"/>
			</g>
		</g>
		<g>
			<g>
				<path class="st2" d="M7.05,1C6.63,1,6.22,1.13,5.88,1.36C5.53,1.13,5.12,1,4.7,1C4.36,1,4.09,1.27,4.09,1.61S4.36,2.21,4.7,2.21
					c0.28,0,0.53,0.12,0.71,0.34c0.11,0.14,0.29,0.22,0.47,0.22s0.36-0.08,0.47-0.22c0.17-0.22,0.43-0.34,0.71-0.34
					c0.33,0,0.61-0.27,0.61-0.61S7.39,1,7.05,1z"/>
			</g>
		</g>
		<g>
			<g>
				<path class="st2" d="M9.75,4.87C9.32,4.87,8.92,5,8.57,5.23C8.23,5,7.82,4.87,7.39,4.87c-0.33,0-0.61,0.27-0.61,0.61
					s0.27,0.61,0.61,0.61c0.28,0,0.53,0.12,0.71,0.34c0.11,0.14,0.29,0.22,0.47,0.22c0.18,0,0.36-0.08,0.47-0.22
					c0.17-0.22,0.43-0.34,0.71-0.34c0.33,0,0.61-0.27,0.61-0.61C10.36,5.15,10.08,4.87,9.75,4.87z"/>
			</g>
		</g>
		<g>
			<g>
				<path class="st2" d="M31.48,12.53c-0.43,0-0.83,0.13-1.18,0.36c-0.34-0.23-0.75-0.36-1.18-0.36c-0.33,0-0.61,0.27-0.61,0.61
					s0.27,0.61,0.61,0.61c0.28,0,0.53,0.12,0.71,0.34c0.11,0.14,0.29,0.22,0.47,0.22c0,0,0,0,0,0c0.18,0,0.36-0.08,0.47-0.22
					c0.17-0.22,0.43-0.34,0.71-0.34c0.33,0,0.61-0.27,0.61-0.61C32.09,12.81,31.82,12.53,31.48,12.53z"/>
			</g>
		</g>
		<g>
			<g>
				<path class="st2" d="M26.43,7.58c-0.43,0-0.83,0.13-1.18,0.36c-0.34-0.23-0.75-0.36-1.18-0.36c-0.33,0-0.61,0.27-0.61,0.61
					c0,0.33,0.27,0.61,0.61,0.61c0.28,0,0.53,0.12,0.71,0.34c0.11,0.14,0.29,0.22,0.47,0.22c0.18,0,0.36-0.08,0.47-0.22
					c0.17-0.22,0.43-0.34,0.71-0.34c0.33,0,0.61-0.27,0.61-0.61S26.76,7.58,26.43,7.58z"/>
			</g>
		</g>
		<g>
			<g>
				<path class="st2" d="M4.96,7.32c-0.43,0-0.83,0.13-1.18,0.36C3.44,7.45,3.03,7.32,2.61,7.32C2.27,7.32,2,7.59,2,7.93
					c0,0.33,0.27,0.61,0.61,0.61c0.28,0,0.53,0.12,0.71,0.34C3.43,9.01,3.6,9.1,3.78,9.1s0.36-0.08,0.47-0.22
					c0.17-0.22,0.43-0.34,0.71-0.34c0.33,0,0.61-0.27,0.61-0.61C5.57,7.59,5.3,7.32,4.96,7.32z"/>
			</g>
		</g>
	</g>
</g>
<g id="video-z-pokhodiv" class="st0">
	<g class="st1">
		<g>
			<g>
				<path class="st2" d="M25.83,28.38v-1.91c0-1.53-0.92-2.84-2.23-3.43l0.09-0.06c1.19-0.85,1.9-2.23,1.9-3.69v-6.63
					c0-1.46-0.71-2.84-1.9-3.69L22.48,8.1c0,0,0,0,0,0V5.56c0-2.74-2.23-4.97-4.97-4.97s-4.97,2.23-4.97,4.97V8.1c0,0,0,0,0,0
					l-1.21,0.87c-1.19,0.85-1.9,2.23-1.9,3.69v6.63c0,1.46,0.71,2.84,1.9,3.69l0.09,0.06c-1.31,0.58-2.23,1.9-2.23,3.43v1.91
					c-0.73,0.33-1.24,1.07-1.24,1.93c0,1.17,0.95,2.11,2.11,2.11h14.92c1.17,0,2.11-0.95,2.11-2.11
					C27.08,29.45,26.56,28.71,25.83,28.38z M13.77,6.74h3.03c0.34,0,0.62-0.28,0.62-0.62c0-0.34-0.28-0.62-0.62-0.62h-3.02
					c0.03-2.03,1.69-3.67,3.73-3.67c2.06,0,3.73,1.67,3.73,3.73v2.42h-7.46V6.74z M10.66,19.29v-6.63c0-1.06,0.51-2.06,1.38-2.68
					l1.05-0.75h8.83l1.05,0.75c0.86,0.62,1.38,1.62,1.38,2.68v6.63c0,1.06-0.51,2.06-1.38,2.68l-1.05,0.75h-1.43
					c0.76-0.76,1.23-1.82,1.23-2.98c0-0.04,0-0.08,0-0.12c-0.04-1.98-1.07-3.72-1.93-4.83c-0.49-0.63-0.97-1.12-1.28-1.42
					c-0.7-0.67-0.82-0.67-1.01-0.67c-0.2,0-0.3,0-1,0.67c-0.32,0.3-0.79,0.79-1.28,1.42c-0.86,1.11-1.9,2.85-1.94,4.83
					c0,0.04,0,0.08,0,0.12c0,1.16,0.47,2.21,1.23,2.98h-1.43l-1.05-0.75C11.18,21.35,10.66,20.35,10.66,19.29z M18.19,18.63
					c-0.29-0.27-0.44-0.39-0.69-0.39c-0.26,0-0.41,0.13-0.68,0.39c-0.15,0.14-0.38,0.37-0.61,0.67c-0.6,0.77-0.92,1.59-0.94,2.36
					c0,0.01,0,0.03,0,0.04c-0.46-0.53-0.75-1.22-0.75-1.97c0-0.03,0-0.06,0-0.09c0.05-2.45,2.07-4.69,2.98-5.51
					c0.34,0.31,0.89,0.85,1.42,1.57c0.69,0.93,1.53,2.36,1.56,3.95c0,0.03,0,0.06,0,0.09c0,0.75-0.28,1.44-0.75,1.97
					c0-0.01,0-0.03,0-0.04c-0.02-0.78-0.34-1.59-0.94-2.36C18.56,19.01,18.34,18.77,18.19,18.63z M18.49,21.73
					c0,0.55-0.44,0.99-0.99,0.99s-0.99-0.44-0.99-0.99c0-0.01,0-0.02,0-0.03c0.02-0.82,0.6-1.57,0.99-1.99
					c0.39,0.41,0.97,1.16,0.99,1.99C18.49,21.71,18.49,21.72,18.49,21.73z M24.96,31.17H10.04c-0.48,0-0.87-0.39-0.87-0.87
					c0-0.48,0.39-0.87,0.87-0.87h4.57c0.34,0,0.62-0.28,0.62-0.62s-0.28-0.62-0.62-0.62h-4.2v-1.72c0-1.38,1.13-2.51,2.51-2.51h9.16
					c1.38,0,2.51,1.13,2.51,2.51v1.72h-4.17c-0.34,0-0.62,0.28-0.62,0.62s0.28,0.62,0.62,0.62h4.54c0.48,0,0.87,0.39,0.87,0.87
					C25.83,30.78,25.44,31.17,24.96,31.17z"/>
			</g>
		</g>
		<g>
			<g>
				<path class="st2" d="M17.94,28.37c-0.12-0.12-0.28-0.18-0.44-0.18s-0.32,0.07-0.44,0.18c-0.12,0.12-0.18,0.28-0.18,0.44
					s0.07,0.32,0.18,0.44c0.12,0.12,0.28,0.18,0.44,0.18s0.32-0.07,0.44-0.18c0.12-0.12,0.18-0.28,0.18-0.44
					S18.06,28.49,17.94,28.37z"/>
			</g>
		</g>
		<g>
			<g>
				<path class="st2" d="M19.76,5.68c-0.12-0.12-0.28-0.18-0.44-0.18c-0.16,0-0.32,0.07-0.44,0.18c-0.12,0.12-0.18,0.28-0.18,0.44
					c0,0.16,0.07,0.32,0.18,0.44s0.28,0.18,0.44,0.18c0.16,0,0.32-0.07,0.44-0.18c0.12-0.12,0.18-0.28,0.18-0.44
					C19.95,5.95,19.88,5.79,19.76,5.68z"/>
			</g>
		</g>
		<g>
			<g>
				<path class="st2" d="M32.8,15.88h-3.15c-0.34,0-0.62,0.28-0.62,0.62c0,0.34,0.28,0.62,0.62,0.62h3.15
					c0.34,0,0.62-0.28,0.62-0.62C33.42,16.16,33.14,15.88,32.8,15.88z"/>
			</g>
		</g>
		<g>
			<g>
				<path class="st2" d="M30.13,11.42c-0.24-0.24-0.64-0.24-0.88,0l-1.1,1.1c-0.24,0.24-0.24,0.64,0,0.88
					c0.12,0.12,0.28,0.18,0.44,0.18c0.16,0,0.32-0.06,0.44-0.18l1.1-1.1C30.38,12.05,30.38,11.66,30.13,11.42z"/>
			</g>
		</g>
		<g>
			<g>
				<path class="st2" d="M30.13,20.71l-1.1-1.1c-0.24-0.24-0.64-0.24-0.88,0c-0.24,0.24-0.24,0.64,0,0.88l1.1,1.1
					c0.12,0.12,0.28,0.18,0.44,0.18c0.16,0,0.32-0.06,0.44-0.18C30.37,21.34,30.37,20.95,30.13,20.71z"/>
			</g>
		</g>
		<g>
			<g>
				<path class="st2" d="M5.36,15.88H2.2c-0.34,0-0.62,0.28-0.62,0.62c0,0.34,0.28,0.62,0.62,0.62h3.15c0.34,0,0.62-0.28,0.62-0.62
					C5.98,16.16,5.7,15.88,5.36,15.88z"/>
			</g>
		</g>
		<g>
			<g>
				<path class="st2" d="M6.85,19.6c-0.24-0.24-0.64-0.24-0.88,0l-1.1,1.1c-0.24,0.24-0.24,0.64,0,0.88
					c0.12,0.12,0.28,0.18,0.44,0.18c0.16,0,0.32-0.06,0.44-0.18l1.1-1.1C7.09,20.24,7.09,19.84,6.85,19.6z"/>
			</g>
		</g>
		<g>
			<g>
				<path class="st2" d="M6.84,12.51l-1.1-1.1c-0.24-0.24-0.64-0.24-0.88,0c-0.24,0.24-0.24,0.64,0,0.88l1.1,1.1
					c0.12,0.12,0.28,0.18,0.44,0.18c0.16,0,0.32-0.06,0.44-0.18C7.09,13.15,7.09,12.75,6.84,12.51z"/>
			</g>
		</g>
	</g>
</g>
<g id="foto-z-pokhodiv" class="st0">
	<g class="st1">
		<g>
			<g>
				<path class="st2" d="M22.4,13.53c-3.81,0-6.91,3.1-6.91,6.91c0,3.81,3.1,6.91,6.91,6.91c3.81,0,6.91-3.1,6.91-6.91
					S26.21,13.53,22.4,13.53z M22.4,26.09c-3.12,0-5.65-2.54-5.65-5.65s2.54-5.65,5.65-5.65s5.65,2.54,5.65,5.65
					S25.52,26.09,22.4,26.09z"/>
			</g>
		</g>
		<g>
			<g>
				<path class="st2" d="M26.05,19.08c-0.08-0.23-0.29-0.38-0.53-0.41c-0.24-0.02-0.47,0.09-0.6,0.3c-0.14,0.23-0.39,0.37-0.66,0.37
					c-0.43,0-0.77-0.35-0.77-0.77c0-0.27,0.14-0.52,0.37-0.66c0.21-0.13,0.32-0.36,0.3-0.6c-0.02-0.24-0.18-0.44-0.41-0.53
					c-0.43-0.16-0.89-0.24-1.36-0.24c-2.15,0-3.89,1.75-3.89,3.89s1.75,3.89,3.89,3.89s3.89-1.75,3.89-3.89
					C26.3,19.97,26.21,19.51,26.05,19.08z M22.4,23.07c-1.45,0-2.64-1.18-2.64-2.64c0-1.45,1.18-2.63,2.63-2.64
					c-0.1,0.24-0.15,0.5-0.15,0.77c0,1.12,0.91,2.03,2.03,2.03c0.27,0,0.53-0.05,0.77-0.15C25.04,21.89,23.85,23.07,22.4,23.07z"/>
			</g>
		</g>
		<g>
			<g>
				<path class="st2" d="M4.85,28.49c-0.12-0.12-0.28-0.18-0.44-0.18s-0.33,0.07-0.44,0.18c-0.12,0.12-0.18,0.28-0.18,0.44
					s0.07,0.33,0.18,0.44c0.12,0.12,0.28,0.18,0.44,0.18s0.33-0.07,0.44-0.18c0.12-0.12,0.18-0.28,0.18-0.44S4.96,28.61,4.85,28.49z
					"/>
			</g>
		</g>
		<g>
			<g>
				<path class="st2" d="M30.25,13.83L30.25,13.83c-0.36,0-0.64,0.28-0.64,0.63s0.28,0.63,0.63,0.63h0.01
					c0.35,0,0.63-0.28,0.63-0.63S30.6,13.83,30.25,13.83z"/>
			</g>
		</g>
		<g>
			<g>
				<path class="st2" d="M30.44,11.29h-1.72l-0.83-4.02c-0.06-0.29-0.32-0.5-0.62-0.5h-9.82c-0.3,0-0.56,0.21-0.62,0.51l-0.77,4.01
					H9.08V10.6c0-1-0.81-1.81-1.81-1.81H6.62c-1,0-1.81,0.81-1.81,1.81v0.69H4.56c-1.73,0-3.14,1.41-3.14,3.14v15.01
					c0,1.73,1.41,3.14,3.14,3.14h25.88c1.73,0,3.14-1.41,3.14-3.14V14.43C33.58,12.7,32.17,11.29,30.44,11.29z M17.98,8.02h8.79
					l0.67,3.27h-1.98l-0.3-1.48c-0.06-0.29-0.32-0.5-0.62-0.5h-4.3c-0.3,0-0.56,0.21-0.62,0.51l-0.28,1.47h-1.98L17.98,8.02z
					 M24.18,11.29h-3.56l0.14-0.73h3.27L24.18,11.29z M6.07,10.6c0-0.31,0.25-0.56,0.56-0.56h0.65c0.31,0,0.56,0.25,0.56,0.56v0.69
					H6.07V10.6z M30.44,31.32H4.56c-1.04,0-1.88-0.85-1.88-1.88V14.43c0-1.04,0.85-1.88,1.88-1.88h6.66v15.76H6.95
					c-0.35,0-0.63,0.28-0.63,0.63s0.28,0.63,0.63,0.63h25.37C32.26,30.55,31.44,31.32,30.44,31.32z M32.32,28.31H12.48V12.55h17.96
					c1.04,0,1.88,0.85,1.88,1.88V28.31z"/>
			</g>
		</g>
		<g>
			<g>
				<path class="st2" d="M22,0.42c-0.35,0-0.63,0.28-0.63,0.63v2.58c0,0.35,0.28,0.63,0.63,0.63c0.35,0,0.63-0.28,0.63-0.63V1.05
					C22.63,0.7,22.35,0.42,22,0.42z"/>
			</g>
		</g>
		<g>
			<g>
				<path class="st2" d="M19.55,4.04l-0.9-0.9c-0.25-0.25-0.64-0.25-0.89,0c-0.25,0.25-0.24,0.64,0,0.89l0.9,0.9
					c0.12,0.12,0.28,0.18,0.44,0.18c0.16,0,0.32-0.06,0.44-0.18C19.8,4.68,19.8,4.28,19.55,4.04z"/>
			</g>
		</g>
		<g>
			<g>
				<path class="st2" d="M26.24,3.14c-0.25-0.25-0.64-0.24-0.89,0l-0.9,0.9c-0.25,0.25-0.24,0.64,0,0.89
					c0.12,0.12,0.28,0.18,0.44,0.18c0.16,0,0.32-0.06,0.44-0.18l0.9-0.9C26.49,3.78,26.49,3.38,26.24,3.14z"/>
			</g>
		</g>
	</g>
</g>
<g id="vidhuky" class="st0">
	<g class="st1">
		<g>
			<g>
				<path class="st2" d="M33.58,7.19c-0.12-0.12-0.28-0.19-0.45-0.19c-0.17,0-0.33,0.07-0.45,0.19c-0.12,0.12-0.19,0.28-0.19,0.45
					s0.07,0.33,0.19,0.45c0.12,0.12,0.28,0.19,0.45,0.19c0.17,0,0.33-0.07,0.45-0.19c0.12-0.12,0.19-0.28,0.19-0.45
					S33.69,7.31,33.58,7.19z"/>
			</g>
		</g>
		<g>
			<g>
				<path class="st2" d="M30.74,7.01H19.82c0.27-0.83,1.05-1.44,1.98-1.44c0.35,0,0.7,0.09,1.01,0.26c0.17,0.09,0.36,0.11,0.54,0.04
					c0.18-0.07,0.31-0.21,0.37-0.39c0.45-1.35,1.7-2.25,3.12-2.25c1.31,0,2.49,0.77,3.01,1.97c0.14,0.32,0.52,0.47,0.84,0.33
					c0.32-0.14,0.47-0.52,0.33-0.84c-0.73-1.66-2.37-2.73-4.18-2.73c-1.74,0-3.3,0.98-4.06,2.49c-0.32-0.1-0.65-0.15-0.98-0.15
					c-1.84,0-3.34,1.5-3.34,3.34c0,0.35,0.28,0.64,0.64,0.64h11.66c0.35,0,0.64-0.28,0.64-0.64S31.09,7.01,30.74,7.01z"/>
			</g>
		</g>
		<g>
			<g>
				<path class="st2" d="M25.85,22.85l-2.48-4.92c-0.11-0.21-0.33-0.35-0.57-0.35h-6.35c-0.22,0-0.43,0.11-0.54,0.3
					c-0.12,0.19-0.13,0.42-0.03,0.62l2.48,4.92c0.11,0.21,0.33,0.35,0.57,0.35h6.35c0.22,0,0.43-0.11,0.54-0.3
					C25.94,23.28,25.95,23.05,25.85,22.85z M19.32,22.5l-1.84-3.65h4.93l1.84,3.65H19.32z"/>
			</g>
		</g>
		<g>
			<g>
				<path class="st2" d="M21.32,26.98c-0.12-0.12-0.28-0.19-0.45-0.19c-0.17,0-0.33,0.07-0.45,0.19c-0.12,0.12-0.19,0.28-0.19,0.45
					c0,0.17,0.07,0.33,0.19,0.45c0.12,0.12,0.28,0.19,0.45,0.19c0.17,0,0.33-0.07,0.45-0.19c0.12-0.12,0.19-0.28,0.19-0.45
					C21.5,27.26,21.44,27.1,21.32,26.98z"/>
			</g>
		</g>
		<g>
			<g>
				<path class="st2" d="M9.77,4.88c-0.53,0-1.03,0.16-1.45,0.47C7.9,5.04,7.39,4.88,6.86,4.88c-0.35,0-0.64,0.28-0.64,0.64
					c0,0.35,0.28,0.64,0.64,0.64c0.37,0,0.72,0.17,0.96,0.46c0.12,0.15,0.3,0.24,0.49,0.24s0.37-0.09,0.49-0.24
					C9.05,6.31,9.4,6.15,9.77,6.15c0.35,0,0.64-0.28,0.64-0.64C10.41,5.16,10.12,4.88,9.77,4.88z"/>
			</g>
		</g>
		<g>
			<g>
				<path class="st2" d="M16.95,2.82c-0.53,0-1.03,0.16-1.45,0.47c-0.42-0.3-0.93-0.47-1.45-0.47c-0.35,0-0.64,0.28-0.64,0.64
					s0.28,0.64,0.64,0.64c0.37,0,0.72,0.17,0.96,0.46c0.12,0.15,0.3,0.24,0.49,0.24c0.19,0,0.37-0.09,0.49-0.24
					c0.24-0.29,0.59-0.46,0.96-0.46c0.35,0,0.64-0.28,0.64-0.64S17.3,2.82,16.95,2.82z"/>
			</g>
		</g>
		<g>
			<g>
				<path class="st2" d="M14.04,7.9c-0.45,0-0.87,0.13-1.24,0.37c-0.36-0.24-0.79-0.37-1.24-0.37c-0.35,0-0.64,0.28-0.64,0.64
					c0,0.35,0.28,0.64,0.64,0.64c0.29,0,0.56,0.13,0.74,0.36c0.12,0.15,0.3,0.24,0.49,0.24c0.19,0,0.37-0.09,0.49-0.24
					c0.18-0.23,0.45-0.36,0.74-0.36c0.35,0,0.64-0.28,0.64-0.64C14.67,8.18,14.39,7.9,14.04,7.9z"/>
			</g>
		</g>
		<g>
			<g>
				<path class="st2" d="M33.69,30.13l-8.44-16.77c-0.11-0.21-0.33-0.35-0.57-0.35H10.32c-0.22,0-0.43,0.11-0.54,0.3
					c-0.01,0.01-0.01,0.02-0.01,0.03c0,0.01-0.01,0.01-0.01,0.02l-1.06,2.1c-0.01,0-0.02,0-0.02,0H2.62
					c0.26-0.69,0.92-1.18,1.7-1.18c0.31,0,0.61,0.08,0.88,0.23c0.17,0.09,0.36,0.11,0.54,0.04c0.18-0.07,0.31-0.21,0.37-0.39
					c0.39-1.19,1.5-1.99,2.76-1.99c0.35,0,0.64-0.28,0.64-0.64s-0.28-0.64-0.64-0.64c-1.58,0-2.99,0.88-3.7,2.24
					c-0.28-0.08-0.57-0.12-0.86-0.12c-1.7,0-3.08,1.38-3.08,3.08c0,0.35,0.28,0.64,0.64,0.64h6.18l-6.75,13.4
					c-0.1,0.2-0.09,0.43,0.03,0.62c0.12,0.19,0.32,0.3,0.54,0.3h31.25c0.22,0,0.43-0.11,0.54-0.3
					C33.78,30.56,33.79,30.32,33.69,30.13z M10.95,16.32l2.9,5.75h-2.9V16.32z M2.91,29.78l6.78-13.46v6.23l-3.64,7.23H2.91z
					 M7.47,29.78l2.85-5.66l2.85,5.66H7.47z M14.24,29.07l-2.89-5.73h2.89V29.07z M15.51,29.78v-4.42l2.23,4.42L15.51,29.78
					L15.51,29.78z M19.16,29.78l-7.81-15.5h12.94l6.3,12.51h-7.44c-0.35,0-0.64,0.28-0.64,0.64c0,0.35,0.28,0.64,0.64,0.64h8.08
					l0.86,1.72H19.16z"/>
			</g>
		</g>
	</g>
</g>
<g id="istoriyi">
	<g>
		<g>
			<g>
				<path class="st2" d="M30.95,7.9c-0.19-0.29-0.57-0.37-0.86-0.19C29.8,7.9,29.72,8.28,29.9,8.57c1.52,2.36,2.32,5.11,2.32,7.93
					c0,8.12-6.6,14.72-14.72,14.72S2.78,24.62,2.78,16.5S9.38,1.78,17.5,1.78c2.7,0,5.34,0.74,7.63,2.13
					C25.43,4.09,25.81,4,25.99,3.7c0.18-0.29,0.09-0.68-0.21-0.86c-2.49-1.51-5.35-2.31-8.28-2.31c-4.26,0-8.27,1.66-11.29,4.68
					C3.2,8.23,1.54,12.24,1.54,16.5s1.66,8.27,4.68,11.29c3.02,3.02,7.02,4.68,11.29,4.68s8.27-1.66,11.29-4.68
					c3.02-3.02,4.68-7.02,4.68-11.29C33.46,13.44,32.6,10.46,30.95,7.9z"/>
			</g>
		</g>
		<g>
			<g>
				<path class="st2" d="M28.8,5.22L28.8,5.22c-0.25-0.25-0.65-0.25-0.89-0.01c-0.24,0.24-0.24,0.64,0,0.88l0.01,0.01
					c0.12,0.12,0.28,0.18,0.44,0.18c0.16,0,0.32-0.06,0.44-0.18C29.04,5.86,29.04,5.46,28.8,5.22z"/>
			</g>
		</g>
		<g>
			<g>
				<path class="st2" d="M26.41,7.59c-4.26-4.26-10.97-4.91-15.95-1.54c-0.29,0.19-0.36,0.58-0.17,0.87
					c0.19,0.29,0.58,0.36,0.87,0.17c4.49-3.04,10.53-2.45,14.37,1.39c4.19,4.19,4.41,10.85,0.68,15.31c0-0.01-0.01-0.01-0.01-0.02
					l-1.63-2.82c-1.47-2.55-4.12-4.08-7.07-4.08s-5.59,1.53-7.07,4.08L8.8,23.76c0,0.01-0.01,0.01-0.01,0.01
					c-3.14-3.77-3.53-9.25-0.83-13.42c0.19-0.29,0.1-0.68-0.19-0.86C7.48,9.3,7.1,9.39,6.91,9.68c-1.54,2.38-2.23,5.26-1.94,8.09
					c0.29,2.88,1.58,5.59,3.63,7.64c2.46,2.46,5.68,3.68,8.91,3.68s6.45-1.23,8.91-3.68C31.32,20.5,31.32,12.5,26.41,7.59z
					 M9.69,24.73c0.05-0.1,0.11-0.2,0.19-0.35l1.63-2.82c1.25-2.16,3.49-3.46,5.99-3.46s4.74,1.29,5.99,3.46l1.63,2.82
					c0.09,0.15,0.14,0.25,0.2,0.35C20.94,28.88,14.05,28.88,9.69,24.73z"/>
			</g>
		</g>
		<g>
			<g>
				<path class="st2" d="M9.49,7.58c-0.24-0.24-0.64-0.25-0.88,0L8.59,7.59c-0.24,0.24-0.25,0.64,0,0.88
					C8.71,8.6,8.87,8.66,9.03,8.66c0.16,0,0.32-0.06,0.44-0.18l0.02-0.02C9.74,8.21,9.74,7.82,9.49,7.58z"/>
			</g>
		</g>
		<g>
			<g>
				<path class="st2" d="M21.99,12.34c-0.22-0.69-0.77-1.21-1.47-1.4c-0.7-0.19-1.43,0-1.97,0.49c-0.64,0.59-1.07,1.24-1.26,1.93
					c-0.01,0.02-0.01,0.05-0.02,0.07c-0.36,1.33,0.44,2.71,1.77,3.07c0.22,0.06,0.43,0.09,0.65,0.09c1.11,0,2.12-0.74,2.42-1.86
					c0.01-0.02,0.01-0.05,0.02-0.06C22.3,13.96,22.26,13.18,21.99,12.34z M20.92,14.37c0,0.01-0.01,0.02-0.01,0.04
					c-0.18,0.67-0.87,1.07-1.54,0.89c-0.67-0.18-1.07-0.87-0.89-1.54c0,0,0,0,0,0c0-0.01,0.01-0.02,0.01-0.04
					c0.14-0.47,0.44-0.93,0.91-1.37c0.16-0.15,0.36-0.23,0.57-0.23c0.07,0,0.15,0.01,0.23,0.03c0.29,0.08,0.51,0.28,0.6,0.57
					C21,13.33,21.04,13.88,20.92,14.37z"/>
			</g>
		</g>
		<g>
			<g>
				<path class="st2" d="M27.77,15.38c-0.03-0.72-0.43-1.37-1.05-1.73c-0.63-0.36-1.38-0.37-2.02-0.04
					c-0.77,0.4-1.35,0.92-1.72,1.54c-0.01,0.02-0.03,0.04-0.04,0.06c-0.33,0.58-0.42,1.25-0.25,1.9s0.59,1.19,1.17,1.52
					c0.39,0.22,0.81,0.34,1.25,0.34c0.22,0,0.44-0.03,0.65-0.09c0.65-0.17,1.19-0.59,1.52-1.17c0.01-0.02,0.02-0.04,0.03-0.06
					C27.65,17.02,27.8,16.26,27.77,15.38z M26.2,17.06c-0.01,0.01-0.01,0.02-0.02,0.03c-0.35,0.6-1.12,0.81-1.72,0.46
					c-0.29-0.17-0.5-0.44-0.59-0.76c-0.09-0.32-0.04-0.66,0.13-0.95c0,0,0,0,0,0c0.01-0.01,0.01-0.02,0.02-0.04
					c0.25-0.42,0.67-0.79,1.24-1.08c0.13-0.07,0.26-0.1,0.4-0.1c0.15,0,0.29,0.04,0.42,0.12c0.26,0.15,0.42,0.41,0.43,0.71
					C26.55,16.08,26.44,16.62,26.2,17.06z"/>
			</g>
		</g>
		<g>
			<g>
				<path class="st2" d="M11.24,16.37c0-0.02-0.01-0.04-0.01-0.05c-0.16-0.54-0.49-1.05-0.99-1.5c-0.44-0.4-1.04-0.54-1.6-0.39
					C8.07,14.58,7.62,15,7.45,15.57c-0.2,0.64-0.23,1.24-0.1,1.78c0,0.02,0.01,0.04,0.01,0.06c0,0,0,0,0,0
					c0.24,0.9,1.05,1.49,1.94,1.49c0.17,0,0.35-0.02,0.52-0.07c0.52-0.14,0.95-0.47,1.22-0.94C11.31,17.43,11.38,16.88,11.24,16.37z
					 M9.96,17.27c-0.1,0.18-0.27,0.3-0.46,0.35c-0.41,0.11-0.82-0.13-0.93-0.54c0-0.01,0-0.01-0.01-0.03
					c-0.08-0.32-0.05-0.7,0.08-1.12c0.07-0.22,0.25-0.29,0.32-0.31c0.07-0.02,0.27-0.05,0.44,0.11c0.33,0.3,0.54,0.61,0.63,0.94
					c0,0.01,0,0.01,0.01,0.02C10.09,16.89,10.06,17.09,9.96,17.27z"/>
			</g>
		</g>
		<g>
			<g>
				<path class="st2" d="M16.23,14.44c-0.01-0.65-0.23-1.32-0.66-1.99c-0.36-0.56-0.97-0.89-1.63-0.89c0,0,0,0,0,0
					c-0.66,0-1.27,0.34-1.63,0.9c-0.42,0.66-0.64,1.33-0.65,1.98c0,0.02,0,0.04,0,0.06c0,1.26,1.03,2.29,2.29,2.29
					s2.29-1.03,2.29-2.29C16.24,14.48,16.24,14.46,16.23,14.44z M13.95,15.54c-0.57,0-1.04-0.47-1.04-1.04c0-0.01,0-0.02,0-0.03
					c0,0,0,0,0-0.01c0.01-0.42,0.16-0.87,0.46-1.34c0.13-0.2,0.34-0.32,0.58-0.32c0,0,0,0,0,0c0.24,0,0.45,0.12,0.58,0.32
					c0.3,0.47,0.46,0.92,0.46,1.35c0,0.01,0,0.02,0,0.03C14.99,15.08,14.52,15.54,13.95,15.54z"/>
			</g>
		</g>
	</g>
</g>
</svg>
