<svg id="Layer_2" data-name="Layer 2" xmlns="http://www.w3.org/2000/svg" viewBox="0 0 35 33"><defs><style>.cls-1{fill:#c30;}</style></defs><title>Artboard 1</title><path class="cls-1" d="M28.92,19V14.76s0-.08,0-.12A5.11,5.11,0,0,0,29.64,12V8.93a.6.6,0,0,0-.6-.6h-.67a4.2,4.2,0,0,0-2.94-7.21H9.57A4.2,4.2,0,0,0,6.63,8.33H6a.6.6,0,0,0-.6.6V12a5.11,5.11,0,0,0,.73,2.62s0,.08,0,.12V19a4.52,4.52,0,0,0-4,4.48v3.89a4.51,4.51,0,0,0,4.51,4.51H28.37a4.51,4.51,0,0,0,4.51-4.51V23.48A4.52,4.52,0,0,0,28.92,19ZM26,2.38a3,3,0,0,1,0,5.89Zm0,7.15h2.41V12A3.88,3.88,0,0,1,26,15.61ZM23.14,2.32h1.69V16.41h0v1.47a.85.85,0,0,1-1.69,0ZM13.06,9.53H14.4a.6.6,0,0,0,0-1.2H13.06v-6h8.88v6H19.88a.6.6,0,0,0,0,1.2h2.06V15.9H13.06Zm-2.89,6.88h0V2.32h1.69V17.88a.85.85,0,0,1-1.69,0ZM6.56,5.32A3,3,0,0,1,9,2.38V8.27A3,3,0,0,1,6.56,5.32Zm0,4.21H9v6.08A3.88,3.88,0,0,1,6.56,12Zm.07,21.15a3.32,3.32,0,0,1-3.31-3.31V23.48a3.33,3.33,0,0,1,2.76-3.27v7.71a3.93,3.93,0,0,0,1.13,2.76Zm21.08-2.76A2.77,2.77,0,0,1,25,30.68H10.05a2.77,2.77,0,0,1-2.76-2.76V16A4.91,4.91,0,0,0,9,16.88v1a2,2,0,0,0,4.09,0V17.1h8.88v.78a2,2,0,0,0,4.09,0v-1A4.91,4.91,0,0,0,27.71,16V27.92Zm4-.55a3.32,3.32,0,0,1-3.31,3.31h-.58a3.93,3.93,0,0,0,1.13-2.76V20.21a3.32,3.32,0,0,1,2.76,3.27Z"/><path class="cls-1" d="M21.34,20.53H13.66a2.52,2.52,0,0,0-2.52,2.52v3.78a2.4,2.4,0,0,0,2.4,2.41h7.92a2.4,2.4,0,0,0,2.4-2.41V23.05A2.52,2.52,0,0,0,21.34,20.53Zm1.32,6.3h0A1.21,1.21,0,0,1,21.46,28H13.54a1.21,1.21,0,0,1-1.2-1.21V24.74h6a.6.6,0,0,0,0-1.2h-6v-.49a1.32,1.32,0,0,1,1.32-1.32h7.68a1.32,1.32,0,0,1,1.32,1.32Z"/><path class="cls-1" d="M17.78,8.5a.6.6,0,0,0-.84,0,.6.6,0,0,0-.18.43.6.6,0,0,0,1.2,0A.6.6,0,0,0,17.78,8.5Z"/><path class="cls-1" d="M24.41,13.57A.61.61,0,0,0,24,13.4a.61.61,0,0,0-.42.17.6.6,0,1,0,.85.85.61.61,0,0,0,.17-.42A.61.61,0,0,0,24.41,13.57Z"/><path class="cls-1" d="M24.41,10.57a.59.59,0,0,0-.85,0,.6.6,0,0,0-.18.42.62.62,0,0,0,.18.43.61.61,0,0,0,.42.17.58.58,0,0,0,.6-.6A.59.59,0,0,0,24.41,10.57Z"/><path class="cls-1" d="M11.44,13.57A.61.61,0,0,0,11,13.4a.58.58,0,0,0-.6.6.61.61,0,0,0,.17.42.6.6,0,1,0,.85-.85Z"/><path class="cls-1" d="M11.44,10.57a.59.59,0,0,0-.85,0,.59.59,0,0,0-.17.42.58.58,0,0,0,.6.6.61.61,0,0,0,.42-.17.62.62,0,0,0,.18-.43A.6.6,0,0,0,11.44,10.57Z"/><path class="cls-1" d="M21.32,23.72a.58.58,0,0,0-.43-.18.58.58,0,0,0-.42.18.6.6,0,0,0-.18.42.64.64,0,0,0,.18.43.61.61,0,0,0,.42.17.61.61,0,0,0,.43-.17.64.64,0,0,0,.18-.43A.6.6,0,0,0,21.32,23.72Z"/><path class="cls-1" d="M17.92,25.91a.58.58,0,0,0-.84,0,.56.56,0,0,0-.18.42.58.58,0,0,0,.18.43.6.6,0,0,0,.84,0,.58.58,0,0,0,.18-.43A.56.56,0,0,0,17.92,25.91Z"/></svg>