<svg id="foto-z-pokhodiv" xmlns="http://www.w3.org/2000/svg" viewBox="0 0 35 33"><defs><style>.cls-1{fill:#c30;}</style></defs><title>Artboard 1</title><path class="cls-1" d="M22.4,13.53a6.91,6.91,0,1,0,6.91,6.91A6.92,6.92,0,0,0,22.4,13.53Zm0,12.56a5.66,5.66,0,1,1,5.66-5.65A5.66,5.66,0,0,1,22.4,26.09Z"/><path class="cls-1" d="M26.05,19.08A.62.62,0,0,0,24.93,19a.77.77,0,1,1-1.06-1.06.66.66,0,0,0,.3-.6.65.65,0,0,0-.41-.53,3.94,3.94,0,1,0,2.29,2.3Zm-3.65,4a2.64,2.64,0,0,1,0-5.27,2,2,0,0,0-.15.77,2,2,0,0,0,2,2,2,2,0,0,0,.77-.15A2.64,2.64,0,0,1,22.4,23.07Z"/><path class="cls-1" d="M4.85,28.49a.64.64,0,0,0-.89,0,.63.63,0,1,0,.89.89.64.64,0,0,0,0-.89Z"/><path class="cls-1" d="M30.25,13.83h0a.63.63,0,0,0,0,1.26h0a.63.63,0,0,0,0-1.26Z"/><path class="cls-1" d="M30.44,11.29H28.72l-.83-4a.62.62,0,0,0-.61-.5H17.46a.63.63,0,0,0-.62.51l-.76,4h-7V10.6A1.81,1.81,0,0,0,7.27,8.79H6.62A1.81,1.81,0,0,0,4.81,10.6v.69H4.56a3.15,3.15,0,0,0-3.14,3.14v15a3.15,3.15,0,0,0,3.14,3.14H30.44a3.15,3.15,0,0,0,3.14-3.14v-15A3.15,3.15,0,0,0,30.44,11.29ZM18,8h8.79l.67,3.27h-2l-.31-1.48a.62.62,0,0,0-.61-.5h-4.3a.62.62,0,0,0-.62.51l-.28,1.47h-2Zm6.2,3.27H20.62l.14-.72H24ZM6.07,10.6a.55.55,0,0,1,.55-.55h.65a.56.56,0,0,1,.56.55v.69H6.07ZM30.44,31.32H4.56a1.88,1.88,0,0,1-1.88-1.88v-15a1.88,1.88,0,0,1,1.88-1.88h6.66V28.31H7a.63.63,0,0,0-.63.63.63.63,0,0,0,.63.63H32.32A1.87,1.87,0,0,1,30.44,31.32Zm1.88-3H12.48V12.55h18a1.88,1.88,0,0,1,1.88,1.88Z"/><path class="cls-1" d="M22,.42a.63.63,0,0,0-.63.63V3.62a.63.63,0,1,0,1.26,0V1.05A.63.63,0,0,0,22,.42Z"/><path class="cls-1" d="M19.55,4l-.9-.9a.63.63,0,1,0-.89.89l.9.9a.64.64,0,0,0,.45.18A.63.63,0,0,0,19.55,4Z"/><path class="cls-1" d="M26.24,3.14a.62.62,0,0,0-.89,0l-.89.9a.61.61,0,0,0,0,.88.59.59,0,0,0,.44.19.63.63,0,0,0,.45-.19L26.24,4A.62.62,0,0,0,26.24,3.14Z"/></svg>