<svg id="istoriyi" xmlns="http://www.w3.org/2000/svg" viewBox="0 0 35 33"><defs><style>.cls-1{fill:#c30;}</style></defs><title>Artboard 1</title><path class="cls-1" d="M31,7.9a.62.62,0,0,0-.86-.19.63.63,0,0,0-.19.86,14.7,14.7,0,1,1-4.77-4.66.62.62,0,1,0,.65-1.06A16,16,0,1,0,31,7.9Z"/><path class="cls-1" d="M28.8,5.22h0a.63.63,0,0,0-.88,0,.61.61,0,0,0,0,.88h0a.64.64,0,0,0,.89,0A.63.63,0,0,0,28.8,5.22Z"/><path class="cls-1" d="M26.41,7.59a12.63,12.63,0,0,0-16-1.54.63.63,0,0,0-.16.87.62.62,0,0,0,.86.17A11.35,11.35,0,0,1,26.2,23.78v0l-1.63-2.82a8.16,8.16,0,0,0-14.13,0L8.8,23.76v0A11.41,11.41,0,0,1,8,10.35a.63.63,0,0,0-.19-.86.62.62,0,0,0-.86.19,12.6,12.6,0,1,0,19.5-2.09ZM9.69,24.73c.05-.1.1-.2.19-.35l1.63-2.82a6.91,6.91,0,0,1,12,0l1.63,2.82.2.36A11.36,11.36,0,0,1,9.69,24.73Z"/><path class="cls-1" d="M9.49,7.58a.62.62,0,0,0-.88,0l0,0a.63.63,0,0,0,0,.88A.59.59,0,0,0,9,8.66a.62.62,0,0,0,.44-.18l0,0A.61.61,0,0,0,9.49,7.58Z"/><path class="cls-1" d="M22,12.34a2.1,2.1,0,0,0-3.43-.91,4.28,4.28,0,0,0-1.27,1.93.25.25,0,0,1,0,.07A2.52,2.52,0,0,0,19,16.5a3,3,0,0,0,.65.08,2.51,2.51,0,0,0,2.42-1.86l0-.06A4.25,4.25,0,0,0,22,12.34Zm-1.07,2v0a1.26,1.26,0,0,1-2.43-.65h0v0a3.13,3.13,0,0,1,.91-1.37.87.87,0,0,1,.58-.23.83.83,0,0,1,.22,0,.85.85,0,0,1,.6.58A3,3,0,0,1,20.92,14.37Z"/><path class="cls-1" d="M27.77,15.38a2.11,2.11,0,0,0-3.08-1.77A4.34,4.34,0,0,0,23,15.15l0,.06a2.51,2.51,0,0,0,.91,3.42,2.55,2.55,0,0,0,1.25.34,2.37,2.37,0,0,0,.65-.09,2.48,2.48,0,0,0,1.52-1.16l0-.06A4.36,4.36,0,0,0,27.77,15.38ZM26.2,17.06l0,0a1.25,1.25,0,0,1-1.71.46,1.28,1.28,0,0,1-.59-.76,1.26,1.26,0,0,1,.13-.95h0l0,0a3,3,0,0,1,1.24-1.08.79.79,0,0,1,.4-.1.8.8,0,0,1,.42.11.84.84,0,0,1,.43.71A3,3,0,0,1,26.2,17.06Z"/><path class="cls-1" d="M11.24,16.37v-.05a3.31,3.31,0,0,0-1-1.51,1.71,1.71,0,0,0-2.79.76,3.32,3.32,0,0,0-.1,1.78v.06h0A2,2,0,0,0,9.3,18.89a2.24,2.24,0,0,0,.52-.06A2,2,0,0,0,11,17.89,2,2,0,0,0,11.24,16.37Zm-1.28.9a.74.74,0,0,1-.46.35.76.76,0,0,1-.93-.54v0a2.1,2.1,0,0,1,.08-1.12A.47.47,0,0,1,9,15.63a.47.47,0,0,1,.44.1,2,2,0,0,1,.63.94v0A.78.78,0,0,1,10,17.27Z"/><path class="cls-1" d="M16.23,14.44a3.8,3.8,0,0,0-.66-2,1.9,1.9,0,0,0-1.63-.89h0a1.93,1.93,0,0,0-1.63.9,3.81,3.81,0,0,0-.65,2v.06a2.29,2.29,0,0,0,4.58,0ZM14,15.54a1,1,0,0,1-1-1v0h0a2.55,2.55,0,0,1,.45-1.34.66.66,0,0,1,.58-.32h0a.67.67,0,0,1,.58.31A2.68,2.68,0,0,1,15,14.47v0A1,1,0,0,1,14,15.54Z"/></svg>