<svg id="vidhuky" xmlns="http://www.w3.org/2000/svg" viewBox="0 0 35 33"><defs><style>.cls-1{fill:#c30;}</style></defs><title>Artboard 1</title><path class="cls-1" d="M33.58,7.19A.69.69,0,0,0,33.13,7a.67.67,0,0,0-.45.18.65.65,0,0,0-.19.45.65.65,0,0,0,.64.64.65.65,0,0,0,.45-.19.67.67,0,0,0,.18-.45A.69.69,0,0,0,33.58,7.19Z"/><path class="cls-1" d="M30.74,7H19.82a2.08,2.08,0,0,1,2-1.44,2.11,2.11,0,0,1,1,.26.6.6,0,0,0,.54,0,.62.62,0,0,0,.37-.39,3.29,3.29,0,0,1,6.14-.29.62.62,0,0,0,.83.33A.64.64,0,0,0,31,4.68a4.56,4.56,0,0,0-8.24-.23,3.28,3.28,0,0,0-1-.15,3.35,3.35,0,0,0-3.35,3.34.64.64,0,0,0,.64.64H30.74a.64.64,0,0,0,.64-.64A.64.64,0,0,0,30.74,7Z"/><path class="cls-1" d="M25.85,22.85l-2.48-4.92a.62.62,0,0,0-.56-.35H16.45a.63.63,0,0,0-.54.3.65.65,0,0,0,0,.62l2.47,4.92a.65.65,0,0,0,.57.35h6.35a.64.64,0,0,0,.57-.92Zm-6.53-.35-1.84-3.65h4.93l1.84,3.65Z"/><path class="cls-1" d="M21.32,27a.64.64,0,0,0-1.09.45.65.65,0,0,0,.19.45.65.65,0,0,0,.9,0,.64.64,0,0,0,.18-.45A.63.63,0,0,0,21.32,27Z"/><path class="cls-1" d="M9.77,4.88a2.48,2.48,0,0,0-1.45.46,2.51,2.51,0,0,0-1.46-.46.63.63,0,0,0-.63.63.64.64,0,0,0,.63.64,1.19,1.19,0,0,1,1,.46.67.67,0,0,0,.5.23.65.65,0,0,0,.49-.23,1.22,1.22,0,0,1,1-.46.64.64,0,0,0,.64-.64A.64.64,0,0,0,9.77,4.88Z"/><path class="cls-1" d="M17,2.82a2.51,2.51,0,0,0-1.46.46A2.48,2.48,0,0,0,14,2.82a.64.64,0,0,0-.64.63.64.64,0,0,0,.64.64,1.25,1.25,0,0,1,1,.46.62.62,0,0,0,.49.23.64.64,0,0,0,.5-.23,1.22,1.22,0,0,1,1-.46.64.64,0,0,0,.63-.64A.63.63,0,0,0,17,2.82Z"/><path class="cls-1" d="M14,7.9a2.23,2.23,0,0,0-1.24.37,2.22,2.22,0,0,0-1.23-.37.64.64,0,0,0-.64.63.64.64,0,0,0,.64.64,1,1,0,0,1,.74.35.63.63,0,0,0,.49.24.65.65,0,0,0,.5-.24A1,1,0,0,1,14,9.17a.64.64,0,0,0,.63-.64A.63.63,0,0,0,14,7.9Z"/><path class="cls-1" d="M33.69,30.13,25.25,13.36a.63.63,0,0,0-.57-.35H10.32a.62.62,0,0,0-.54.3l0,0v0l-1.06,2.1H2.62a1.82,1.82,0,0,1,2.59-.94.68.68,0,0,0,.54,0,.67.67,0,0,0,.37-.4,2.89,2.89,0,0,1,2.76-2,.64.64,0,0,0,.64-.64.64.64,0,0,0-.64-.63,4.17,4.17,0,0,0-3.7,2.24A3.13,3.13,0,0,0,4.32,13a3.08,3.08,0,0,0-3.08,3.08.63.63,0,0,0,.63.63H8.06L1.31,30.13a.63.63,0,0,0,0,.61.64.64,0,0,0,.54.31H33.13a.64.64,0,0,0,.54-.31A.63.63,0,0,0,33.69,30.13ZM11,16.32l2.9,5.75H11Zm-8,13.46L9.68,16.32v6.23L6,29.78Zm4.56,0,2.85-5.67,2.85,5.67Zm6.77-.71-2.89-5.73h2.89Zm1.27.71V25.36l2.22,4.42Zm3.65,0-7.81-15.5H24.29l6.3,12.51H23.15a.64.64,0,0,0-.63.64.63.63,0,0,0,.63.63h8.08l.86,1.72Z"/></svg>