<svg id="video-z-pokhodiv" xmlns="http://www.w3.org/2000/svg" viewBox="0 0 35 33"><defs><style>.cls-1{fill:#c30;}</style></defs><title>Artboard 1</title><path class="cls-1" d="M25.83,28.38V26.47A3.77,3.77,0,0,0,23.6,23l.09-.06a4.56,4.56,0,0,0,1.89-3.69V12.66A4.57,4.57,0,0,0,23.69,9L22.48,8.1h0V5.56a5,5,0,1,0-9.94,0V8.1h0L11.31,9a4.58,4.58,0,0,0-1.89,3.7v6.63A4.56,4.56,0,0,0,11.31,23l.09.06a3.77,3.77,0,0,0-2.23,3.43v1.91a2.11,2.11,0,0,0,.87,4H25a2.11,2.11,0,0,0,.87-4ZM13.77,6.74h3a.63.63,0,0,0,0-1.25h-3a3.73,3.73,0,0,1,7.46.07V8H13.77ZM10.66,19.29V12.66A3.29,3.29,0,0,1,12,10l1-.75h8.84L23,10a3.26,3.26,0,0,1,1.38,2.68v6.63A3.29,3.29,0,0,1,23,22l-1,.75H20.49a4.23,4.23,0,0,0,1.23-3v-.12a8.48,8.48,0,0,0-1.93-4.83,13.69,13.69,0,0,0-1.28-1.42c-.7-.66-.82-.66-1-.66s-.3,0-1,.66a12.63,12.63,0,0,0-1.28,1.42,8.48,8.48,0,0,0-1.94,4.83v.12a4.23,4.23,0,0,0,1.23,3H13.08L12,22A3.32,3.32,0,0,1,10.66,19.29Zm7.53-.66c-.29-.27-.44-.39-.69-.39s-.41.14-.68.39a6.73,6.73,0,0,0-.61.68,4,4,0,0,0-.94,2.35v.05a3,3,0,0,1-.75-2v-.09c.05-2.46,2.07-4.69,3-5.52a11.49,11.49,0,0,1,1.42,1.57,7.18,7.18,0,0,1,1.56,3.95v.09a3,3,0,0,1-.75,2v0a4,4,0,0,0-.93-2.36A6.84,6.84,0,0,0,18.19,18.63Zm.3,3.1a1,1,0,1,1-2,0v0a3.26,3.26,0,0,1,1-2,3.26,3.26,0,0,1,1,2ZM25,31.17H10a.87.87,0,0,1,0-1.74h4.57a.62.62,0,0,0,0-1.24h-4.2V26.47A2.52,2.52,0,0,1,12.92,24h9.16a2.52,2.52,0,0,1,2.51,2.51v1.72H20.42a.62.62,0,0,0,0,1.24H25a.87.87,0,1,1,0,1.74Z"/><path class="cls-1" d="M17.94,28.37a.62.62,0,0,0-1.06.44.65.65,0,0,0,.18.44.63.63,0,0,0,.88,0,.6.6,0,0,0,.18-.44A.62.62,0,0,0,17.94,28.37Z"/><path class="cls-1" d="M19.76,5.68a.6.6,0,0,0-.44-.19.63.63,0,0,0-.62.63.61.61,0,0,0,.62.62A.63.63,0,0,0,20,6.12.6.6,0,0,0,19.76,5.68Z"/><path class="cls-1" d="M32.8,15.88H29.64a.62.62,0,1,0,0,1.24H32.8a.62.62,0,1,0,0-1.24Z"/><path class="cls-1" d="M30.13,11.42a.61.61,0,0,0-.88,0l-1.1,1.1a.63.63,0,0,0,0,.88.63.63,0,0,0,.88,0l1.1-1.11A.6.6,0,0,0,30.13,11.42Z"/><path class="cls-1" d="M30.13,20.71,29,19.61a.62.62,0,1,0-.87.88l1.09,1.09a.6.6,0,0,0,.88,0A.62.62,0,0,0,30.13,20.71Z"/><path class="cls-1" d="M5.36,15.88H2.2a.62.62,0,1,0,0,1.24H5.36a.62.62,0,1,0,0-1.24Z"/><path class="cls-1" d="M6.85,19.6a.63.63,0,0,0-.88,0l-1.1,1.11a.6.6,0,0,0,0,.87.6.6,0,0,0,.88,0l1.1-1.1A.63.63,0,0,0,6.85,19.6Z"/><path class="cls-1" d="M6.84,12.51,5.75,11.42a.62.62,0,0,0-.88.87L6,13.39a.62.62,0,0,0,.87-.88Z"/></svg>