<svg id="Layer_3" data-name="Layer 3" xmlns="http://www.w3.org/2000/svg" viewBox="0 0 35 33"><defs><style>.cls-1{fill:#c30;}</style></defs><title>Artboard 1</title><path class="cls-1" d="M30.63,2.68a4.09,4.09,0,0,0-7.18.11,2.94,2.94,0,0,0-.84-.12,3,3,0,0,0-3,3,.62.62,0,0,0,.62.62h5.06a.62.62,0,0,0,.62-.62.62.62,0,0,0-.62-.62H21a1.76,1.76,0,0,1,1.66-1.15,1.79,1.79,0,0,1,.87.22.63.63,0,0,0,.52,0,.62.62,0,0,0,.37-.39,2.84,2.84,0,0,1,5.3-.24.64.64,0,0,0,.61.37h.1A1.76,1.76,0,0,1,32,5.07H30.29a.62.62,0,0,0-.62.62.62.62,0,0,0,.62.62h2.49a.62.62,0,0,0,.62-.62A3,3,0,0,0,30.63,2.68Z"/><path class="cls-1" d="M28.22,5.25a.62.62,0,0,0-.44-.18.61.61,0,0,0-.62.62.62.62,0,0,0,.18.44.63.63,0,0,0,.44.18.61.61,0,0,0,.62-.62A.63.63,0,0,0,28.22,5.25Z"/><path class="cls-1" d="M33.32,27.5,24.07,10.76a.62.62,0,0,0-1.09,0l-3.7,6.7L18,15.53a.62.62,0,0,0-1,0L9.75,26.62,8.47,24.43h.46a.63.63,0,0,0,.54-.31.62.62,0,0,0,0-.63L8,21h.31a.64.64,0,0,0,.54-.31.6.6,0,0,0,0-.62l-1-1.73,1-2,1,.65a1.61,1.61,0,0,0,.89.28,1.49,1.49,0,0,0,.36-.05,1.68,1.68,0,0,0,1.07-.82l1.71-3a.41.41,0,0,1,.31-.23.36.36,0,0,1,.31.13,1.58,1.58,0,0,0,2.4,0l.75-.84.91,1.74a.62.62,0,1,0,1.1-.57L18.32,11h0l-3.5-6.75a.62.62,0,0,0-1.1,0L7.09,17.06l-.58-1A.63.63,0,0,0,6,15.75a.61.61,0,0,0-.53.31l-2.34,4a.62.62,0,0,0,.54.93h.3l-1.46,2.5a.64.64,0,0,0,0,.63.63.63,0,0,0,.54.31h.45L1.69,27.49a.6.6,0,0,0,0,.62.63.63,0,0,0,.54.31H32.78a.6.6,0,0,0,.53-.3A.62.62,0,0,0,33.32,27.5Zm-19-21.58L17,11.23,16,12.42a.34.34,0,0,1-.27.13.37.37,0,0,1-.28-.13A1.59,1.59,0,0,0,14,11.88a1.64,1.64,0,0,0-1.25.86L11.06,15.8a.45.45,0,0,1-.27.22.35.35,0,0,1-.26-.06l-1.09-.73ZM3.3,27.18l1.79-3.06a.6.6,0,0,0,0-.62.61.61,0,0,0-.53-.31H4.1l1.46-2.51a.62.62,0,0,0,0-.62A.61.61,0,0,0,5,19.75H4.72L6,17.61l1.25,2.14h-.3a.62.62,0,0,0-.54.93l1.47,2.51H7.39a.62.62,0,0,0-.54.93l1.79,3.06ZM18.12,18l2.43,3.74H18.12Zm-7.25,9.22,6-9.22v4.17l-3.29,5.05Zm4.2,0,2.43-3.73,2.43,3.73Zm6-.52-2.42-3.72h2.42Zm-1-8,3.48-6.3,5.13,9.28a.61.61,0,0,1-.35.4.48.48,0,0,1-.5-.07L25.34,20a1.74,1.74,0,0,0-2.3.11L21.78,21.3Zm2.27,8.54V24.4l1.82,2.78Zm3.3,0h0l-3.14-4.82L23.9,21a.49.49,0,0,1,.67,0l2.46,2a1.76,1.76,0,0,0,1.08.38,1.7,1.7,0,0,0,.67-.13,1.93,1.93,0,0,0,.54-.35l2.4,4.36Z"/><path class="cls-1" d="M10.3,29.17H5.58a.62.62,0,1,0,0,1.24H10.3a.62.62,0,1,0,0-1.24Z"/><path class="cls-1" d="M32.77,29.17h-8a.62.62,0,0,0,0,1.24h8a.62.62,0,0,0,0-1.24Z"/><path class="cls-1" d="M22.72,31.16h-8a.62.62,0,0,0-.63.62.63.63,0,0,0,.63.62h8a.62.62,0,0,0,.62-.62A.62.62,0,0,0,22.72,31.16Z"/><path class="cls-1" d="M12.72,31.34a.59.59,0,0,0-.44-.18.62.62,0,0,0-.44.18.63.63,0,0,0-.18.44.61.61,0,0,0,.62.62.63.63,0,0,0,.44-.18.62.62,0,0,0,.18-.44A.59.59,0,0,0,12.72,31.34Z"/><path class="cls-1" d="M6.78.6A2.13,2.13,0,0,0,5.58,1,2.18,2.18,0,0,0,4.37.6a.62.62,0,0,0-.62.62.62.62,0,0,0,.62.62.93.93,0,0,1,.72.35.63.63,0,0,0,1,0,.93.93,0,0,1,.72-.35.62.62,0,0,0,.63-.62A.63.63,0,0,0,6.78.6Z"/><path class="cls-1" d="M9.55,4.58a2.23,2.23,0,0,0-1.21.36,2.2,2.2,0,0,0-1.21-.36.62.62,0,0,0-.62.62.62.62,0,0,0,.62.62.9.9,0,0,1,.73.35.63.63,0,0,0,1,0,.89.89,0,0,1,.72-.35.62.62,0,0,0,.62-.62A.62.62,0,0,0,9.55,4.58Z"/><path class="cls-1" d="M31.84,12.43a2.16,2.16,0,0,0-1.21.37,2.13,2.13,0,0,0-1.21-.37.62.62,0,0,0-.62.62.62.62,0,0,0,.62.62.93.93,0,0,1,.73.35.6.6,0,0,0,.48.23h0a.59.59,0,0,0,.48-.23,1,1,0,0,1,.73-.35.62.62,0,0,0,.62-.62A.62.62,0,0,0,31.84,12.43Z"/><path class="cls-1" d="M26.66,7.35a2.13,2.13,0,0,0-1.21.37,2.13,2.13,0,0,0-1.21-.37.62.62,0,0,0-.62.62.62.62,0,0,0,.62.62,1,1,0,0,1,.73.35.59.59,0,0,0,.48.23.6.6,0,0,0,.48-.23.93.93,0,0,1,.73-.35A.62.62,0,0,0,27.28,8,.62.62,0,0,0,26.66,7.35Z"/><path class="cls-1" d="M4.64,7.09a2.13,2.13,0,0,0-1.21.36,2.13,2.13,0,0,0-1.21-.36.62.62,0,0,0-.62.62.62.62,0,0,0,.62.62A.93.93,0,0,1,3,8.67a.6.6,0,0,0,.48.23.59.59,0,0,0,.48-.23.94.94,0,0,1,.73-.34.62.62,0,0,0,.62-.62A.62.62,0,0,0,4.64,7.09Z"/></svg>