<svg width="31" height="31" viewBox="0 0 31 31" fill="none" xmlns="http://www.w3.org/2000/svg">
<g clip-path="url(#clip0)">
<path d="M27.7345 19.2238H26.7955C27.0614 18.9311 27.2977 18.6071 27.4993 18.2552C28.225 16.989 28.4178 15.5137 28.0422 14.1013C27.2667 11.1857 24.2814 9.44899 21.3873 10.2305C20.879 10.3677 20.4069 10.5739 19.9779 10.836L17.1621 6.99175L17.9608 6.77617C18.4838 6.63501 18.9209 6.29704 19.1917 5.82462C19.4624 5.35216 19.5344 4.80175 19.3942 4.27488C19.2541 3.74791 18.9187 3.30755 18.4497 3.03474C17.9808 2.76202 17.4344 2.6895 16.9115 2.83076L14.2507 3.54901C13.9872 3.62019 13.8308 3.89306 13.9014 4.15851C13.9179 4.22058 13.9457 4.27642 13.9815 4.3251C13.9814 4.32515 13.9813 4.32515 13.9811 4.3252L15.5069 6.40819L14.3193 6.72874C14.0557 6.79992 13.8994 7.07278 13.97 7.33823C14.0291 7.56058 14.2287 7.70726 14.4468 7.70726C14.4891 7.70726 14.5322 7.70174 14.575 7.69014L16.1371 7.26845L17.1454 8.64498L11.6347 10.1326L10.5713 8.68076C10.4508 8.51606 10.2422 8.44264 10.046 8.49555L7.34567 9.22446C6.87123 9.35253 6.49104 9.70782 6.32884 10.1749C6.16659 10.642 6.24382 11.1586 6.53551 11.5568C6.82098 11.9467 7.26228 12.1653 7.72516 12.1653C7.85407 12.1653 7.98465 12.1483 8.11399 12.1134L10.4214 11.4905L9.78531 13.8821C9.01966 13.7486 8.22778 13.7827 7.45496 13.9915C6.05296 14.3699 4.88124 15.2758 4.15561 16.542C3.42993 17.8083 3.23715 19.2835 3.61283 20.696C3.95744 21.9915 4.74265 23.0916 5.84017 23.8291L3.20335 25.182C3.03784 25.2669 2.93359 25.4382 2.93359 25.6254V27.7433C2.93359 28.0182 3.15479 28.241 3.42756 28.241H27.7345C28.0073 28.241 28.2285 28.0182 28.2285 27.7433V19.7215C28.2285 19.4466 28.0073 19.2238 27.7345 19.2238ZM19.7733 12.2329L22.3962 15.8137C22.4931 15.9459 22.6425 16.0159 22.794 16.0159C22.896 16.0159 22.9987 15.9841 23.087 15.9185C23.3065 15.7554 23.3531 15.4438 23.1911 15.2227L20.5676 11.641C20.8976 11.4486 21.2575 11.2959 21.643 11.1919C22.027 11.0882 22.4127 11.0388 22.7926 11.0388C24.7552 11.0388 26.5563 12.3603 27.0879 14.3589C27.3952 15.5146 27.2374 16.7216 26.6438 17.7576C26.2796 18.3931 25.7777 18.9169 25.1799 19.2989C25.1795 19.2991 25.1791 19.2993 25.1788 19.2995L25.1147 19.3398C24.7552 19.5608 24.3625 19.7316 23.9444 19.8445C22.7973 20.1541 21.5992 19.9952 20.5709 19.3971C19.5425 18.7988 18.8068 17.833 18.4994 16.6775C18.0586 15.0202 18.6049 13.3269 19.7733 12.2329ZM16.532 6.13154L15.2062 4.32152L17.1672 3.79216C17.4352 3.71974 17.7154 3.75687 17.9557 3.89679C18.1961 4.03666 18.3681 4.26244 18.4399 4.53256C18.5118 4.80269 18.4749 5.08482 18.3361 5.32702C18.1972 5.56923 17.9731 5.7425 17.705 5.81487L16.532 6.13154ZM11.4327 11.5335L12.1614 12.5286C12.2583 12.6609 12.4077 12.7308 12.5593 12.7308C12.6611 12.7308 12.7639 12.6991 12.8522 12.6335C13.0717 12.4704 13.1184 12.1588 12.9564 11.9377L12.2646 10.993L17.7755 9.50529L19.1838 11.4279C17.6998 12.7617 16.9964 14.8713 17.5452 16.935C17.9208 18.3474 18.8199 19.5279 20.0769 20.259C20.8293 20.6966 21.6559 20.9412 22.4991 20.9864L21.5786 21.5659L17.2778 20.9606C17.1526 20.9429 17.0256 20.9744 16.9227 21.0483L13.1489 23.7593H11.9883C12.6267 23.3075 13.1652 22.7173 13.567 22.0164C14.2097 20.8949 14.434 19.6095 14.2161 18.349L16.3848 17.7635C16.5431 17.7208 16.67 17.6018 16.7237 17.4458C16.7774 17.2898 16.7508 17.1172 16.6527 16.9849L15.174 14.9908C15.0107 14.7707 14.7011 14.7255 14.4826 14.8899C14.264 15.0545 14.2192 15.3663 14.3825 15.5865L15.4249 16.9922L13.9604 17.3876C13.5236 16.1862 12.6914 15.186 11.5782 14.5385C11.3073 14.381 11.0267 14.2485 10.7393 14.1412L11.4327 11.5335ZM7.85822 11.152C7.6595 11.2056 7.45244 11.1325 7.33031 10.9659C7.2313 10.8308 7.2061 10.6623 7.26119 10.5038C7.31628 10.3453 7.44019 10.2294 7.60125 10.186L9.97631 9.54476L10.081 9.68766C10.0811 9.68781 10.0812 9.68801 10.0814 9.68816L10.6095 10.4093L7.85822 11.152ZM10.482 15.1082C10.6878 15.1898 10.889 15.2869 11.0841 15.4003C11.9685 15.9148 12.6355 16.7015 13.0007 17.6465L9.55982 18.5753L10.482 15.1082ZM4.56702 20.4385C3.93249 18.0529 5.34274 15.5922 7.71059 14.9529C8.09364 14.8495 8.48227 14.7984 8.86843 14.7984C9.08967 14.7984 9.30997 14.8158 9.52805 14.8492L8.38405 19.1505C8.33835 19.3222 8.38711 19.5055 8.51191 19.6312C8.60578 19.7257 8.73192 19.7769 8.86126 19.7769C8.90385 19.7769 8.94678 19.7714 8.98903 19.7599L13.2562 18.608C13.409 19.6104 13.2218 20.6277 12.7112 21.5187C12.1174 22.5547 11.1588 23.2959 10.0118 23.6055C9.65468 23.702 9.29268 23.7528 8.93226 23.7593H8.90682C8.11844 23.7688 7.33891 23.5657 6.63823 23.1581C5.61003 22.5598 4.87432 21.594 4.56702 20.4385ZM27.2406 27.2456H3.92152V25.9304L6.21348 24.7545H13.3069C13.4098 24.7545 13.51 24.7222 13.5937 24.662L17.3359 21.9737L21.6196 22.5766C21.7344 22.5926 21.8513 22.5677 21.9497 22.5058L25.5821 20.2191H27.2406V27.2456Z" fill="#C33D00"/>
<path d="M26.3004 14.5937L26.2951 14.5734C26.225 14.3078 25.9543 14.1498 25.6907 14.2205C25.4271 14.2912 25.2703 14.5638 25.3404 14.8294L25.3458 14.8497C25.4046 15.0724 25.6044 15.2195 25.8227 15.2195C25.8648 15.2195 25.9076 15.2141 25.9502 15.2026C26.2138 15.1319 26.3707 14.8593 26.3004 14.5937Z" fill="#C33D00"/>
<path d="M25.8853 16.2252C25.6319 16.1231 25.3445 16.2472 25.2433 16.5024C24.931 17.2888 24.287 17.8653 23.4762 18.0841C22.4964 18.3486 21.4388 18.016 20.7818 17.2366C20.6052 17.0272 20.2934 17.0017 20.0855 17.1795C19.8776 17.3575 19.8522 17.6715 20.0288 17.881C20.7258 18.7077 21.7509 19.1686 22.8017 19.1686C23.1121 19.1686 23.4248 19.1283 23.7318 19.0455C24.8463 18.7447 25.7314 17.9525 26.1604 16.872C26.2618 16.6168 26.1386 16.3273 25.8853 16.2252Z" fill="#C33D00"/>
<path d="M14.0454 13.4334C13.953 13.3408 13.8261 13.2881 13.6956 13.2881C13.5662 13.2881 13.4388 13.3408 13.3464 13.4334C13.2545 13.5265 13.2017 13.6548 13.2017 13.7857C13.2017 13.9166 13.2545 14.0445 13.3464 14.1375C13.4388 14.2301 13.5662 14.2834 13.6956 14.2834C13.826 14.2834 13.953 14.2301 14.0454 14.1375C14.1372 14.0445 14.1896 13.9166 14.1896 13.7857C14.1896 13.6543 14.1372 13.5259 14.0454 13.4334Z" fill="#C33D00"/>
</g>
<defs>
<clipPath id="clip0">
<rect x="2.93359" y="2.75781" width="25.2961" height="25.4848" fill="white"/>
</clipPath>
</defs>
</svg>
