<svg width="31" height="31" viewBox="0 0 31 31" fill="none" xmlns="http://www.w3.org/2000/svg">
<g clip-path="url(#clip0)">
<path d="M11.6131 28.9304C11.4644 28.9304 11.3184 28.9912 11.2131 29.0967C11.1078 29.2022 11.0472 29.3485 11.0472 29.4977C11.0472 29.6467 11.1078 29.793 11.2131 29.8985C11.3184 30.004 11.4644 30.0648 11.6131 30.0648C11.762 30.0648 11.9081 30.004 12.0134 29.8985C12.1187 29.793 12.1793 29.6467 12.1793 29.4977C12.1793 29.3485 12.1187 29.2022 12.0134 29.0967C11.9081 28.9912 11.762 28.9304 11.6131 28.9304Z" fill="#C33D00"/>
<path d="M29.3776 12.9563C29.2287 12.9563 29.0826 13.017 28.9773 13.1226C28.872 13.2281 28.8116 13.3744 28.8116 13.5236C28.8116 13.6732 28.872 13.8189 28.9773 13.9244C29.0826 14.0299 29.2287 14.0907 29.3776 14.0907C29.5265 14.0907 29.6725 14.0299 29.7776 13.9244C29.8829 13.8189 29.9435 13.6732 29.9435 13.5236C29.9435 13.3744 29.8829 13.2281 29.7776 13.1226C29.6725 13.017 29.5265 12.9563 29.3776 12.9563Z" fill="#C33D00"/>
<path d="M25.0184 8.35413C24.3372 7.67178 23.2292 7.672 22.5481 8.35413L22.2492 8.65363L16.7748 3.16846C16.3172 2.71002 15.7088 2.45752 15.0618 2.45752C14.4149 2.45752 13.8065 2.71002 13.3489 3.16846L7.49434 9.03426L4.94441 6.47934C4.64395 6.17829 4.24437 6.01247 3.81934 6.01247C3.39409 6.01247 2.99451 6.17829 2.69405 6.47934L1.12935 8.0471C0.908319 8.26856 0.908319 8.62769 1.12935 8.84915C1.35038 9.07062 1.70881 9.07062 1.92984 8.84915L3.49454 7.28139C3.67353 7.10205 3.96514 7.10205 4.14414 7.28139L6.69407 9.83632L1.109 15.4323C0.887964 15.6538 0.887964 16.0127 1.109 16.2344C1.21962 16.345 1.36432 16.4004 1.50924 16.4004C1.65416 16.4004 1.79908 16.345 1.90949 16.2344L14.1494 3.97052C14.393 3.72623 14.7171 3.59166 15.0618 3.59166C15.4066 3.59166 15.7305 3.72623 15.9743 3.97052L21.4487 9.45568L17.1903 13.7225L15.6006 12.311C16.5144 12.019 17.1781 11.1604 17.1781 10.1493C17.1781 8.89859 16.1624 7.88105 14.914 7.88105C13.6657 7.88105 12.65 8.89859 12.65 10.1493C12.65 10.1773 12.6511 10.205 12.6522 10.2327C11.8274 10.0968 10.951 10.346 10.3162 10.982L6.52659 14.779C6.52526 14.7803 6.52437 14.7817 6.52305 14.783C6.50822 14.7983 6.49406 14.8143 6.48079 14.8313C6.47924 14.8333 6.47747 14.8353 6.47592 14.8371C6.47548 14.838 6.47481 14.8386 6.47437 14.8393C6.24028 15.1512 6.09913 15.5197 6.05532 15.9171H4.60324C4.29061 15.9171 4.03727 16.171 4.03727 16.4842V17.0517C4.03727 18.0741 4.86763 18.9061 5.88827 18.9061H6.94409L6.75691 19.7153C6.55668 19.6916 6.3529 19.6789 6.14625 19.6789C3.28855 19.6789 0.963633 22.0084 0.963633 24.8717C0.963633 26.5126 1.7274 27.9779 2.91707 28.9303H1.5296C1.21697 28.9303 0.963633 29.1844 0.963633 29.4974C0.963633 29.8106 1.21697 30.0644 1.5296 30.0644H6.14625C8.60061 30.0644 10.662 28.3462 11.195 26.0471C11.2986 26.161 11.4472 26.2328 11.6132 26.2328H14.682C14.9745 27.3113 15.6061 28.2513 16.4544 28.9303H13.8604C13.5478 28.9303 13.2945 29.1844 13.2945 29.4974C13.2945 29.8106 13.5478 30.0644 13.8604 30.0644H19.6834C22.5411 30.0644 24.866 27.7352 24.866 24.8717C24.866 22.0084 22.5411 19.6789 19.6834 19.6789C19.3935 19.6789 19.1092 19.7033 18.8322 19.7494L18.8178 19.698C18.5585 18.7751 18.4271 17.821 18.4271 16.8622V15.6429H19.4249C19.7332 15.6429 19.9838 15.8941 19.9838 16.2029C19.9838 16.5115 19.7332 16.7629 19.4249 16.7629C19.1123 16.7629 18.859 17.0167 18.859 17.33C18.859 17.643 19.1123 17.897 19.4249 17.897C20.3573 17.897 21.1158 17.1371 21.1158 16.2029C21.1158 15.2687 20.3573 14.5086 19.4249 14.5086H18.0757L18.039 14.476L23.3486 9.15619C23.588 8.9161 23.9781 8.9161 24.2179 9.15619L27.5148 12.4595C27.7359 12.681 28.0943 12.681 28.3153 12.4595C28.5363 12.2381 28.5363 11.8789 28.3153 11.6575L25.0184 8.35413ZM12.0176 23.2441L11.1983 19.6654C11.1632 19.5118 11.0658 19.3799 10.9297 19.301L7.93353 17.5676C7.57599 17.3608 7.29654 16.9509 7.2045 16.4982C7.15693 16.2652 7.16247 16.0437 7.21822 15.8491L10.1627 16.6636L11.8428 18.347C12.2575 18.7625 12.5327 19.287 12.6391 19.8645L13.1821 23.2441H12.0176ZM7.60232 21.0857C8.94886 21.6074 9.94958 22.8297 10.1565 24.3048H6.85824L7.60232 21.0857ZM12.6433 17.545L11.2576 16.1568L13.044 14.3667L17.3107 17.4634C17.316 17.5665 17.323 17.6694 17.3312 17.772H12.8533C12.7865 17.694 12.7163 17.6184 12.6433 17.545ZM14.914 9.0152C15.5382 9.0152 16.046 9.52396 16.046 10.1496C16.046 10.7749 15.5382 11.2837 14.914 11.2837C14.2899 11.2837 13.7819 10.7749 13.7819 10.1496C13.7819 9.52396 14.2899 9.0152 14.914 9.0152ZM11.1167 11.7843C11.7212 11.1784 12.7048 11.1784 13.3093 11.784L13.3684 11.8432C13.3763 11.8512 13.3848 11.8592 13.3932 11.8667L17.2949 15.331V16.0515L13.3173 13.1645C13.2175 13.0922 13.1011 13.0567 12.9854 13.0567C12.8396 13.0567 12.6944 13.1131 12.5849 13.2228L10.2901 15.5223L9.78033 15.3813L8.01429 14.8927L11.1167 11.7843ZM5.16942 17.0517L6.1832 17.0515C6.26861 17.3096 6.38941 17.553 6.53986 17.772H5.88827C5.49179 17.772 5.16942 17.449 5.16942 17.0517ZM8.09151 18.9686L10.15 20.1598L10.6355 22.2793C10.0195 21.2128 9.03603 20.3852 7.85985 19.9711L8.09151 18.9686ZM6.14625 28.9303C3.91271 28.9303 2.09556 27.1098 2.09556 24.8719C2.09556 22.634 3.91271 20.8133 6.14625 20.8133C6.26529 20.8133 6.38299 20.8197 6.49937 20.8297L5.59467 24.744C5.55573 24.9125 5.59578 25.0894 5.70308 25.2248C5.81039 25.3603 5.97345 25.439 6.14603 25.439H10.1565C9.88011 27.4093 8.18753 28.9303 6.14625 28.9303ZM12.1791 25.0989V24.3782H13.385C13.4551 24.3782 13.5235 24.3849 13.5903 24.3966C13.6631 24.4363 13.7447 24.46 13.8304 24.4647C14.1217 24.5822 14.3572 24.8109 14.4828 25.0989H12.1791ZM19.6834 20.8133C21.9169 20.8133 23.7341 22.634 23.7341 24.8719C23.7341 27.1096 21.9169 28.9303 19.6834 28.9303C17.7259 28.9303 16.0885 27.5317 15.7137 25.6795C15.7137 25.6749 15.7143 25.6704 15.7143 25.6658V25.5778C15.7143 25.3698 15.6867 25.1683 15.6356 24.9763C15.6344 24.9415 15.6329 24.9067 15.6329 24.8717C15.6329 23.2153 16.629 21.7883 18.0521 21.1582L19.1386 25.0255C19.2088 25.2756 19.436 25.439 19.6831 25.439C19.7338 25.439 19.7856 25.4321 19.8367 25.4177C20.1376 25.3328 20.3131 25.0196 20.2283 24.7181L19.1417 20.8505C19.319 20.8268 19.4997 20.8133 19.6834 20.8133ZM14.653 23.6216C14.5607 23.5613 14.464 23.5074 14.3634 23.4607L13.7558 19.678C13.7551 19.6741 13.7545 19.6701 13.7538 19.6661C13.706 19.404 13.6328 19.15 13.5365 18.9064H17.4766C17.5425 19.2761 17.6264 19.643 17.7282 20.0055L17.7428 20.0573C16.2199 20.6756 15.0548 21.9993 14.653 23.6216Z" fill="#C33D00"/>
<path d="M23.0586 6.77574L28.0977 6.7784C29.1154 6.7784 29.9434 5.94863 29.9434 4.9291C29.9434 3.90934 29.1154 3.07958 28.0977 3.07958C28.0738 3.07958 28.0501 3.08002 28.0264 3.08091C27.6715 1.88979 26.5666 1.02832 25.2767 1.02832C24.5202 1.02832 23.8065 1.3205 23.2668 1.85144C22.8363 2.27486 22.5551 2.812 22.4517 3.39614C21.7878 3.6451 21.3174 4.28953 21.3174 5.03085C21.3174 5.99297 22.0986 6.77574 23.0586 6.77574ZM23.0142 4.42232C23.306 4.40149 23.5339 4.16096 23.5396 3.86789C23.5582 2.9275 24.3375 2.16246 25.2767 2.16246C26.1922 2.16246 26.9538 2.87895 27.0104 3.79362C27.0219 3.97918 27.1235 4.14743 27.2824 4.24365C27.4412 4.33986 27.6372 4.35205 27.8065 4.27601C27.8985 4.23478 27.9966 4.21372 28.0977 4.21372C28.4911 4.21372 28.8114 4.53472 28.8114 4.92888C28.8114 5.32325 28.4911 5.64403 28.0979 5.64403L23.0591 5.64137C23.0589 5.64137 23.0589 5.64137 23.0589 5.64137C22.7228 5.64137 22.4495 5.36759 22.4495 5.03085C22.4493 4.71229 22.6976 4.44494 23.0142 4.42232Z" fill="#C33D00"/>
</g>
<defs>
<clipPath id="clip0">
<rect x="1" y="1" width="29" height="29" fill="white"/>
</clipPath>
</defs>
</svg>
