<svg width="31" height="31" viewBox="0 0 31 31" fill="none" xmlns="http://www.w3.org/2000/svg">
<g clip-path="url(#clip0)">
<path d="M29.8909 16.358C29.7065 16.1054 29.3523 16.0498 29.0994 16.2341L27.5356 17.3749C27.9775 16.7275 28.2604 15.9797 28.3556 15.1792C28.676 12.4782 26.7391 10.0198 24.0381 9.69922C22.6074 9.52974 21.245 9.99327 20.2323 10.8679L17.1082 7.99912V6.69793C17.2638 6.66873 17.4211 6.64926 17.5797 6.64085L17.9313 6.62204C18.6322 6.58465 19.2218 6.05453 19.3336 5.36179L19.382 5.06243C19.4418 4.69294 19.3619 4.31659 19.1574 4.00308C18.7249 3.33976 17.8465 3.12647 17.158 3.51787L13.8934 5.37263C13.5007 5.59565 13.2755 6.03019 13.319 6.47956C13.3533 6.83201 13.5443 7.14353 13.8425 7.33403C14.0299 7.45373 14.2428 7.51502 14.4578 7.51502C14.5853 7.51502 14.7136 7.49334 14.8379 7.44997L15.9754 7.05149V7.83451L7.14366 10.6615L5.41855 9.85388L5.34134 9.57908C5.2566 9.27796 4.94397 9.10251 4.64262 9.18724C4.3415 9.27198 4.16627 9.58484 4.251 9.88596L4.39836 10.4103C4.44305 10.5687 4.55434 10.6999 4.70347 10.7699L6.53831 11.6288V12.9499C6.53831 12.951 6.53853 12.9519 6.53853 12.953V14.9336C5.63826 15.0361 4.78157 15.385 4.0521 15.9598C3.01708 16.7751 2.36151 17.9449 2.20619 19.2534C1.8909 21.911 3.76093 24.3338 6.39406 24.7161L5.34399 25.4679C5.07163 25.6628 4.75214 25.7907 4.42026 25.8374L1.48734 26.25C1.17737 26.2936 0.961644 26.5801 1.00523 26.8899C1.04506 27.1729 1.28755 27.3773 1.56544 27.3773C1.59177 27.3773 1.61832 27.3755 1.64509 27.3718L4.57824 26.9591C5.09022 26.8872 5.58317 26.6899 6.00355 26.389L8.14372 24.8568C8.56742 24.5535 9.08604 24.4198 9.60377 24.4816L11.7603 24.7373C12.7201 24.8515 13.6706 24.5329 14.368 23.8636L15.83 22.4606C16.2975 22.0119 16.9339 21.8082 17.5753 21.9017L18.9769 22.1062C19.9137 22.2427 20.8584 21.9624 21.5689 21.3367L22.9433 20.126C23.3464 19.7709 23.738 19.5618 24.0772 19.5202L25.9054 19.4182C25.9156 19.4177 25.9256 19.4169 25.9357 19.4158C26.4946 19.3545 27.0298 19.1467 27.4834 18.8153L29.7669 17.1495C30.0198 16.9652 30.0752 16.6107 29.8909 16.358ZM23.4542 10.7975C23.6029 10.7975 23.7535 10.8064 23.9046 10.8243C25.9855 11.0712 27.4774 12.9649 27.2305 15.0458C26.9836 17.1267 25.089 18.6188 23.0092 18.3717C21.7501 18.2223 20.7073 17.4694 20.1343 16.4372L23.6544 15.1288C23.8392 15.0602 23.975 14.9004 24.0128 14.7068C24.0507 14.5135 23.9852 14.3141 23.84 14.1807L21.0735 11.6405C21.7319 11.1099 22.5654 10.7975 23.4542 10.7975ZM18.0611 15.9746C18.003 15.9007 17.9397 15.831 17.8713 15.7664C17.6571 15.5633 17.3972 15.4082 17.1082 15.3197V9.53705L19.4652 11.7016C18.9847 12.3618 18.6612 13.1497 18.5583 14.0167C18.4864 14.6219 18.5282 15.2148 18.6663 15.7744L18.0769 15.9936C18.0718 15.987 18.0662 15.981 18.0611 15.9746ZM15.878 16.7209C15.9134 16.6505 15.988 16.5857 16.0491 16.5379C16.1172 16.4844 16.1936 16.4432 16.275 16.4138C16.4436 16.3534 16.629 16.3541 16.7982 16.4107C17.1496 16.5284 17.3777 16.8868 17.3379 17.2548C17.3051 17.555 17.0985 17.8179 16.8146 17.921C16.5279 18.0252 16.1986 17.9528 15.9811 17.7393C15.7095 17.4725 15.6641 17.0375 15.878 16.7209ZM19.6831 14.1502C19.757 13.5287 19.9783 12.9603 20.3069 12.4744L22.3924 14.3893L19.738 15.3761C19.6555 14.983 19.6334 14.5708 19.6831 14.1502ZM14.4636 6.38088C14.4603 6.38198 14.4578 6.38287 14.4525 6.37955C14.4472 6.37601 14.447 6.37358 14.4465 6.36981C14.4461 6.36495 14.4485 6.35986 14.453 6.35742L17.7175 4.50289C17.8879 4.40598 18.1111 4.46372 18.2136 4.63033C18.2899 4.75445 18.2636 4.88211 18.2421 5.01531C18.2249 5.12173 18.2187 5.23744 18.1563 5.32904C18.0793 5.44188 17.9609 5.48613 17.8299 5.49321C17.7264 5.49852 17.6228 5.50405 17.5193 5.50958C17.1312 5.53038 16.748 5.59897 16.3774 5.7138C16.3748 5.71469 16.3721 5.71557 16.3694 5.71646C16.3177 5.73261 16.2661 5.74942 16.2148 5.76756L14.4636 6.38088ZM15.9754 15.3197C15.6338 15.4246 15.3205 15.6275 15.0853 15.8967L7.67135 12.5828V11.6821L15.9754 9.02418V15.3197ZM3.33126 19.387C3.45073 18.379 3.95585 17.4778 4.75303 16.8497C5.27983 16.4346 5.8927 16.1724 6.53853 16.0759V17.73C6.53853 18.0429 6.79209 18.2964 7.10494 18.2964C7.41757 18.2964 7.67135 18.0429 7.67135 17.73V16.0782C9.68961 16.3817 11.1207 18.2416 10.8786 20.2824C10.7589 21.2904 10.254 22.1916 9.45663 22.8197C8.65924 23.4479 7.66449 23.7282 6.65713 23.6083C4.57625 23.3616 3.08434 21.4676 3.33126 19.387ZM20.8202 20.4866C20.3597 20.8922 19.7478 21.074 19.1404 20.9853L17.7388 20.7809C16.7489 20.6364 15.7674 20.951 15.0457 21.6433L13.5837 23.0463C13.1316 23.4799 12.5157 23.6864 11.8937 23.6125L10.4671 23.4432C11.3227 22.6487 11.8643 21.5885 12.0035 20.416C12.3241 17.715 10.3872 15.2566 7.68617 14.9361C7.68108 14.9356 7.67621 14.9352 7.67135 14.9347V13.8236L14.6233 16.9313C14.6138 17.009 14.6083 17.088 14.6083 17.1683C14.6083 18.2345 15.4756 19.1018 16.5418 19.1018C17.6078 19.1018 18.4751 18.2345 18.4751 17.1683C18.4751 17.1304 18.4738 17.0928 18.4716 17.0554L19.0625 16.8357C19.675 18.0345 20.7673 18.9655 22.1156 19.3456L20.8202 20.4866Z" fill="#F9F9FA"/>
<path d="M6.82633 20.1273C7.02435 20.2593 7.2903 20.2512 7.48057 20.1089C7.66864 19.9684 7.75139 19.7164 7.68236 19.4918C7.61465 19.271 7.41641 19.1115 7.18631 19.092C6.9478 19.0719 6.71615 19.2115 6.62167 19.4312C6.51458 19.6801 6.60132 19.9757 6.82633 20.1273Z" fill="#F9F9FA"/>
<path d="M19.5672 25.6574C19.3541 25.9092 19.099 25.9371 18.8953 25.901C18.6649 25.8601 18.4322 25.9577 18.3083 26.1559C18.0965 26.4942 18.2926 26.9392 18.6851 27.0119C18.8039 27.0338 18.9287 27.0469 19.0572 27.0469C19.5046 27.0469 19.9938 26.8903 20.4073 26.4181C20.6133 26.1827 20.6153 25.8229 20.3863 25.6097C20.148 25.3875 19.7754 25.4116 19.5672 25.6574Z" fill="#F9F9FA"/>
<path d="M26.8741 22.3443C25.9484 22.0146 25.2809 22.458 25.2077 22.5098C24.9521 22.6903 24.8913 23.0437 25.0718 23.2992C25.1822 23.4554 25.3572 23.5388 25.5349 23.5388C25.648 23.5388 25.7621 23.5052 25.8612 23.4351C25.8637 23.4335 26.119 23.278 26.494 23.4114C26.7885 23.5163 27.1126 23.3625 27.2175 23.0678C27.3226 22.7731 27.1686 22.4492 26.8741 22.3443Z" fill="#F9F9FA"/>
<path d="M25.198 26.6761C25.1082 26.4566 24.8814 26.3143 24.6447 26.3269C24.409 26.3398 24.2019 26.5026 24.1331 26.7281C24.065 26.9518 24.1457 27.1989 24.3303 27.3416C24.5194 27.4881 24.7909 27.4967 24.9896 27.3635C25.2111 27.2153 25.3007 26.9223 25.198 26.6761Z" fill="#F9F9FA"/>
<path d="M12.2569 26.5331C11.9024 26.5008 11.6135 26.5472 11.3823 26.628C10.9539 26.7773 10.8862 27.3563 11.2623 27.6097C11.275 27.6181 11.2873 27.6265 11.2995 27.6347C11.4371 27.7278 11.609 27.7458 11.767 27.6944C11.8588 27.6648 11.9852 27.6457 12.1544 27.6612C12.4649 27.6896 12.7414 27.4599 12.7697 27.1484C12.7981 26.8368 12.5684 26.5614 12.2569 26.5331Z" fill="#F9F9FA"/>
</g>
<defs>
<clipPath id="clip0">
<rect x="1" y="1" width="29" height="29" fill="white"/>
</clipPath>
</defs>
</svg>
