<svg xmlns="http://www.w3.org/2000/svg" width="100" height="79" fill="none" viewBox="0 0 100 79">
    <path fill="#353313" fill-rule="evenodd" d="M11.656 48.983c.856.237 2.49 2.042 3.436 3.077 2.4 2.623 3.745 4.477 6.055 6.972 1.125 1.212 2.25 2.958 3.436 3.244 1.484.355 3.665-.03 5.408-.158 5.487-.434 10.546-.67 15.386-1.46 5.348 5.128 11.005 9.654 17.19 14.27 1.503 1.124 4.541 4.309 6.553 4.052 1.494-.197 3.227-4.141 4.252-5.67 4.173-6.192 7.958-12.306 11.623-18.48 3.754-6.32 7.538-12.168 11.293-18.646.647-1.124 3.546-5.404 3.436-6.646-.07-.78-1.813-2.288-2.62-3.077-5.178-5.157-9.55-9.102-14.878-13.628-1.115-.947-4.99-4.753-6.713-4.861-1.414-.09-3.535 1.43-5.238 1.942C64.2 11.748 58.852 13.1 53.733 15.27 47.449 11.275 42.679 5.783 37.191 1c-.229.04-.279.266-.488.325-3.974.71-7.708 1.657-11.134 2.92-5.747 8.322-10.308 17.453-15.228 26.259-1.683 3.017-2.947 6.31-4.58 9.407-1.724 3.235-4.333 5.907-4.751 9.89 3.983.79 6.822-1.853 10.646-.818z" clip-rule="evenodd"/>
    <path fill="#fff" fill-rule="evenodd" d="M37.191 3.268c.777.631 1.484 1.341 2.131 2.11-2.23 3.195-3.376 7.475-7.857 8.431 1.922-3.51 3.884-6.971 5.726-10.54z" clip-rule="evenodd"/>
    <path fill="#fff" fill-rule="evenodd" d="M47.18 12.675c-5.477-.079-7.05 4.566-11.462 5.187-2.002.286-4.064-.75-6.225-.325.27-1.085.976-1.736 1.305-2.751 4.63-.543 6.135-4.201 8.356-7.13 2.001 1.746 3.844 3.649 6.383 4.862-1.135-1.963-3.754-3.856-5.726-5.513-.05-.266.16-.276.16-.483.238-.187.417-.187.656 0 1.903 2.327 4.203 4.27 6.553 6.153zM86.966 20.781c-.587.326-.956-.493-1.314-.809-3.148-2.8-7.101-5.916-10.318-8.756.11-.542.508-.789.657-1.302.19-.03.29.04.329.158 2.978 2.426 5.617 4.98 8.515 7.623.847.769 2.32 1.597 2.131 3.086z" clip-rule="evenodd"/>
    <path fill="#40A3A3" fill-rule="evenodd" d="M73.054 10.723c-.578 1.114-2.131 1.37-3.276 1.785-3.416 1.242-7.669 2.258-10.806 4.053 4.302-.444 8.535-2.357 12.608-3.57-.717 1.726-2.6 3.274-4.252 5.029-1.614 1.706-3.406 4.26-5.727 4.536-3.695.444-5.428-2.465-9.331-2.593.458-1.233 1.483-1.884 1.961-3.077 6.932-1.39 12.22-4.428 18.823-6.163z" clip-rule="evenodd"/>
    <path fill="#fff" fill-rule="evenodd" d="M23.766 11.216c2.011.818 2.54 3.106 4.422 4.053-.27.917-.787 1.597-1.146 2.435-2.022-1.084-2.49-3.697-3.934-5.354.339-.266.419-.78.658-1.134z" clip-rule="evenodd"/>
    <path fill="#40A3A3" fill-rule="evenodd" d="M87.135 44.93c.349-.532-.946.73-1.145.977-.996 1.242-1.643 2.889-2.62 4.378-2.579 3.954-5.895 8.382-8.514 12.326-6.474 1.795-9.57-3.846-13.913-5.67-3.177-1.341-7.917.01-10.646-2.268 1.723-4.832 4.63-8.5 6.882-12.81.776 1.44 1.155 2.604.816 4.211-.229 1.095-1.235 1.834-1.314 2.751-.16 1.982 1.503 2.643 2.788 3.895 4.083 1.667 6.832 5.099 10.806 6.321 4.66 1.44 6.632-3.52 7.857-6.971.937-2.633 2.64-4.024 2.291-7.297-.309-2.988-2.38-6.154-4.422-7.623-1.065-.76-2.739-1.075-2.948-2.751-.338-2.692 2.35-4.28 2.62-6.163.229-1.617-.827-2.781-1.803-2.92-2.042-.285-2.24 1.934-3.765 2.111-1.703.197-2.091-1.834-3.764-.976 2.719-4.881 5.557-9.624 8.346-14.427 4.063 3.383 8.106 6.785 11.791 10.542-.677 4.625-7.47 5.64-8.027 10.048-.08.67-.04 1.48.329 2.268 2.29 4.94 9.89-.927 14.241 2.268-2.978 5.897-6.712 11.823-10.317 17.67-1.654 2.693-2.998 5.365-5.408 6.972 2.56-5.69 7.38-10.54 9.84-16.862z" clip-rule="evenodd"/>
    <path fill="#F7D441" fill-rule="evenodd" d="M22.462 13.326c1.763 1.223 2.091 3.875 4.252 4.704-.687 1.637-1.474 2.83-2.29 4.378-.638 1.203-1.136 3.067-2.29 4.378-.867.986-2.84 1.617-3.935 2.436-.946.71-1.912 2.051-3.107 3.077-1.384 1.193-4.87 2.81-4.262 5.67.378 1.794 2.599 1.903 4.75 1.46-.627.946-1.046 2.1-1.803 2.918-2.34-.237-4.989-1.203-7.2-.158 4.99-9.93 10.527-19.317 15.885-28.863z" clip-rule="evenodd"/>
    <path fill="#7A9B31" fill-rule="evenodd" d="M51.601 16.728c-.677 1.223-1.324 2.475-2.29 3.402-3.277-.69-5.14-1.567-7.53.158-1.961 1.41-2.868 4.576-5.238 4.862-3.575.433-6.095-3.136-10.317-1.46.766-1.943 1.892-3.53 2.778-5.354 1.932-.77 3.924.384 6.384.167 3.894-.355 5.497-3.382 8.674-4.378 4.173-1.292 5.179.966 7.54 2.603z" clip-rule="evenodd"/>
    <path fill="#fff" fill-rule="evenodd" d="M69.29 17.211c-1.355 3.472-4.074 6.992-5.896 10.542-1.683.986-3.197 2.13-6.055 1.942-2.849-1.715-2.042-8.253-7.37-6.488.528-.888 1.016-1.805 1.633-2.594 4.531-.532 5.488 3.195 9.989 2.762 3.695-.355 5.02-4.014 7.698-6.164z" clip-rule="evenodd"/>
    <path fill="#F7D441" fill-rule="evenodd" d="M48.982 20.939c-3.515 6.577-8.087 12.1-11.791 18.48-.448-3.354-.817-6.39-2.62-8.59-1.185-1.45-7.05-4.703-10.317-3.076.16-.612.468-1.736.986-2.268 2.818-2.9 6.443-.02 9.989.483 5.587.808 4.77-6.469 10.477-5.838 1.175.128 2.19 1.006 3.276.809zM88.281 20.939c3.217 2.919 6.105 6.163 9.332 9.082-1.325 2.15-2.779 4.17-3.934 6.488-1.832-1.134-4.173-1.43-6.882-1.134-1.384.148-2.57.947-3.605.976-2.091.05-3.973-1.558-4.093-3.076-.21-2.613 3.227-4.162 4.91-5.512 1.673-1.342 2.44-2.86 3.436-4.537 2.788 1.835 4.402 4.832 7.37 6.489-1.335-3.432-4.8-5.62-6.713-7.948-.12-.473.249-.434.18-.828zm5.239 12.484c.976.562 2.071-.602 1.633-1.46-1.145-.118-1.315.75-1.633 1.46z" clip-rule="evenodd"/>
    <path fill="#fff" fill-rule="evenodd" d="M50.456 24.34h1.803c2.23 1.44 1.932 6.134 5.079 6.815 1.633.345 3.137-.493 4.422-1.302.229.552-.747 1.312-.986 1.943-1.275.325-1.883.72-3.277.65-4.462-.226-5.308-4.812-7.04-8.105z" clip-rule="evenodd"/>
    <path fill="#7A9B31" fill-rule="evenodd" d="M65.683 53.855c.847 1.44 2.152 2.416 3.436 3.402 5.647 1.094 5.537-3.62 6.882-7.13.757-1.982 2.5-3.422 1.474-5.995-.498-1.233-2.171-3.471-2.948-4.379-1.404-1.646-4.183-2.208-4.093-4.703.06-1.864 3.296-4.881.329-5.512-.747-.158-1.385.473-2.291.483-1.534.01-3.008-1.085-3.934-.326.657-1.183 1.275-2.031 2.46-2.11 1.085-.069 1.962.996 2.948.976 1.922-.049 2.171-2.297 4.093-1.617.896 1.42-.807 2.298-1.314 3.244-.737 1.38-1.385 3.797-.658 5.513.787 1.844 3.486 2.258 5.08 4.378 1.145 1.528 2.678 4.023 2.13 6.814-.179.887-1.384 2.189-1.802 3.244C76 53.864 75.872 58.864 71.09 58.4c-1.484-.148-3.754-1.311-5.238-2.11-1.863-.996-3.048-2.919-4.422-3.727-1.484-.878-3.934-1.37-3.934-3.402 0-1.184 1.335-1.953 1.474-3.57.17-2.06-.727-3.353-.986-5.029 3.107 1.075.936 6.44 2.131 9.24.608 1.43 2.251 1.183 3.605 1.942-.468-1.153-2.25-1.015-2.947-1.942-.359-3.866.368-8.786-1.962-10.7 1.713-2.573 3.157-5.413 4.91-7.947 2.061-1.115 4.75.138 7.04-.326-.288 2.071-2.26 3.53-.985 6.163.667 1.38 2.5 2.012 3.764 3.402 1.225 1.351 3.257 3.886 3.277 5.355.01 1.035-1.056 2.317-1.474 3.402-1.116 2.899-.448 6.301-2.948 7.297-3.297 1.312-5.04-1.36-6.713-2.593zm-1.474-.81c.668.06 1.146-.058 1.146-.65-.27-.986-1.853-.276-1.145.65z" clip-rule="evenodd"/>
    <path fill="#fff" fill-rule="evenodd" d="M35.717 41.696c.27-8.313-5.935-14.476-13.594-10.216.398-.897.896-1.706 1.315-2.593 3.007-1.233 5.477.138 8.515 1.134.338.108 2.081 1.528 2.29 1.784 1.126 1.4 1.952 4.172 2.131 6.489.09 1.124.21 2.495-.657 3.402zM20.818 28.887c-1.185 2.77-3.077 6.241-4.581 9.24-1.594.61-4.442 1.429-4.75-.484-.27-1.696 2.44-3.185 3.933-4.378 2.022-1.627 2.67-3.353 5.398-4.378z" clip-rule="evenodd"/>
    <path fill="#40A3A3" fill-rule="evenodd" d="M26.884 55.146c-.26-3.45 2.3-7.06 2.778-10.54.439-3.127-1.065-6.864-3.436-7.298-3.774-.69-4.093 3.333-8.186 2.761 1.066-2.13 1.972-4.428 2.948-6.646 3.406-1.509 7.31-3.383 10.477-.976 2.729 2.08 2.778 6.29 3.436 10.54-2.739 3.995-5.767 7.692-8.017 12.16z" clip-rule="evenodd"/>
    <path fill="#fff" fill-rule="evenodd" d="M56.023 38.935c-.986.513-2.042-.108-3.107-.168-3.227-.167-7.3.632-9.501 2.11-1.952 1.312-3.237 4.27-6.225 2.92.578-.809 1.674-.888 2.46-1.46 2.869-2.1 4.044-4.95 8.187-5.187 2.748-.157 6.154.661 8.186 1.785zM25.24 57.414c-1.364-3.46.07-6.873.817-9.89.399-1.588 1.106-3.53.986-4.704-.19-1.765-2.23-3.185-4.75-2.593-1.763.414-2.938 3.264-5.567 2.11.518-1.667 2.091-1.045 3.605-1.46 2.051-.571 3.157-2.613 5.079-2.593 2.3.02 3.725 3.382 3.605 5.67-.16 3.047-2.34 6.646-2.779 10.048-.179 1.322.359 2.692-.995 3.412zM13.45 43.156c-.409.838-.937 1.558-1.315 2.435-2.44-.305-5.308.217-7.698.483.886-3.411 5.198-4.2 9.012-2.918zM11.327 46.557c-2.54.67-5.597.829-8.186 1.46 1.284-1.913 5.557-.878 8.186-1.46zM39.323 53.362c-.638.986-3.038 1.025-3.436-.326.876-.838 3.266-1.558 3.436.326zM66.34 64.07c2.152 2.446.28 6.746-2.29 6.805-.737-1.184 2.002-2.09.986-4.053-1.524-2.219-4.67 1.321-5.726-.651 2.21-.819 3.674-2.396 7.03-2.1zM56.193 66.822c.807-.464 2.151-.08 2.46.483-.866.69-1.942.079-2.46-.483z" clip-rule="evenodd"/>
    <path fill="#fff" fill-rule="evenodd" d="M64.38 67.147c.159 1.4-.797 1.706-1.146 2.593-1.006-.572-1.742-1.4-2.46-2.268.927-.463 2.48-1.015 3.606-.325zM62.078 70.224c-.13.414-.677.414-.986.65-1.045-.749-2.52-1.932-2.947-2.75 2.011-.622 2.51 1.617 3.933 2.1zM63.393 71.2c-.15.74-1.135.966-1.633.483.458-.315 1.095-.71 1.633-.483zM33.925 3.436c-1.414 3.352-3.446 7.504-5.238 11.024-1.923-.858-2.65-2.89-4.422-3.895.697-1.903 1.902-3.303 2.46-5.345 2.35-.64 4.75-1.242 7.2-1.784z" clip-rule="evenodd"/>
    <path fill="#7A9B31" fill-rule="evenodd" d="M59.958 32.772c-.677 1.647-2.26 3.816-3.436 5.512-2.58-1.213-5.636-2.13-8.843-1.942-4.621.266-6.673 4.053-9.501 5.837 2.808-4.131 5.248-8.736 8.027-13.134.826-1.312 1.683-3.264 3.605-3.402 1.454 2.465 2.19 5.827 5.079 7.129 1.185.542 3.416.77 5.07 0z" clip-rule="evenodd"/>
    <path fill="#40A3A3" fill-rule="evenodd" d="M36.703 44.447c3.515 1.588 5.049-1.42 6.881-2.75 2.759-2.022 7.808-2.338 11.951-1.944-2.689 4.477-5.059 9.25-7.857 13.618-2.54-1.015-3.197-4.27-5.727-5.512-1.852-.907-3.934-1.47-6.224-1.785 1.533 1.627 3.684 1.588 5.567 2.436 2.659 1.193 3.366 4.437 5.726 5.838-.338.858-.866 1.518-1.304 2.268-5.19.542-10.587.867-15.556 1.617 4.9.927 10.496-.178 15.068-.65-.698 1.34-2.978 1.044-4.75 1.3-3.915.553-9.183.947-13.754 1.302 3.316-5.265 6.612-10.541 9.979-15.738zM34.9 52.878c-.528 2.742 4.91 2.673 5.08.326.089-1.233-.638-1.785-1.963-1.785-1.354.01-2.898.325-3.117 1.46z" clip-rule="evenodd"/>
    <path fill="#fff" fill-rule="evenodd" d="M21.964 41.203c-.16.602-1.225 1.706-2.46 1.785.816-.602 1.723-1.114 2.46-1.785z" clip-rule="evenodd"/>
    <path fill="#fff" fill-rule="evenodd" d="M13.946 47.208c.777-1.124 1.235-2.554 2.132-3.57 1.513-.433 2.18.129 3.435 0 3.028-.315 4.243-4.26 6.553-.808-.169 3.718-2.878 6.863-2.778 10.7.05 2.06 1.195 3.776 1.305 5.67-3.865-3.689-7.141-7.949-10.647-11.992zm8.844 8.915c-2.211-2.574-3.615-5.927-6.712-7.623 1.623 3.037 3.874 6.321 6.712 7.623z" clip-rule="evenodd"/>
    <path fill="#40A3A3" fill-rule="evenodd" d="M77.634 62.443c-2.41 4.477-5.746 9.447-8.515 14.101-2.141-1.124-3.924-2.593-5.896-3.895.568-.927 1.464-.522 2.132 0 .09-.572-.14-.838-.488-.976 1.643-1.203 3.625-2.731 3.276-5.512-.1-.819-.807-1.37-.657-2.436-2.39-2.633-7.14 1.775-9.003 1.617-1.375-.118-3.207-2.544-4.253-3.402-1.543-1.252-2.898-2.169-4.421-3.076 1.523 2.712 4.8 4.546 6.383 6.646-.727.128-.986-.217-1.633-.168-2.101-2.08-4.312-4.052-6.553-5.995.368-1.48 1.255-2.426 1.633-3.895 2.968.76 4.093 1.203 7.53 1.46 7.01.512 9.152 7.918 17.03 6.646-1.853 3.52-4.263 6.478-5.897 10.215 1.425.05 1.713-1.538 2.291-2.435 1.703-2.623 3.944-5.355 5.567-8.264.518-.167 1.126-.276 1.474-.63z" clip-rule="evenodd"/>
</svg>
