<svg width="36" height="36" viewBox="0 0 36 36" fill="none" xmlns="http://www.w3.org/2000/svg">
<path d="M26 2H10C5.58172 2 2 5.58172 2 10V26C2 30.4183 5.58172 34 10 34H26C30.4183 34 34 30.4183 34 26V10C34 5.58172 30.4183 2 26 2Z" stroke="white" stroke-width="2" stroke-linecap="round" stroke-linejoin="round"/>
<path d="M23.9351 17.1199C24.1202 18.3683 23.907 19.6432 23.3257 20.7634C22.7445 21.8836 21.8248 22.792 20.6975 23.3594C19.5703 23.9268 18.2928 24.1243 17.0468 23.9238C15.8008 23.7233 14.6497 23.135 13.7574 22.2426C12.865 21.3503 12.2767 20.1992 12.0762 18.9532C11.8757 17.7072 12.0732 16.4297 12.6406 15.3025C13.208 14.1752 14.1164 13.2555 15.2366 12.6743C16.3568 12.093 17.6317 11.8798 18.8801 12.0649C20.1535 12.2537 21.3324 12.8471 22.2426 13.7574C23.1529 14.6676 23.7463 15.8465 23.9351 17.1199Z" stroke="white" stroke-width="2" stroke-linecap="round" stroke-linejoin="round"/>
</svg>
