<svg width="36" height="36" viewBox="0 0 36 36" fill="none" xmlns="http://www.w3.org/2000/svg">
<path d="M32.9318 10.0951C32.7636 9.42275 32.4208 8.80672 31.9383 8.30924C31.4557 7.81176 30.8504 7.45043 30.1835 7.26175C27.7468 6.66675 18.0002 6.66675 18.0002 6.66675C18.0002 6.66675 8.25349 6.66675 5.81683 7.31841C5.14993 7.50709 4.54463 7.86842 4.06207 8.36591C3.57951 8.86339 3.23678 9.47941 3.06849 10.1517C2.62255 12.6246 2.40441 15.1332 2.41683 17.6459C2.40093 20.1776 2.61908 22.7053 3.06849 25.1967C3.25402 25.8482 3.60443 26.4408 4.08586 26.9173C4.5673 27.3937 5.16349 27.738 5.81683 27.9167C8.25349 28.5684 18.0002 28.5684 18.0002 28.5684C18.0002 28.5684 27.7468 28.5684 30.1835 27.9167C30.8504 27.7281 31.4557 27.3667 31.9383 26.8693C32.4208 26.3718 32.7636 25.7558 32.9318 25.0834C33.3743 22.6292 33.5925 20.1397 33.5835 17.6459C33.5994 15.1143 33.3812 12.5866 32.9318 10.0951V10.0951Z" stroke="white" stroke-width="2" stroke-linecap="round" stroke-linejoin="round"/>
<path d="M14.8125 22.2784L22.9583 17.6459L14.8125 13.0134V22.2784Z" stroke="white" stroke-width="2" stroke-linecap="round" stroke-linejoin="round"/>
</svg>
