<svg xmlns="http://www.w3.org/2000/svg" width="370" height="231" fill="none" viewBox="0 0 370 231">
    <g fill="#F9F9FA" clip-path="url(#prefix__clip0)">
        <path d="M52.201 150.824c-1.405 4.215-3.145 8.187-5.187 11.838-.51.754-.794 1.76-.794 2.807s.284 2.053.794 2.808c.525.738 1.234 1.153 1.973 1.153.739 0 1.448-.415 1.973-1.153 2.392-4.137 4.44-8.653 6.103-13.459 1.505-4.573-3.296-8.596-4.862-3.994zM57.936 140.089c-.701.085-1.354.541-1.83 1.278-.475.737-.739 1.701-.739 2.702 0 1 .264 1.964.74 2.701.475.737 1.128 1.193 1.829 1.278.7-.085 1.353-.541 1.828-1.278.476-.737.74-1.701.74-2.701 0-1.001-.264-1.965-.74-2.702-.475-.737-1.128-1.193-1.828-1.278zM137.757 118.408l-11.208 27.756c-.372.91-.475 1.993-.287 3.01.189 1.018.654 1.887 1.294 2.417.639.53 1.4.676 2.115.408.716-.269 1.327-.931 1.699-1.841l11.208-27.727c.186-.45.307-.948.358-1.466.05-.517.028-1.043-.064-1.548-.093-.506-.254-.98-.476-1.396-.221-.417-.498-.767-.815-1.031-.316-.264-.666-.437-1.03-.509-.363-.072-.733-.041-1.088.091-.355.132-.689.361-.981.676-.293.316-.539.71-.725 1.16zM121.789 156.991c-1.998 3.531-3.781 7.298-5.329 11.259-1.709 4.486 3.092 8.48 4.821 3.994 1.291-3.386 2.781-6.61 4.455-9.638.5-.761.779-1.765.779-2.807 0-1.043-.279-2.046-.779-2.808-.528-.732-1.236-1.141-1.974-1.141-.737 0-1.445.409-1.973 1.141zM161.049 111.926c-2.078 6.32-4.513 12.389-7.283 18.147-2.034 4.197 2.767 8.191 4.801 3.994 2.818-5.736 5.295-11.796 7.405-18.118 1.423-4.602-3.377-8.625-4.923-4.023zM217.01 162.922l-15.114 31.287c-2.034 4.139 2.034 9.494 4.069 5.268l15.113-31.287c2.096-4.139-2.034-9.494-4.068-5.268zM237.372 161.851l-2.237 5.557c-.373.91-.476 1.993-.287 3.01.189 1.018.654 1.888 1.294 2.417.639.53 1.4.676 2.115.408.715-.269 1.326-.931 1.699-1.84.732-1.853 1.485-3.676 2.237-5.529.375-.909.481-1.994.294-3.014-.187-1.02-.651-1.893-1.29-2.427-.64-.533-1.402-.684-2.119-.418-.717.266-1.331.927-1.706 1.836zM92.334 196.614c-3.824 8.779-7.641 17.539-11.452 26.28-1.892 4.371 2.807 8.683 4.699 4.313l11.432-26.309c.347-.881.446-1.918.274-2.898-.171-.981-.599-1.831-1.196-2.378-.597-.547-1.319-.749-2.017-.564-.698.184-1.32.741-1.74 1.556zM73.742 209.435c-1.497 2.095-2.65 4.635-3.376 7.439-.1.501-.128 1.026-.085 1.543.044.518.159 1.018.338 1.472.18.455.42.854.709 1.176.287.322.617.56.97.7.725.248 1.49.085 2.131-.456.642-.54 1.11-1.415 1.307-2.438.464-1.511 1.159-2.856 2.034-3.937 2.482-3.473-1.465-9.088-4.028-5.499z"/>
        <path d="M369.493 223.068c-20.118-41.272-40.684-82.4-62.632-121.705-5.798-10.39-16.701-37.134-27.869-36.208-13.466 1.1-26.159 26.049-34.316 42.575-5.696-15.436-11.758-30.583-18.186-45.44-8.238-19.016-18.552-47.177-33.076-58.118-10.496-7.901-19.385 7.7-25.59 18.06-12.673 21.13-23.149 45.036-33.299 68.683-6.489 15.137-12.795 30.477-18.816 45.99-8.066-15.282-17.527-28.967-28.133-40.694-5.024-5.267-12.205-12.04-18.796-9.696-5.41 1.91-9.398 9.957-12.673 15.716-21.013 37.105-37.937 79.767-54.72 120.866-.374.91-.48 1.994-.293 3.015.187 1.02.651 1.893 1.29 2.427.64.533 1.402.683 2.12.417.716-.266 1.33-.926 1.705-1.836 14.524-35.657 29.577-71.199 46.277-104.86 3.599-7.891 7.683-15.31 12.206-22.171l-9.724 20.261c-1.017 2.112 1.404 4.081 2.42 1.997l13.182-27.38c1.01-.308 2.05-.357 3.072-.145-4.692 10.535-9.398 21.07-14.117 31.606-.956 2.17 1.444 4.138 2.42 1.997l14.524-32.62c1.276.715 2.501 1.597 3.662 2.635l-15.5 34.731c-.977 2.171 1.444 4.168 2.4 1.997l15.44-34.731 2.033 2.142.855.955-16.274 39.333c-.152.453-.178.971-.074 1.451.104.479.332.885.637 1.137s.666.331 1.01.221c.344-.109.647-.399.848-.812l16.11-38.87c.875 1.013 1.75 2.026 2.605 3.068l-17.047 42.141c-.144.448-.166.956-.062 1.426.103.47.325.869.623 1.12.298.251.65.337.99.241.34-.096.642-.367.85-.761l16.7-41.186c1.607 2.084 3.173 4.226 4.72 6.454l-15.48 40.144c-.855 2.258 1.545 4.255 2.4 1.997l15.113-39.16c1.18 1.737 2.319 3.502 3.459 5.326l-12.043 31.837c-.854 2.258 1.566 4.255 2.4 1.997l11.616-30.679c1.058 1.765 2.034 3.531 3.153 5.325l-8.666 23.762c-.814 2.258 1.587 4.284 2.421 1.997l8.136-22.401c1.099 1.939 2.177 3.907 3.235 5.788-5.262 13.256-10.544 26.512-15.846 39.768-.375.909-.481 1.994-.294 3.014.187 1.021.651 1.894 1.29 2.427.64.534 1.402.684 2.119.418.717-.266 1.331-.926 1.706-1.836l16.782-42.083c6.611-17.366 13.629-34.327 20.83-51.171 11.106-25.876 22.579-54.79 38.161-76.005l-27.95 60.78c-.997 2.171 1.424 4.14 2.4 2.027l32.344-70.216c1.567-1.124 3.372-1.382 5.065-.724l-30.818 66.887c-.997 2.142 1.424 4.14 2.4 2.027l31.001-67.322c.705.6 1.384 1.256 2.035 1.968l-29.008 63.327c-.976 2.171 1.444 4.14 2.421 2.027l28.641-62.749c.549.695 1.058 1.447 1.566 2.17l-26.627 64.833c-.092.224-.152.472-.177.73-.025.257-.014.519.032.77.047.251.127.487.238.694.11.207.248.381.405.512.158.131.332.217.513.252.181.036.365.02.542-.046.176-.066.342-.18.487-.337.146-.157.268-.353.36-.578l26.262-63.906c.935 1.428 1.851 2.875 2.746 4.341l-23.434 59.073c-.152.453-.178.971-.074 1.45.104.48.331.886.637 1.138.305.252.665.33 1.01.221.344-.11.647-.4.848-.812 7.648-19.295 15.29-38.59 22.925-57.886.997 1.766 2.034 3.59 2.929 5.413l-20.342 53.92c-.854 2.258 1.546 4.255 2.401 1.997l19.833-52.328 2.4 4.92-17.677 46.974c-.834 2.258 1.567 4.284 2.421 2.026l17.006-45.238c.63 1.332 1.24 2.663 1.851 3.995l-15.135 43.79c-.793 2.287 1.607 4.284 2.401 1.997l14.463-41.822 2.542 5.788-13.303 37.626c-.814 2.258 1.607 4.284 2.4 1.997L221.1 64.982c.793 1.794 1.606 3.588 2.379 5.412-3.62 11.442-7.255 22.884-10.903 34.326-.732 2.316 1.668 4.342 2.401 2.026 3.417-10.728 6.807-21.466 10.171-32.213.773 1.794 1.525 3.618 2.278 5.441l-8.137 28.943c-.671 2.373 2.034 3.415 2.685 1.071l7.201-25.672c.814 1.939 1.587 3.936 2.38 5.788-1.831 6.975-3.661 13.922-5.472 20.897-.63 2.373 2.034 3.415 2.685 1.042 1.526-5.789 3.031-11.577 4.557-17.366l1.22 3.097c-.956 4.428-2.034 8.857-2.888 13.285-.529 2.431 2.156 3.473 2.685 1.042l2.034-9.494 1.831 4.921-.956 4.312c-.529 2.46 2.156 3.502 2.705 1.071v-.434l.977 2.634-15.969 34.095c-2.034 4.254 2.828 8.249 4.821 4.023 5.642-11.983 11.27-23.955 16.884-35.918 4.191-8.365 15.094-31.462 25.143-40.52-6.686 12.503-13.392 24.987-20.118 37.452-1.079 2.026 1.342 3.994 2.42 1.997l22.966-42.75c1.387-.522 2.845-.522 4.231 0-7.648 14.337-15.283 28.674-22.905 43.01-1.098 2.026 1.323 4.023 2.401 1.997l23.149-43.038c.787.792 1.528 1.673 2.217 2.634l-19.691 40.954c-1.017 2.113 1.383 4.11 2.4 1.997l19.142-40.028c.692 1.158 1.404 2.315 2.034 3.502l-17.718 34.529c-1.078 2.055 1.343 4.052 2.401 1.997l17.087-33.284c.793 1.418 1.526 2.894 2.176 3.878l-14.239 27.293c-1.078 2.055 1.343 4.023 2.401 1.997l13.771-26.048 2.034 3.675c-3.763 7.584-7.608 15.109-11.167 22.894-.855 1.882 1.139 4.11 2.196 2.403.076-.132.138-.278.183-.434 3.357-7.381 6.998-14.472 10.578-21.737.651 1.129 1.302 2.229 1.933 3.358l-9.195 20.115c-.997 2.142 1.424 4.11 2.421 1.997l8.747-18.697 2.258 4.11-6.998 17.742c-.895 2.229 1.526 4.255 2.4 1.997l6.449-16.353c.692 1.303 1.404 2.576 2.034 3.879l-5.513 13.516c-.092.224-.152.472-.177.729-.025.258-.014.52.033.771.046.251.127.487.237.694.11.207.248.381.406.512.157.131.332.217.513.252.18.036.364.02.541-.046.177-.066.342-.181.488-.338.145-.157.268-.353.36-.577l4.983-12.272 1.567 2.895-4.068 9.869c-.152.453-.179.971-.075 1.451.105.479.332.885.637 1.137s.666.331 1.01.221c.345-.109.647-.399.848-.812l3.479-8.422c.671 1.244 1.322 2.518 2.034 3.791l-2.645 6.889c-.854 2.257 1.546 4.254 2.401 1.997.671-1.766 1.363-3.531 2.034-5.326l1.241 2.345c-.326.839-.631 1.707-.936 2.576-.814 2.257 1.587 4.283 2.4 1.997l.387-1.071c14.585 27.785 28.722 56.004 42.595 84.484 2.116 4.168 6.957.203 4.903-4.023z"/>
    </g>
    <defs>
        <clipPath id="prefix__clip0">
            <path fill="#fff" d="M0 0H369V227H0z" transform="translate(1 2)"/>
        </clipPath>
    </defs>
</svg>
