<svg width="45" height="45" viewBox="0 0 45 45" fill="none" xmlns="http://www.w3.org/2000/svg">
<g clip-path="url(#clip0)">
<path d="M29.1897 12.4693C29.7833 12.4693 30.2646 11.988 30.2646 11.3944C30.2646 10.8007 29.7833 10.3195 29.1897 10.3195C28.596 10.3195 28.1148 10.8007 28.1148 11.3944C28.1148 11.988 28.596 12.4693 29.1897 12.4693Z" fill="#C33D00"/>
<path d="M22.7402 12.4693C23.3339 12.4693 23.8151 11.988 23.8151 11.3944C23.8151 10.8007 23.3339 10.3195 22.7402 10.3195C22.1466 10.3195 21.6653 10.8007 21.6653 11.3944C21.6653 11.988 22.1466 12.4693 22.7402 12.4693Z" fill="#C33D00"/>
<path d="M33.9006 22.5448C33.8012 21.8905 33.6054 21.2547 33.3194 20.658C33.3123 20.6375 33.3036 20.6177 33.2936 20.5985C33.0406 20.0828 32.7233 19.6011 32.3491 19.1653L31.9865 19.4763C32.7313 18.4889 33.1339 17.2855 33.1331 16.0487V15.8574C33.1209 15.6854 33.1173 15.5099 33.1159 15.3321H33.1345C34.7176 15.3321 36.001 14.0488 36.001 12.4657C36.001 10.8826 34.7176 9.59928 33.1345 9.59928V6.01625C33.1309 3.24737 30.8872 1.00358 28.1183 1H16.0399C15.6441 0.999821 15.3231 1.3205 15.3229 1.71625C15.3228 1.82759 15.3487 1.93732 15.3985 2.03693L16.9535 5.147C17.3212 5.89057 17.9951 6.43654 18.7988 6.64185V9.60287C17.4957 9.60779 16.3599 10.4909 16.0341 11.7527H11.0236C8.25321 11.7642 6.01677 14.0194 6.02833 16.7898C6.03782 19.0752 7.59089 21.0652 9.80538 21.6297C7.87225 22.9662 6.72003 25.1679 6.72397 27.518V43.2834C6.72397 43.6791 7.04483 44 7.44058 44H38.2547C38.6504 44 38.9713 43.6791 38.9713 43.2834V28.2346C38.958 25.3306 36.7839 22.8911 33.9006 22.5448ZM33.1309 11.0361C33.9225 11.0361 34.5642 11.6777 34.5642 12.4693C34.5671 12.8499 34.4153 13.2154 34.1435 13.4819C33.8757 13.7517 33.5111 13.9031 33.1309 13.9025V11.0361ZM31.6977 6.73644V14.5718C31.6676 15.017 31.6676 15.4638 31.6977 15.909V16.0523C31.7008 17.195 31.246 18.2914 30.4351 19.0965C29.955 19.5796 29.3648 19.9388 28.7152 20.1434C28.2888 20.2816 27.8435 20.3519 27.3952 20.352H24.5288C23.2608 20.347 22.0586 19.7866 21.2396 18.8184C20.6068 18.0639 20.2513 17.1157 20.232 16.1312V6.73644H31.6977ZM28.2222 21.7207V23.2184C28.2222 24.4057 27.2597 25.3682 26.0724 25.3682C24.885 25.3682 23.9225 24.4057 23.9225 23.2184V21.7436C24.1247 21.7684 24.3281 21.7823 24.5317 21.7852H27.3981C27.674 21.7835 27.9494 21.7619 28.2222 21.7207ZM18.2355 4.50994L17.1993 2.4368H28.1147C29.8167 2.43895 31.2833 3.63613 31.6261 5.30322H30.0388L28.8205 3.47229L27.626 4.27131L28.3168 5.30681H26.4536L25.2354 3.47588L24.0429 4.27131L24.7337 5.30681H22.8706L21.6523 3.47588L20.4599 4.27131L21.1507 5.30681H19.5154C18.9717 5.30735 18.4751 4.99813 18.2355 4.50994ZM18.7988 11.0361V13.9025C18.4164 13.9032 18.0498 13.7498 17.7819 13.4768C17.5123 13.2113 17.3621 12.8477 17.3656 12.4693C17.3656 11.6777 18.0073 11.0361 18.7988 11.0361ZM16.032 13.1859C16.1537 13.6819 16.4098 14.1346 16.7722 14.4944C17.3082 15.0345 18.0379 15.3375 18.7988 15.3357V16.1448C18.8204 17.2397 19.1535 18.3058 19.7591 19.2183C19.4694 19.5704 19.215 19.9501 18.9994 20.352H14.54C16.5153 18.4095 16.5421 15.2335 14.5997 13.2582C14.5757 13.2338 14.5516 13.2097 14.5271 13.1859H16.032ZM7.44058 16.7689C7.44157 14.7901 9.04659 13.1867 11.0254 13.1877C13.0042 13.1887 14.6076 14.7937 14.6066 16.7725C14.6058 18.3399 13.5863 19.7249 12.0899 20.1914C11.7449 20.2995 11.3852 20.3536 11.0236 20.3519C9.04578 20.3496 7.443 18.7468 7.44058 16.7689ZM13.1734 42.5668H8.15719V27.518C8.14689 24.3622 10.6968 21.7955 13.8527 21.7852C13.8651 21.7852 13.8776 21.7852 13.89 21.7852H15.4666L15.8249 23.409C14.1734 24.4577 13.1731 26.2783 13.1734 28.2346V42.5668ZM16.7565 42.5668H14.6066V28.2346C14.6075 26.9567 15.1785 25.7456 16.1638 24.9318L16.7565 27.5969V42.5668ZM20.3395 42.5668H18.1897V27.518C18.1897 27.4655 18.184 27.4131 18.1725 27.3618L16.9335 21.7852H18.4047C17.7376 24.2377 18.4823 26.8579 20.3395 28.593V42.5668ZM23.2059 42.5668H21.7727V29.8542C22.6938 30.8661 23.2048 32.1849 23.2059 33.5533V42.5668ZM30.372 42.5668H28.9388V33.5304C28.9435 32.1695 29.4544 30.8591 30.372 29.8542V42.5668ZM30.6801 27.6829C30.6488 27.7044 30.6191 27.7285 30.5913 27.7545C30.5094 27.8273 30.4235 27.8956 30.334 27.9588C28.5542 29.2662 27.5038 31.3435 27.5056 33.5519V42.5668H24.6391V33.5304C24.6359 31.3285 23.5856 29.2595 21.81 27.9573V27.9588C21.7199 27.8954 21.6335 27.827 21.5513 27.7538C21.5235 27.7277 21.4938 27.7037 21.4624 27.6821C19.6531 26.1178 19.0875 23.55 20.0722 21.3703C20.248 20.9994 20.4642 20.6493 20.7172 20.3262C21.238 20.7863 21.8386 21.1475 22.4893 21.3918V23.2184C22.4893 25.1972 24.0935 26.8014 26.0724 26.8014C28.0512 26.8014 29.6554 25.1972 29.6554 23.2184V21.3158C30.2794 21.0508 30.8502 20.675 31.3401 20.2065C31.5908 20.5107 31.807 20.8416 31.9851 21.1933L32.5075 22.9017C32.5262 23.0215 32.5381 23.1423 32.5433 23.2635C32.6544 24.9481 31.9638 26.5863 30.6801 27.6829ZM33.955 42.5668H31.8052V28.5858C32.5429 27.8982 33.1197 27.0562 33.4943 26.1199L33.955 27.6248V42.5668ZM37.5381 42.5668H35.3883V27.518C35.3882 27.4471 35.3775 27.3766 35.3567 27.3088L34.3743 24.097C36.2355 24.6134 37.5276 26.303 37.5381 28.2346V42.5668Z" fill="#C33D00"/>
<path d="M11.0229 14.6172C9.83554 14.6172 8.87305 15.5797 8.87305 16.767C8.87305 17.9543 9.83554 18.9168 11.0229 18.9168C12.2102 18.9168 13.1727 17.9543 13.1727 16.767C13.1727 15.5797 12.2102 14.6172 11.0229 14.6172ZM11.0229 17.4836C10.6271 17.4836 10.3063 17.1628 10.3063 16.767C10.3063 16.3713 10.6271 16.0504 11.0229 16.0504C11.4186 16.0504 11.7395 16.3713 11.7395 16.767C11.7395 17.1628 11.4187 17.4836 11.0229 17.4836Z" fill="#C33D00"/>
<path d="M27.7176 16.9492C27.2816 17.3878 26.6879 17.6335 26.0694 17.6314C25.4551 17.6327 24.8661 17.3874 24.4341 16.9507L23.418 17.9611C24.1168 18.6676 25.0692 19.0651 26.063 19.0646H26.0716C27.0696 19.0672 28.0273 18.6703 28.7309 17.9625L27.7176 16.9492Z" fill="#C33D00"/>
</g>
<defs>
<clipPath id="clip0">
<rect x="1" y="1" width="43" height="43" fill="white"/>
</clipPath>
</defs>
</svg>
