<svg width="45" height="45" viewBox="0 0 45 45" fill="none" xmlns="http://www.w3.org/2000/svg">
<path d="M43.1602 26.438H39.3868C38.6676 26.438 37.9712 26.7366 37.4755 27.2575L31.9902 33.0226V21.9951H32.0742C33.4636 21.9951 34.5938 20.8649 34.5938 19.4756C34.5938 18.0862 33.4636 16.956 32.0742 16.956H31.9902V12.4219C31.9902 11.958 31.6143 11.582 31.1504 11.582C30.6865 11.582 30.3105 11.958 30.3105 12.4219V16.956H25.3007L21.8908 15.3397C21.8691 15.3265 21.8472 15.3137 21.8242 15.3023L21.4594 15.1225C23.7178 14.8216 25.4657 12.8844 25.4657 10.5453C25.4657 7.99826 23.3936 5.92621 20.8466 5.92621C18.2998 5.92621 16.2274 7.99826 16.2274 10.5453C16.2274 11.6644 16.6277 12.6912 17.292 13.4913C16.7733 13.469 16.2583 13.5369 15.7685 13.6879L14.4831 13.0537C12.2575 11.9563 9.55394 12.8739 8.45657 15.0995L5.5532 20.9869C5.13393 21.8366 5.07357 22.7975 5.38228 23.6931C5.69131 24.5887 6.3317 25.3082 7.18532 25.7189L8.0957 26.1566C7.62197 27.7838 7.807 29.5432 8.64586 31.0598L8.57172 31.1339C8.57172 31.1343 8.57106 31.1346 8.57106 31.1346C8.57073 31.1349 8.5704 31.1352 8.57008 31.1356L4.52866 35.177C4.52374 35.1819 4.51849 35.1858 4.51357 35.1904L2.47694 37.2271C2.14921 37.5551 2.14921 38.0869 2.47694 38.415L6.33694 42.2746C6.35302 42.291 6.37008 42.3058 6.38747 42.3202H1.83984C1.37596 42.3202 1 42.6962 1 43.1601C1 43.624 1.37596 43.9999 1.83984 43.9999H9.90234C10.7058 43.9999 11.4636 43.6892 12.0361 43.1253L18.1492 37.1004C18.3608 36.8921 18.6407 36.7773 18.9376 36.7773H27.6969C29.6282 36.7773 31.4995 35.9748 32.8307 34.5756L38.6923 28.4153C38.8724 28.226 39.1256 28.1174 39.3868 28.1174H42.3203V43.1601C42.3203 43.624 42.6966 43.9999 43.1602 43.9999C43.624 43.9999 44 43.624 44 43.1601V27.2779C44 26.814 43.624 26.438 43.1602 26.438ZM32.9141 19.4756C32.9141 19.9384 32.5374 20.3154 32.0742 20.3154H25.407L25.7839 18.6357H32.0742C32.5371 18.6357 32.9141 19.0123 32.9141 19.4756ZM20.8466 7.60589C22.4675 7.60589 23.786 8.92438 23.786 10.5453C23.786 12.166 22.4675 13.4848 20.8466 13.4848C19.2259 13.4848 17.9071 12.166 17.9071 10.5453C17.9071 8.92438 19.2259 7.60589 20.8466 7.60589ZM18.3382 15.4561L21.0053 16.7713C21.0332 16.789 21.0624 16.8058 21.0929 16.8202L24.1452 18.267L23.768 19.9473L20.3735 18.3378C20.3682 18.3355 20.3627 18.3336 20.3574 18.3313C20.3495 18.3273 20.3423 18.3224 20.3344 18.3188L18.4747 17.4068C18.058 17.2027 17.5551 17.375 17.3507 17.7913C17.1467 18.2079 17.3186 18.7108 17.7352 18.9152L18.8391 19.4562L16.6756 23.8437H11.0571L14.5612 16.7382C15.2491 15.3433 16.9433 14.7682 18.3382 15.4561ZM11.5377 32.914L10.3502 31.7261C10.4876 31.5624 10.5539 31.356 10.545 31.1503H12.2254C12.2198 31.8084 11.9773 32.4288 11.5377 32.914ZM13.0078 27.9852C12.5997 28.3933 12.3402 28.9103 12.2559 29.4707H9.77276C9.4155 28.4192 9.43748 27.2766 9.84132 26.2337C9.87118 26.1926 9.89874 26.15 9.92137 26.1028C9.95451 26.0339 9.97649 25.9627 9.98994 25.8912C10.0493 25.7668 10.1143 25.6438 10.1855 25.5234H16.7458L15.9059 27.2031H14.8958C14.1826 27.2031 13.512 27.481 13.0078 27.9852ZM18.4409 29.8837L20.1206 29.4323V31.7382H18.4409V29.8837ZM20.1206 27.6929L18.1702 28.2171C18.0255 27.9665 17.8287 27.75 17.5948 27.582L18.6239 25.5234H18.9376C19.5897 25.5234 20.1206 26.0542 20.1206 26.7061V27.6929ZM13.74 14.5602L14.0192 14.698C13.6321 15.0588 13.3024 15.4935 13.0547 15.9955L12.3107 17.5042L9.72781 16.3189L9.96304 15.8426C10.6507 14.4477 12.3451 13.8722 13.74 14.5602ZM6.97011 23.1453C6.8087 22.6771 6.84019 22.1742 7.05934 21.7297L8.98475 17.826L11.5673 19.0113L8.96736 24.2833L8.76987 24.617L7.91329 24.2049C7.4668 23.9904 7.13184 23.6137 6.97011 23.1453ZM9.16486 32.9163L10.3524 34.1039L7.48353 36.9728L6.29594 35.7852L9.16486 32.9163ZM4.25866 37.8209L5.10736 36.9722L6.33662 38.2014C6.72209 38.5869 6.93435 39.099 6.93435 39.6442C6.93435 39.8945 6.8894 40.1383 6.80345 40.366L4.25866 37.8209ZM10.857 41.9289C10.6008 42.1811 10.2616 42.3202 9.90234 42.3202H7.47401C7.49107 42.3055 7.50813 42.2907 7.52454 42.2746C8.22725 41.5719 8.61404 40.6379 8.61404 39.6442C8.61404 39.2217 8.5435 38.8103 8.40932 38.4228L12.6331 34.1987C13.4536 33.3779 13.9057 32.2871 13.9057 31.1264V29.8732C13.9057 29.6088 14.0087 29.3601 14.1957 29.1731C14.3827 28.9858 14.6314 28.8831 14.8958 28.8831H16.4187C16.6073 28.8831 16.7612 29.037 16.7612 29.2259V35.9378C16.7612 35.9916 16.7668 36.0441 16.7763 36.0952L10.857 41.9289ZM18.9376 35.0976H18.4409V33.4179H20.1763C21.2714 33.4179 22.2054 34.12 22.5518 35.0976H18.9376ZM24.2909 35.0976C24.0117 33.7263 23.062 32.5961 21.8002 32.065V26.7061C21.8002 25.1278 20.5159 23.8437 18.9376 23.8437H18.5481L20.3518 20.1865L23.996 21.914C24.0252 21.9282 24.0554 21.9393 24.0859 21.9498C24.0911 21.9514 24.0964 21.9528 24.1013 21.9544C24.1137 21.9583 24.1259 21.9626 24.1384 21.9659C24.1439 21.9675 24.1498 21.9682 24.1554 21.9695C24.1616 21.9711 24.1675 21.9731 24.1738 21.9747C24.1879 21.9777 24.2023 21.9793 24.2164 21.9816C24.2296 21.9839 24.2423 21.9865 24.2555 21.9882C24.2899 21.9925 24.3244 21.9951 24.3585 21.9951H24.3621H30.3105V34.4215C29.516 34.8594 28.6154 35.0976 27.6969 35.0976H24.2909Z" fill="#C33D00"/>
<path d="M31.1504 9.66482C31.3712 9.66482 31.588 9.57493 31.7442 9.41878C31.9003 9.26163 31.9902 9.04577 31.9902 8.82498C31.9902 8.60387 31.9003 8.38734 31.7442 8.23119C31.588 8.07404 31.3712 7.98514 31.1504 7.98514C30.9296 7.98514 30.7128 8.07404 30.5566 8.23119C30.4004 8.38734 30.3105 8.60387 30.3105 8.82498C30.3105 9.04577 30.4004 9.26163 30.5566 9.41878C30.7128 9.57493 30.9296 9.66482 31.1504 9.66482Z" fill="#C33D00"/>
<path d="M38.9609 11.0781C41.7393 11.0781 44 8.81742 44 6.03905C44 3.26036 41.7393 1 38.9609 1C36.1822 1 33.9219 3.26036 33.9219 6.03905C33.9219 8.81742 36.1822 11.0781 38.9609 11.0781ZM38.9609 2.67968C40.8132 2.67968 42.3203 4.18681 42.3203 6.03905C42.3203 7.8913 40.8132 9.39842 38.9609 9.39842C37.1087 9.39842 35.6016 7.8913 35.6016 6.03905C35.6016 4.18681 37.1087 2.67968 38.9609 2.67968Z" fill="#C33D00"/>
</svg>
