<svg width="45" height="45" viewBox="0 0 45 45" fill="none" xmlns="http://www.w3.org/2000/svg">
<path d="M43.8155 20.8564L31.7789 8.82004C31.2786 8.31958 30.6132 8.04395 29.9054 8.04395C29.1977 8.04395 28.5324 8.31958 28.0319 8.82004L22.8366 14.0153L20.3342 11.5129C19.8338 11.0124 19.1684 10.7369 18.4607 10.7369C17.7529 10.7369 17.0875 11.0124 16.5872 11.5129L1.18474 26.9154C0.938747 27.1614 0.938747 27.5602 1.18474 27.8061C1.30769 27.9291 1.46894 27.9906 1.6301 27.9906C1.79126 27.9906 1.95251 27.9292 2.07546 27.8061L13.0468 16.8348L14.4054 18.1934C14.9134 18.7014 15.7401 18.7014 16.2483 18.1934L17.4561 16.9855C17.4593 16.9824 17.4688 16.9728 17.4868 16.9728C17.5047 16.9728 17.5142 16.9824 17.5174 16.9855L18.692 18.1601L18.4046 18.4476C18.1586 18.6936 18.1586 19.0924 18.4046 19.3383C18.6505 19.5843 19.0494 19.5843 19.2953 19.3383L21.1536 17.48L22.1124 18.4388C22.4977 18.8242 23.0038 19.0167 23.5099 19.0167C24.016 19.0167 24.5221 18.8242 24.9074 18.4388L26.1433 17.2029C26.3893 16.957 26.3893 16.5581 26.1433 16.3122C25.8973 16.0662 25.4985 16.0662 25.2526 16.3122L24.0167 17.5481C23.7373 17.8276 23.2827 17.8275 23.0032 17.5481L22.0444 16.5893L28.9228 9.71085C29.1853 9.4484 29.5343 9.30378 29.9055 9.30378C30.2767 9.30378 30.6258 9.4484 30.8883 9.71085L36.7779 15.6004L36.4923 15.886C36.2138 16.1646 35.761 16.1654 35.4814 15.8885C35.4802 15.8873 35.4789 15.886 35.4777 15.8848C35.0038 15.4108 34.2327 15.4108 33.7587 15.8848L32.5372 17.1063C32.2578 17.3858 31.8032 17.3857 31.5238 17.1063L28.8507 14.4332C28.6211 14.2036 28.3158 14.0771 27.9912 14.0771C27.6665 14.0771 27.3612 14.2036 27.1316 14.4332C26.8856 14.6791 26.8856 15.078 27.1316 15.3239C27.3671 15.5594 27.7427 15.5694 27.9901 15.354L30.6331 17.9969C31.0183 18.3822 31.5245 18.5748 32.0306 18.5748C32.5366 18.5748 33.0427 18.3822 33.428 17.9969L34.6186 16.8065C35.3914 17.5472 36.6228 17.5373 37.3832 16.7767L37.6688 16.4912L42.9247 21.7471C43.0477 21.8701 43.2089 21.9316 43.3701 21.9316C43.5313 21.9316 43.6925 21.8702 43.8155 21.7471C44.0614 21.5011 44.0614 21.1023 43.8155 20.8564ZM19.5828 17.2693L18.4083 16.0948C18.1621 15.8486 17.8349 15.7131 17.4868 15.7131C17.1387 15.7131 16.8114 15.8486 16.5653 16.0948L15.3575 17.3025C15.3406 17.3194 15.3131 17.3195 15.2962 17.3025L13.9376 15.9439L17.478 12.4037C18.0198 11.8618 18.9016 11.8618 19.4434 12.4037L21.9459 14.9062L19.5828 17.2693Z" fill="#C33D00"/>
<path d="M10.3818 30.7701C10.034 30.7701 9.75195 31.0522 9.75195 31.4V32.0732C9.75195 32.4211 10.034 32.7031 10.3818 32.7031C10.7297 32.7031 11.0117 32.4211 11.0117 32.0732V31.4C11.0117 31.0522 10.7297 30.7701 10.3818 30.7701Z" fill="#C33D00"/>
<path d="M43.6178 30.8211C43.5526 30.7932 42.9926 30.5577 41.9799 30.2548V28.6638H43.3696C43.5762 28.6638 43.7697 28.5626 43.8874 28.3927C44.0051 28.2229 44.032 28.0063 43.9595 27.8128L41.9398 22.4271C41.8476 22.1812 41.6126 22.0183 41.3501 22.0183C41.0876 22.0183 40.8525 22.1812 40.7604 22.4271L39.2214 26.531L37.6602 25.4902C37.4486 25.3491 37.173 25.3491 36.9614 25.4902L35.9211 26.1838V25.341C35.9211 25.174 35.8547 25.0138 35.7365 24.8957L31.6972 20.8563C31.4512 20.6103 31.0524 20.6103 30.8065 20.8563L26.9829 24.6799L26.4636 23.1222C26.3778 22.865 26.1371 22.6915 25.866 22.6915C25.5949 22.6915 25.3543 22.865 25.2685 23.1222L24.0708 26.7153L22.4243 21.7758C22.3386 21.5185 22.0979 21.3451 21.8268 21.3451C21.5557 21.3451 21.315 21.5186 21.2292 21.7758L19.2096 27.8348C19.2046 27.8496 19.2013 27.8648 19.1975 27.8799L18.2329 26.9153C17.9869 26.6693 17.588 26.6693 17.3421 26.9153L15.3225 28.9349C15.2043 29.053 15.138 29.2133 15.138 29.3803V32.3626C14.6669 32.5187 14.1895 32.6755 13.7049 32.832V30.0535C13.7049 29.8865 13.6385 29.7262 13.5204 29.6082L11.2728 27.3607L17.465 21.1685C17.711 20.9225 17.711 20.5237 17.465 20.2778C17.219 20.0318 16.8202 20.0318 16.5743 20.2778L10.3821 26.4699L10.1542 26.2421C10.0361 26.1239 9.87592 26.0576 9.70887 26.0576C9.54183 26.0576 9.38159 26.1239 9.26351 26.2421L7.32349 28.1821L6.93255 27.1395C6.84033 26.8937 6.60535 26.7308 6.34281 26.7308C6.08028 26.7308 5.84521 26.8936 5.75308 27.1395L3.73344 32.5253C3.66088 32.7187 3.68784 32.9354 3.8055 33.1052C3.92316 33.275 4.11666 33.3763 4.32326 33.3763H5.71302V35.0176C4.4232 35.2885 3.09181 35.5219 1.71582 35.7015C1.3709 35.7465 1.12777 36.0626 1.17279 36.4076C1.21419 36.7249 1.48495 36.956 1.79662 36.956C1.82374 36.956 1.85121 36.9543 1.87892 36.9507C7.6522 36.1971 12.6181 34.5357 16.9996 33.0699C19.9216 32.0923 22.6064 31.1943 25.2365 30.6275V32.0732C25.2365 32.421 25.5185 32.703 25.8664 32.703C26.2142 32.703 26.4963 32.421 26.4963 32.0732V30.3819C27.8555 30.146 29.2079 30.0101 30.579 30.0101C38.4124 30.0101 43.0765 31.9594 43.1221 31.9788C43.442 32.1159 43.8121 31.9678 43.9491 31.648C44.0857 31.3284 43.9375 30.9582 43.6178 30.8211ZM5.23163 32.1167L6.34239 29.1546L7.45316 32.1167H5.23163ZM12.4448 33.2317C10.7095 33.7721 8.88802 34.2926 6.97227 34.7386V33.3764H8.36203C8.56863 33.3764 8.76204 33.2751 8.87979 33.1053C8.99745 32.9355 9.02441 32.7188 8.95185 32.5254L7.809 29.4778L9.70854 27.5783L12.4448 30.3145V33.2317ZM19.1769 31.0222C18.325 31.2982 17.4665 31.5852 16.5993 31.8753C16.5323 31.8977 16.4647 31.9203 16.3974 31.9428V29.6412L17.7872 28.2515L19.1769 29.6412V31.0222ZM21.8265 23.9668L22.9723 27.4041H20.6808L21.8265 23.9668ZM21.1966 30.3904C20.9438 30.4661 20.6905 30.5435 20.4368 30.6223V29.3804C20.4368 29.2134 20.3704 29.0531 20.2523 28.935L19.9811 28.6638H21.1966V30.3904ZM23.3352 29.7487C23.3441 29.761 23.3541 29.7722 23.3638 29.7837C23.0618 29.8615 22.7593 29.9424 22.4564 30.0264V28.6638H23.4211L23.2486 29.1812C23.1846 29.3733 23.2168 29.5845 23.3352 29.7487ZM24.7202 28.7505L25.8659 25.3132L27.0117 28.7505H24.7202ZM34.6611 28.9243C33.4165 28.8164 32.0537 28.7504 30.5784 28.7504C29.8422 28.7505 29.1085 28.7891 28.3759 28.8598L27.8421 27.2585V25.6019L31.2516 22.1924L34.6611 25.6019V28.9243ZM38.7004 29.4706C37.8712 29.3151 36.9427 29.1703 35.9208 29.0518V27.6978L37.3107 26.7713L38.7004 27.6978V29.4706ZM41.35 24.4421L42.4608 27.4041H40.2392L41.35 24.4421ZM40.7201 29.9103C40.4809 29.8505 40.2275 29.7902 39.9603 29.73V28.6638H40.7201V29.9103Z" fill="#C33D00"/>
<path d="M29.9053 25.3828C29.5574 25.3828 29.2754 25.6648 29.2754 26.0127V26.6859C29.2754 27.0338 29.5574 27.3158 29.9053 27.3158C30.2531 27.3158 30.5351 27.0338 30.5351 26.6859V26.0127C30.5351 25.6647 30.2531 25.3828 29.9053 25.3828Z" fill="#C33D00"/>
<path d="M32.5986 25.3828C32.2508 25.3828 31.9688 25.6648 31.9688 26.0127V26.6859C31.9688 27.0338 32.2508 27.3158 32.5986 27.3158C32.9465 27.3158 33.2285 27.0338 33.2285 26.6859V26.0127C33.2285 25.6647 32.9465 25.3828 32.5986 25.3828Z" fill="#C33D00"/>
</svg>
