<svg width="45" height="45" viewBox="0 0 45 45" fill="none" xmlns="http://www.w3.org/2000/svg">
<g clip-path="url(#clip0)">
<path d="M43.8872 42.7385L28.8835 16.8988V9.39844H38.9617C39.4255 9.39844 39.8015 9.02244 39.8015 8.55859V1.83984C39.8015 1.376 39.4255 1 38.9617 1H28.0437C27.5798 1 27.2038 1.376 27.2038 1.83984V9.29648L25.4036 11.807C25.1332 12.1839 25.2197 12.7087 25.5966 12.9789C25.7449 13.0853 25.9159 13.1364 26.0853 13.1364C26.3468 13.1364 26.6045 13.0146 26.7686 12.7859L27.2038 12.1789V16.8845L20.5697 27.5108L14.9511 23.1788C14.7657 23.0357 14.5288 22.9768 14.2979 23.0158C14.0669 23.0551 13.8628 23.1889 13.7349 23.3851L1.1372 42.7015C0.968811 42.9597 0.955374 43.2893 1.10218 43.5603C1.24898 43.8312 1.53243 44 1.84065 44H43.1609C43.4613 44 43.7389 43.8395 43.8888 43.5792C44.0387 43.3188 44.038 42.9982 43.8872 42.7385ZM28.8835 2.67969H38.1218V7.71875H28.8835V2.67969ZM3.39109 42.3203L14.6453 25.0638L19.6965 28.9584L17.0535 33.5893C16.9418 33.7841 16.9132 34.0101 16.972 34.2267C17.0317 34.4434 17.1711 34.624 17.3659 34.7348C17.4927 34.8071 17.6364 34.8457 17.7816 34.8457C18.0831 34.8457 18.3628 34.6836 18.5115 34.4216L21.4873 29.2097C21.4926 29.2019 27.9869 18.8018 27.9869 18.8018C28.0057 18.8031 28.0245 18.8047 28.0437 18.8047C28.045 18.8047 28.0464 18.8045 28.0477 18.8045L41.7021 42.3203H3.39109Z" fill="#C33D00"/>
<path d="M16.5315 36.1937C16.4047 36.1214 16.2611 36.0828 16.1158 36.0828C15.8151 36.0828 15.5355 36.2449 15.386 36.5061C15.1567 36.9084 15.2969 37.4223 15.6992 37.6525C15.826 37.7247 15.9697 37.7625 16.1149 37.7625C16.4156 37.7625 16.6953 37.6004 16.8448 37.3392C16.9556 37.1444 16.985 36.9176 16.9254 36.7018C16.8665 36.4851 16.7264 36.3045 16.5315 36.1937Z" fill="#C33D00"/>
<path d="M18.4592 22.5534C18.619 22.7495 18.8583 22.8629 19.1103 22.8629C19.1189 22.8629 19.1276 22.8628 19.1362 22.8625C19.3977 22.8545 19.6405 22.7251 19.7929 22.5124L20.8947 20.9759C21.1649 20.5989 21.0785 20.0743 20.7016 19.8039C20.3247 19.5336 19.8 19.6201 19.5297 19.997L19.0679 20.6409L17.7735 19.0515C17.4805 18.6918 16.9516 18.6377 16.5919 18.9307C16.2323 19.2236 16.1781 19.7526 16.4711 20.1122L18.4592 22.5534Z" fill="#C33D00"/>
<path d="M21.6806 18.439C21.8288 18.5453 21.9998 18.5965 22.1693 18.5965C22.4308 18.5965 22.6885 18.4747 22.8525 18.246L24.8102 15.5159C25.0805 15.139 24.994 14.6144 24.6171 14.344C24.2402 14.0738 23.7155 14.16 23.4452 14.5371L21.4875 17.2671C21.2173 17.644 21.3038 18.1687 21.6806 18.439Z" fill="#C33D00"/>
<path d="M12.6309 19.0549C12.7725 19.1473 12.9316 19.1913 13.0889 19.1913C13.3632 19.1913 13.6321 19.0571 13.7931 18.8102L14.5334 17.6751C14.8321 17.8752 15.2381 17.8671 15.5312 17.6282C15.8908 17.3353 15.9449 16.8063 15.652 16.4467L15.0885 15.7547C14.9192 15.5468 14.6611 15.4322 14.3929 15.4464C14.1252 15.4605 13.8803 15.6017 13.7338 15.8263L12.3862 17.8926C12.1328 18.2812 12.2424 18.8015 12.6309 19.0549Z" fill="#C33D00"/>
<path d="M8.96106 24.6815C9.10274 24.7738 9.26173 24.8179 9.41911 24.8179C9.69341 24.8179 9.96233 24.6836 10.1233 24.4368L11.9585 21.623C12.2119 21.2345 12.1023 20.7141 11.7138 20.4607C11.3251 20.2073 10.8049 20.3169 10.5516 20.7054L8.71633 23.5192C8.46295 23.9077 8.57255 24.4281 8.96106 24.6815Z" fill="#C33D00"/>
<path d="M1.38092 36.305C1.52261 36.3974 1.68159 36.4415 1.83898 36.4415C2.11327 36.4415 2.38219 36.3072 2.54318 36.0604L3.70007 34.2864C3.95345 33.8979 3.84393 33.3776 3.45542 33.1242C3.06691 32.8707 2.54646 32.9804 2.29316 33.3688L1.13628 35.1427C0.882897 35.5313 0.992413 36.0516 1.38092 36.305Z" fill="#C33D00"/>
<path d="M4.37296 31.7173C4.51456 31.8097 4.67371 31.8538 4.83101 31.8538C5.10539 31.8538 5.37422 31.7196 5.53522 31.4726L7.37036 28.6588C7.62374 28.2703 7.51423 27.75 7.12572 27.4966C6.73712 27.2431 6.21684 27.3527 5.96346 27.7413L4.12831 30.5551C3.87493 30.9435 3.98445 31.4639 4.37296 31.7173Z" fill="#C33D00"/>
</g>
<defs>
<clipPath id="clip0">
<rect x="1" y="1" width="43" height="43" fill="white"/>
</clipPath>
</defs>
</svg>
