<svg width="45" height="45" viewBox="0 0 45 45" fill="none" xmlns="http://www.w3.org/2000/svg">
<g clip-path="url(#clip0)">
<path d="M12.3922 10.3314L10.7489 9.08498C10.4982 8.89487 10.1458 8.91892 9.9232 9.14173L9.12368 9.94218L8.32415 9.14173C8.10176 8.91909 7.7492 8.89479 7.49843 9.08498L5.85512 10.3314C5.37415 10.6962 5.6355 11.4648 6.2359 11.4648C6.5091 11.4648 6.51599 11.4125 7.82159 10.4224L8.67831 11.2801C8.9243 11.5264 9.32314 11.5263 9.56904 11.2801L10.4258 10.4224C11.7318 11.4127 11.7383 11.4648 12.0114 11.4648C12.6122 11.4647 12.8729 10.6959 12.3922 10.3314Z" fill="#C33D00"/>
<path d="M21.3102 4.96033L19.6669 3.71392C19.4162 3.52373 19.0637 3.54786 18.8412 3.77067L18.0417 4.57112L17.2421 3.77067C17.0198 3.54803 16.6672 3.52381 16.4164 3.71392L14.773 4.96033C14.4957 5.17062 14.4412 5.56621 14.6513 5.84376C14.8614 6.1214 15.2564 6.17597 15.5338 5.96568L16.7396 5.05122L17.5963 5.90893C17.8423 6.15528 18.2411 6.1552 18.487 5.90893L19.3437 5.05122C20.6498 6.04161 20.6562 6.09365 20.9294 6.09365C21.5301 6.09374 21.7908 5.32482 21.3102 4.96033Z" fill="#C33D00"/>
<path d="M43.6551 39.5599L37.8062 28.3246C37.6456 28.016 37.2654 27.8961 36.9566 28.0568C36.6481 28.2174 36.5281 28.5977 36.6888 28.9063L41.6689 38.4729C40.2267 37.767 38.6634 37.1303 37.054 36.5932L31.1347 25.2229C30.9741 24.9144 30.5938 24.7943 30.2851 24.955C29.9766 25.1157 29.8566 25.496 30.0173 25.8046L35.3604 36.0683C28.3992 34.071 20.7533 33.8186 13.8983 35.0703L14.2227 34.4472C14.3701 34.4472 14.7243 34.4886 14.9807 34.1555C15.255 33.799 15.0995 33.4436 14.97 33.0117L21.9209 19.6596H24.7244C24.9936 21.3639 26.4725 22.6713 28.2513 22.6713H33.4428L35.3312 26.2986C35.4919 26.6072 35.8721 26.7273 36.1808 26.5664C36.4893 26.4058 36.6093 26.0255 36.4486 25.7169L34.8631 22.6713H40.3936C42.3815 22.6713 43.9988 21.054 43.9988 19.0659C43.9988 17.706 43.2419 16.52 42.1273 15.906C42.2833 15.482 42.3657 15.0322 42.3657 14.5762C42.3657 10.8934 37.6717 9.33579 35.4596 12.2296C34.764 11.8106 33.9498 11.5736 33.0841 11.5736C31.8005 11.5736 30.6392 12.1043 29.806 12.9571L28.3248 10.112C28.3074 10.0786 28.289 10.046 28.2695 10.0142C27.9782 9.53769 27.4623 9.24609 26.8977 9.24609C26.3333 9.24609 25.8173 9.53769 25.526 10.0142C25.5066 10.046 25.4881 10.0785 25.4707 10.112L14.3913 31.3953C14.174 30.8727 13.9351 30.3682 13.6787 29.901C14.3219 29.901 14.7169 29.978 14.9869 29.5575C15.125 29.3423 15.1439 29.0751 15.0375 28.8427C15.0375 28.8426 15.0374 28.8425 15.0374 28.8425C14.7861 28.2941 13.995 26.6123 13.0901 25.1335C13.5963 25.1335 14.0127 25.2049 14.2734 24.7711C14.4097 24.5444 14.4169 24.2695 14.2928 24.036C13.8466 23.196 12.1979 20.2548 9.71555 17.6771C9.42203 17.3724 8.93198 17.3723 8.63821 17.6771C6.15591 20.2548 4.50706 23.196 4.06094 24.0358C3.79605 24.5344 4.15903 25.1336 4.72113 25.1336H5.2635C4.35874 26.6121 3.56754 28.294 3.31617 28.8424C3.08925 29.3375 3.45155 29.9011 3.9956 29.9011H4.67461C4.08269 30.9802 3.57535 32.2518 3.24235 33.5094C3.11688 33.9837 3.47482 34.4473 3.96503 34.4473H7.29649V36.8182C5.24116 37.5458 3.30593 38.4189 1.54135 39.4203C0.588387 39.9612 0.974376 41.4184 2.06994 41.4184C2.77036 41.4184 19.5163 41.4184 21.0298 41.4184C21.3777 41.4184 21.6597 41.1364 21.6597 40.7885C21.6597 40.4407 21.3777 40.1587 21.0298 40.1587H11.0568V36.9845C21.2104 34.3562 33.2543 35.3611 42.1947 40.1587H23.9693C23.6215 40.1587 23.3394 40.4407 23.3394 40.7885C23.3394 41.1364 23.6215 41.4184 23.9693 41.4184H42.9263C43.9197 41.4186 44.3585 40.2016 43.6551 39.5599ZM41.106 14.5764C41.106 14.8941 41.0477 15.2076 40.9355 15.5013C40.6041 15.4513 40.2506 15.4459 39.8966 15.495C39.2535 14.8009 38.3179 14.4498 37.3789 14.5486C37.165 13.9721 36.8425 13.4572 36.4388 13.0239C37.9112 11.0466 41.106 12.0788 41.106 14.5764ZM29.4503 16.8372C30.0324 16.4962 29.4952 16.0032 30.0626 14.7724C30.5845 13.6358 31.7404 12.8337 33.0842 12.8337C34.2922 12.8337 35.3909 13.505 35.9686 14.5086C36.4405 15.3249 36.2094 15.5946 36.6324 15.8331C37.0465 16.0665 37.2016 15.7184 37.9058 15.805C38.3958 15.8653 38.842 16.1322 39.1278 16.5444C39.2458 16.7149 39.4377 16.8119 39.6383 16.8142C39.8314 16.8164 39.9933 16.7087 40.4615 16.7224C41.724 16.7581 42.7391 17.7965 42.7391 19.0661C42.7391 20.3595 41.6869 21.4117 40.3937 21.4117H28.2514C26.9666 21.4117 25.9102 20.3536 25.9418 19.0448C25.9713 17.8012 27.0073 16.7895 28.2514 16.7895C28.6611 16.7895 28.9193 16.8933 29.0093 16.9112C29.1651 16.9424 29.3243 16.911 29.4503 16.8372ZM26.5883 10.6939C26.5993 10.6727 26.6115 10.6538 26.6244 10.6371C26.7146 10.5201 26.8421 10.506 26.8979 10.506C26.9537 10.506 27.0812 10.5201 27.1714 10.6371C27.1843 10.6538 27.1965 10.6727 27.2075 10.6939L28.9835 14.1055C28.7701 14.5313 28.609 15.0317 28.54 15.5412C27.5641 15.4627 26.5364 15.7831 25.755 16.5476C25.1736 17.1164 24.9284 17.6853 24.7498 18.4H22.5767L26.5883 10.6939ZM7.29649 40.1587H2.81076C4.2106 39.4076 5.71382 38.736 7.29649 38.1549V40.1587ZM8.55633 40.1587C8.55633 39.3072 8.55633 35.2732 8.55633 34.4473H9.79701C9.7971 34.9903 9.7971 39.5067 9.7971 40.1587H8.55633ZM12.3115 35.3903C11.8909 35.4828 11.4725 35.5807 11.0567 35.6851V34.4473H12.8023L12.3115 35.3903ZM4.64672 33.1875C5.0354 31.9484 5.58801 30.7401 6.20361 29.7962C6.35335 29.5664 6.36519 29.2739 6.23452 29.0327C6.10375 28.7914 5.85189 28.6414 5.57735 28.6414H4.80394C5.26182 27.6949 6.03312 26.1889 6.82081 25.0441C6.97853 24.815 6.99608 24.5195 6.86658 24.2733C6.61387 23.7926 6.15045 23.8737 5.59271 23.8737C6.25215 22.7356 7.49427 20.7777 9.17671 18.9434C10.8588 20.7775 12.1012 22.7357 12.7607 23.8737C12.2066 23.8737 11.7402 23.7914 11.4868 24.2734C11.3573 24.5197 11.3749 24.8151 11.5327 25.0442C12.3203 26.1889 13.0917 27.6948 13.5496 28.6414H12.7762C12.1839 28.6414 11.8264 29.2998 12.15 29.7963C12.8056 30.8019 13.3359 32.015 13.7061 33.1876C12.8344 33.1875 5.59952 33.1875 4.64672 33.1875Z" fill="#C33D00"/>
</g>
<defs>
<clipPath id="clip0">
<rect x="1" y="1" width="42.9996" height="43" fill="white"/>
</clipPath>
</defs>
</svg>
