<svg width="45" height="45" viewBox="0 0 45 45" fill="none" xmlns="http://www.w3.org/2000/svg">
<path d="M26.1973 22.1133H31.1067C31.2626 22.1133 31.4121 22.0513 31.5224 21.9411C31.6326 21.8308 31.6945 21.6813 31.6945 21.5254C31.6945 21.3695 31.6326 21.2199 31.5224 21.1097C31.4121 20.9994 31.2626 20.9375 31.1067 20.9375H26.1973C26.0413 20.9375 25.8918 20.9994 25.7816 21.1097C25.6713 21.2199 25.6094 21.3695 25.6094 21.5254C25.6094 21.6813 25.6713 21.8308 25.7816 21.9411C25.8918 22.0513 26.0413 22.1133 26.1973 22.1133Z" fill="#C33D00"/>
<path d="M20.1494 10.27H14.5671C14.4112 10.27 14.2617 10.3319 14.1514 10.4421C14.0412 10.5524 13.9792 10.7019 13.9792 10.8578C13.9792 11.0138 14.0412 11.1633 14.1514 11.2736C14.2617 11.3838 14.4112 11.4457 14.5671 11.4457H20.1494C20.3053 11.4457 20.4548 11.3838 20.5651 11.2736C20.6753 11.1633 20.7373 11.0138 20.7373 10.8578C20.7373 10.7019 20.6753 10.5524 20.5651 10.4421C20.4548 10.3319 20.3053 10.27 20.1494 10.27Z" fill="#C33D00"/>
<path d="M34.8494 38.8767C34.5784 38.4386 34.1951 38.081 33.7393 37.841C33.2835 37.601 32.7718 37.4873 32.2573 37.5118C32.0024 37.2354 31.6931 37.0149 31.3488 36.864C31.0045 36.7132 30.6327 36.6353 30.2568 36.6353C29.8005 36.6351 29.3517 36.7507 28.9523 36.9712C28.5572 36.8538 28.1416 36.8221 27.7333 36.8784C27.325 36.9347 26.9335 37.0777 26.585 37.2978C26.5149 37.269 26.44 37.2541 26.3642 37.2541H24.0967V24.1273H33.3954C33.4815 24.1273 33.5665 24.1084 33.6445 24.0718C33.7224 24.0353 33.7914 23.9821 33.8466 23.916L36.3251 20.9443C36.4134 20.8387 36.4617 20.7054 36.4617 20.5678C36.4617 20.4301 36.4134 20.2968 36.3251 20.1912L33.8466 17.2195C33.7914 17.1534 33.7224 17.1002 33.6445 17.0637C33.5665 17.0271 33.4815 17.0082 33.3954 17.0082H24.0967V3.18164C24.0967 3.10443 24.0815 3.02796 24.052 2.95661C24.0225 2.88527 23.9792 2.82044 23.9246 2.76584C23.87 2.71124 23.8052 2.66794 23.7338 2.63841C23.6625 2.60888 23.586 2.59371 23.5088 2.59375H21.4931C21.4159 2.59371 21.3395 2.60888 21.2681 2.63841C21.1968 2.66794 21.1319 2.71124 21.0773 2.76584C21.0227 2.82044 20.9794 2.88527 20.9499 2.95661C20.9204 3.02796 20.9052 3.10443 20.9053 3.18164V8.2543H11.6065C11.5204 8.25427 11.4354 8.27316 11.3575 8.30961C11.2795 8.34607 11.2105 8.3992 11.1553 8.46527L8.6768 11.4373C8.58857 11.543 8.54025 11.6762 8.54025 11.8139C8.54025 11.9515 8.58857 12.0848 8.6768 12.1905L11.1553 15.1622C11.2104 15.2284 11.2794 15.2816 11.3574 15.3181C11.4354 15.3546 11.5204 15.3735 11.6065 15.3735H20.9053V37.2524H18.6377C18.5126 37.2527 18.3908 37.2931 18.2903 37.3675C18.1898 37.442 18.1157 37.5467 18.079 37.6663C17.7764 37.5618 17.4585 37.5082 17.1384 37.5077C17.0954 37.5077 17.0521 37.5077 17.0074 37.5108C16.5962 37.0642 16.0473 36.7682 15.4483 36.6701C14.8493 36.5719 14.2346 36.6772 13.7024 36.9692C12.9689 36.7514 12.1789 36.833 11.5053 37.196C10.8317 37.5591 10.3293 38.1741 10.1079 38.9066C9.62561 39.223 9.22968 39.6545 8.9558 40.1621C8.68192 40.6698 8.5387 41.2376 8.53906 41.8145C8.53906 41.9704 8.601 42.1199 8.71125 42.2302C8.8215 42.3404 8.97104 42.4023 9.12695 42.4023H35.8736C36.0295 42.4023 36.1791 42.3404 36.2893 42.2302C36.3996 42.1199 36.4615 41.9704 36.4615 41.8145C36.4605 41.2289 36.3123 40.653 36.0306 40.1397C35.7489 39.6263 35.3427 39.192 34.8494 38.8767ZM35.108 20.5681L33.1199 22.9532H22.081V18.1839H23.5024H23.5088H23.5152H33.1199L35.108 20.5681ZM22.081 3.76953H22.9209V8.2543H22.081V3.76953ZM9.89356 11.8152L11.882 9.43008H22.9209V14.198H21.5029C21.4995 14.198 21.4965 14.198 21.4931 14.198C21.4898 14.198 21.4868 14.198 21.4834 14.198H11.882L9.89356 11.8152ZM22.9209 15.3762V17.0105H22.081V15.3738L22.9209 15.3762ZM22.081 24.1273H22.9209V37.2524H22.081V24.1273ZM10.9027 39.7988C10.9775 39.7576 11.0424 39.7006 11.093 39.6317C11.1435 39.5628 11.1784 39.4838 11.1953 39.4001C11.2743 39.0125 11.4845 38.6641 11.7905 38.4135C12.0965 38.1629 12.4795 38.0255 12.875 38.0244C13.1039 38.0236 13.3305 38.0693 13.5412 38.1588C13.6337 38.1983 13.7347 38.2135 13.8348 38.2027C13.9348 38.1919 14.0303 38.1556 14.1123 38.0973C14.2778 37.979 14.4652 37.8946 14.6635 37.8491C14.8619 37.8036 15.0673 37.7979 15.2679 37.8322C15.4684 37.8666 15.6602 37.9404 15.8321 38.0493C16.004 38.1582 16.1526 38.3001 16.2693 38.4668C16.3325 38.5574 16.4199 38.6283 16.5215 38.6714C16.6231 38.7146 16.7348 38.7282 16.8438 38.7107C16.9409 38.694 17.0392 38.6851 17.1377 38.6842C17.4601 38.6848 17.7758 38.7767 18.0481 38.9492V41.2272H9.79144C9.87026 40.9263 10.0094 40.6445 10.2004 40.3989C10.3915 40.1534 10.6304 39.9492 10.9027 39.7988ZM19.2256 41.2266V38.4282H25.5509C25.472 38.5812 25.4071 38.7411 25.3571 38.9059C24.9589 39.1679 24.6191 39.5092 24.3588 39.9085C24.0986 40.3078 23.9236 40.7565 23.8447 41.2266H19.2256ZM26.3642 41.2266H25.0393C25.118 40.9257 25.2572 40.6441 25.4483 40.3988C25.6394 40.1535 25.8785 39.9497 26.1509 39.7998C26.2259 39.7585 26.291 39.7014 26.3417 39.6323C26.3923 39.5633 26.4273 39.484 26.4442 39.4001C26.5232 39.0126 26.7334 38.6643 27.0394 38.4138C27.3454 38.1634 27.7285 38.0262 28.1239 38.0254C28.3529 38.0244 28.5797 38.0701 28.7904 38.1598C28.883 38.199 28.9841 38.2139 29.0841 38.2029C29.184 38.192 29.2795 38.1556 29.3615 38.0973C29.6216 37.9105 29.9338 37.8102 30.2541 37.8107C30.5017 37.8106 30.7457 37.8701 30.9655 37.9842C31.1853 38.0983 31.3744 38.2636 31.5169 38.4662C31.5802 38.557 31.6679 38.628 31.77 38.671C31.872 38.714 31.9841 38.7272 32.0933 38.709C32.1899 38.693 32.2877 38.6848 32.3856 38.6845C32.695 38.6842 32.9988 38.7673 33.2649 38.9253C33.5309 39.0832 33.7494 39.31 33.8973 39.5818C33.9491 39.6779 34.0269 39.7575 34.1217 39.8116C34.387 39.964 34.6195 40.1675 34.8057 40.4103C34.9919 40.6531 35.1281 40.9304 35.2065 41.2262L26.3642 41.2266Z" fill="#C33D00"/>
</svg>
