<svg xmlns="http://www.w3.org/2000/svg" width="24" height="24" fill="none" viewBox="0 0 24 24">
    <path stroke="#F9F9FA" stroke-linecap="round" stroke-linejoin="round" stroke-width="2" d="M17.334 1.334H6.667c-2.945 0-5.333 2.388-5.333 5.333v10.667c0 2.945 2.388 5.333 5.333 5.333h10.667c2.945 0 5.333-2.388 5.333-5.333V6.667c0-2.945-2.388-5.333-5.333-5.333z"/>
    <path stroke="#F9F9FA" stroke-linecap="round" stroke-linejoin="round" stroke-width="2" d="M15.957 11.413c.123.832-.019 1.682-.407 2.43-.387.746-1 1.352-1.752 1.73-.751.378-1.603.51-2.434.376-.83-.133-1.598-.526-2.192-1.12-.595-.596-.988-1.363-1.121-2.194-.134-.83-.002-1.682.376-2.433.378-.752.984-1.365 1.73-1.752.748-.388 1.598-.53 2.43-.407.849.126 1.635.522 2.241 1.129.607.606 1.003 1.392 1.129 2.241z"/>
</svg>
