<?xml version="1.0" encoding="utf-8"?>
<!-- Generator: Adobe Illustrator 24.0.1, SVG Export Plug-In . SVG Version: 6.00 Build 0)  -->
<svg version="1.1" id="Layer_1" xmlns="http://www.w3.org/2000/svg" xmlns:xlink="http://www.w3.org/1999/xlink" x="0px" y="0px"
	 viewBox="0 0 35 33" style="enable-background:new 0 0 35 33;" xml:space="preserve">
<style type="text/css">
	.st0{fill:#CC3300;}
</style>
<path class="st0" d="M34.5,31.2h-0.8L26.1,8.8c-0.4-1.3-1.4-1.7-2.1-1.1l-1,0.8l-4.4-7.7C18.4,0.3,18,0,17.5,0s-0.9,0.4-1.2,1.1
	l-6.1,13.3l0,0c-0.7-0.5-1.5-0.2-1.9,0.9l-7,16H0.5c-0.3,0-0.5,0.4-0.5,0.9C0,32.7,0.2,33,0.5,33h34c0.3,0,0.5-0.4,0.5-0.9
	S34.8,31.2,34.5,31.2z M17.1,2.2c0.1-0.2,0.3-0.4,0.4-0.4c0.2,0,0.3,0.1,0.4,0.3l4.4,7.8l-0.2,1.5c-0.1,0.5,0.1,1,0.3,1.1h0.1
	c0.2,0,0.4-0.3,0.5-0.7l0.3-1.6l1.1-1C24.7,9,25,9.1,25.2,9.6L32.4,31h-3.3l-7.4-11.4l0.7-4.1c0.1-0.5-0.1-1-0.3-1.1
	c-0.3-0.1-0.6,0.1-0.6,0.6L21,18.5L17.4,13c-0.6-0.9-1.5-0.9-2.1,0L13,16.4L11.2,15L17.1,2.2z M17.3,31.2l-3.5-13.4l2.3-3.4
	c0.2-0.3,0.5-0.3,0.8,0l10.9,16.8H17.3z M9.2,16.3c0.2-0.4,0.4-0.5,0.7-0.3l2.9,2.2l3.4,13H6.9l2.3-7.4c0.1-0.4,0-1-0.2-1.2
	S8.4,22.5,8.3,23l-2.6,8.3h-3L9.2,16.3z"/>
</svg>
