<?xml version="1.0" encoding="utf-8"?>
<!-- Generator: Adobe Illustrator 24.0.1, SVG Export Plug-In . SVG Version: 6.00 Build 0)  -->
<svg version="1.1" id="Layer_1" xmlns="http://www.w3.org/2000/svg" xmlns:xlink="http://www.w3.org/1999/xlink" x="0px" y="0px"
	 viewBox="0 0 35 33" style="enable-background:new 0 0 35 33;" xml:space="preserve">
<style type="text/css">
	.st0{fill:#CC3300;}
</style>
<g>
	<g>
		<path class="st0" d="M21.3,26.1l0.3,0.7l0.6-1.3c0,0,1-2.7,1.1-0.9c0.3,1.6,0.5-0.1,0.5-0.1c0.1-0.2,0.4-4.2,0.6,0.3
			c0.2,4.4,0.4,0.2,0.5,0.3c1.9,1.7,4.4,6.7,4.4,6.7H24l0.2,0.4H30L24,20L21.3,26.1z"/>
		<path class="st0" d="M20,25.2l-0.5-1L11.3,7.5L0,33h15.6h8.2l-0.3-0.6L20,25.2z M16.6,32.2H16H1.2L7.7,19c0,0,2.1-5.6,2.3-2
			c0.7,3.4,1.1-0.2,1.1-0.2c0.1-0.4,0.9-8.8,1.2,0.6c0.3,9.3,0.8,0.4,1.1,0.6c1.8,1.7,3.9,4.7,5.6,7.6c0.2,0.3,0.3,0.6,0.5,0.8
			c1.8,3.1,3.1,5.7,3.1,5.7h-6V32.2z"/>
		<path class="st0" d="M16.9,14.6l2.5,4.6h5l2.5-4.6L24.4,10h-5L16.9,14.6z M20.6,15h-1.3v-0.4h1.3V15z M23.5,11.4l1.2,2.5h-5.6
			l1.2-2.5H23.5z"/>
		<rect x="20.6" y="8.4" class="st0" width="2.5" height="0.8"/>
		<polygon class="st0" points="22.6,4.9 22.7,4.8 20.9,3.9 20.9,4 12.7,0 12.4,0.7 20.6,4.8 20.6,4.8 20.9,5 20.9,5.1 22.4,6.6 
			21.5,7.6 21.8,8 23.1,6.6 22,5.5 34.7,11.8 35,11.1 		"/>
	</g>
</g>
</svg>
