<?xml version="1.0" encoding="utf-8"?>
<!-- Generator: Adobe Illustrator 24.0.1, SVG Export Plug-In . SVG Version: 6.00 Build 0)  -->
<svg version="1.1" id="Layer_1" xmlns="http://www.w3.org/2000/svg" xmlns:xlink="http://www.w3.org/1999/xlink" x="0px" y="0px"
	 viewBox="0 0 35 33" style="enable-background:new 0 0 35 33;" xml:space="preserve">
<style type="text/css">
	.st0{fill:#CC3300;}
</style>
<path class="st0" d="M34.5,31.4h-0.7L30,11.3c0-0.2-0.1-0.4-0.3-0.5L18,2.8v-2C18,0.3,17.8,0,17.5,0S17,0.3,17,0.8v2l-11.8,8
	C5.1,10.9,5,11.1,5,11.3L1.2,31.4H0.5c-0.3,0-0.5,0.3-0.5,0.8C0,32.7,0.2,33,0.5,33h9.3l0,0l0,0l0,0l0,0h15.3l0,0l0,0h8.2l0,0l0,0
	h1.1c0.3,0,0.5-0.3,0.5-0.8C35,31.8,34.8,31.4,34.5,31.4z M29.1,12.1l3.6,19.4h-6.5l3.2-6.2c0.1-0.2,0.1-0.4,0.1-0.7
	c0-0.2-0.2-0.4-0.3-0.5c-5.5-3.3-10.4-13-11.2-14.5V4.5L29.1,12.1z M17,13.1v18.3c0,0,0,0,0,0.1h-6.3L17,13.1z M9.7,30.8l-2.9-5.7
	c2.4-1.6,5-4.5,7.6-8.6c0.2-0.3,0.3-0.5,0.5-0.7L9.7,30.8z M18,31.4V13.1l6.3,18.4L18,31.4L18,31.4z M20.1,15.8
	c0.2,0.2,0.3,0.5,0.5,0.7c2.6,4.1,5.2,7,7.6,8.6l-2.9,5.7L20.1,15.8z M5.9,12.1L17,4.5v5.2c-0.7,1.5-5.7,11.2-11.2,14.4
	c-0.2,0.1-0.3,0.3-0.3,0.5s0,0.5,0.1,0.7l3.2,6.2H2.3L5.9,12.1z"/>
</svg>
