<?xml version="1.0" encoding="utf-8"?>
<!-- Generator: Adobe Illustrator 24.0.1, SVG Export Plug-In . SVG Version: 6.00 Build 0)  -->
<svg version="1.1" id="Layer_1" xmlns="http://www.w3.org/2000/svg" xmlns:xlink="http://www.w3.org/1999/xlink" x="0px" y="0px"
	 viewBox="0 0 35 33" style="enable-background:new 0 0 35 33;" xml:space="preserve">
<style type="text/css">
	.st0{fill:#CC3300;}
</style>
<g>
	<g>
		<path class="st0" d="M17.4,20.8L12.8,9.1c-0.4-1-1.1-1.6-1.9-1.6l0,0C10.1,7.5,9.4,8,9,9L0.1,31.4c-0.2,0.5-0.1,1.2,0.3,1.5
			C0.5,33,0.6,33,0.7,33c0.2,0,0.5-0.2,0.6-0.5l8.9-22.4c0.2-0.5,0.5-0.5,0.6-0.5c0.2,0.1,0.4,0,0.6,0.5L16,21.8
			c0.2,0.5,0.6,0.7,1,0.4C17.5,21.9,17.6,21.3,17.4,20.8z"/>
	</g>
</g>
<g>
	<g>
		<path class="st0" d="M34.9,31.5L26.1,1.9C25.7,0.7,25,0,24.1,0s-1.6,0.7-2,1.9l-8.9,29.6c-0.2,0.5,0,1.2,0.4,1.4s0.8,0,1-0.5
			l8.9-29.6c0.2-0.6,0.6-0.6,0.7-0.6s0.5,0,0.7,0.6l8.9,29.6c0.1,0.4,0.4,0.6,0.7,0.6c0.1,0,0.2,0,0.3-0.1
			C34.9,32.7,35.1,32,34.9,31.5z"/>
	</g>
</g>
<g>
	<g>
		<path class="st0" d="M15,15.8c-0.4,0-0.7,0.5-0.7,1.1c0,0,0,1.3-0.4,1.3c-0.3,0-0.4-0.2-0.7-1.1c-0.3-0.8-0.8-2.1-1.9-2.1
			c-0.6,0-1,0.4-1.3,0.7C9.8,15.9,9.7,16,9.5,16c-0.2-0.1-0.8-1.1-1.2-2c-0.2-0.5-0.7-0.6-1-0.3s-0.4,1-0.2,1.5c0.4,0.9,1.4,3,2.4,3
			c0.7,0,1.1-0.5,1.4-0.8c0.2-0.2,0.3-0.3,0.4-0.3c0.2,0,0.3,0.1,0.6,1s0.8,2.2,2,2.2c1.3,0,1.9-1.8,1.9-3.4
			C15.7,16.2,15.4,15.8,15,15.8z"/>
	</g>
</g>
<g>
	<g>
		<path class="st0" d="M28.6,11.9c-0.3-0.1-0.8-0.2-1.6-0.2c-1,0-1.7,0.5-2.3,1.1c-0.7,0.5-1.3,1.1-2.5,1.1c-0.3,0-0.6-0.4-1-1.2
			c-0.3-0.5-0.6-1.1-0.9-1.5s-0.8-0.3-1,0.2s-0.2,1.1,0.1,1.5c0.2,0.3,0.4,0.7,0.7,1.1c0.5,0.9,1.1,2.1,2.2,2.1
			c1.5,0,2.4-0.7,3.2-1.3c0.6-0.4,1-0.8,1.6-0.8c0.7,0,1,0.1,1.5,0.2c0.4,0.1,0.7-0.3,0.8-0.9C29.3,12.6,29,12,28.6,11.9z"/>
	</g>
</g>
</svg>
