<?xml version="1.0" encoding="utf-8"?>
<!-- Generator: Adobe Illustrator 24.0.1, SVG Export Plug-In . SVG Version: 6.00 Build 0)  -->
<svg version="1.1" id="Layer_1" xmlns="http://www.w3.org/2000/svg" xmlns:xlink="http://www.w3.org/1999/xlink" x="0px" y="0px"
	 viewBox="0 0 35 33" style="enable-background:new 0 0 35 33;" xml:space="preserve">
<style type="text/css">
	.st0{fill:#CC3300;}
</style>
<path class="st0" d="M34.4,31.9H32L29.6,23c-0.1-0.3-0.4-0.5-0.7-0.4L27,22.8l-2.8-10.5c0-0.1-0.1-0.3-0.3-0.3
	c-0.1-0.1-0.3-0.1-0.5-0.1L22,12.3L18.6,0.4c0-0.2-0.3-0.4-0.5-0.4c-0.3,0-0.5,0.1-0.6,0.4l-3.2,9l-1.6-0.3C12.4,9,12.1,9.2,12,9.5
	L8.5,21.3l-2.1-0.4c-0.3-0.1-0.6,0.1-0.7,0.4L3,31.9H0.6c-0.3,0-0.6,0.2-0.6,0.6S0.3,33,0.6,33h33.8c0.3,0,0.6-0.2,0.6-0.6
	S34.7,31.9,34.4,31.9z M18,2.5l1.8,6.4l-2,0.7L16,8.1L18,2.5z M24.7,31.9l-1-5c-0.1-0.3-0.4-0.5-0.7-0.4c-0.3,0.1-0.5,0.3-0.5,0.6
	l1,4.8H12.2l1.3-6l1.7,0.4c0.3,0.1,0.6-0.1,0.7-0.4l1.7-5.9c0.1-0.3-0.1-0.6-0.4-0.7s-0.6,0.1-0.7,0.4L15,25l-1.8-0.4
	c-0.2,0-0.3,0-0.5,0.1c-0.1,0.1-0.2,0.2-0.3,0.4L11,31.9H4.3l2.5-9.8l2.1,0.4c0.3,0.1,0.6-0.1,0.7-0.4l3.6-11.9l1.5,0.3
	c0.3,0.1,0.6-0.1,0.7-0.4l0.3-0.9l1.7,1.4c0.1,0.1,0.3,0.1,0.4,0.1s0.1,0,0.2,0l2.2-0.8l0.9,3.2c0,0.1,0.1,0.3,0.3,0.3
	c0.1,0.1,0.3,0.1,0.5,0.1l1.3-0.4L26,23.5c0.1,0.3,0.4,0.5,0.7,0.4l1.9-0.3l2.2,8.2L24.7,31.9L24.7,31.9z"/>
</svg>
