<?xml version="1.0" encoding="utf-8"?>
<!-- Generator: Adobe Illustrator 24.0.1, SVG Export Plug-In . SVG Version: 6.00 Build 0)  -->
<svg version="1.1" id="Layer_1" xmlns="http://www.w3.org/2000/svg" xmlns:xlink="http://www.w3.org/1999/xlink" x="0px" y="0px"
	 viewBox="0 0 35 33" style="enable-background:new 0 0 35 33;" xml:space="preserve">
<style type="text/css">
	.st0{fill:#CC3300;}
</style>
<g id="Out_line">
	<path class="st0" d="M27.1,24.9c-2.3-2.7-4.3-5.6-5.9-8.7L21,15.7c-0.1-0.2-0.3-0.3-0.5-0.3h-5.8c-0.2,0-0.4,0.1-0.5,0.3L14,16.2
		c-1.6,3.1-3.6,6-5.9,8.7S3.2,30,0.4,32.2L0.9,33c2.8-2.1,5.3-4.5,7.6-7h0.2c1.7,0,3.3-0.6,4.5-1.7c0.4,0.8,0.9,1.5,1.5,2.1
		c0.2,0.2,0.5,0.2,0.7,0.1l0.2-0.1c0.7-0.5,1.3-1.1,1.8-1.8c0.5,0.7,1.1,1.3,1.8,1.8l0.2,0.1c0.2,0.1,0.5,0.1,0.7-0.1
		c0.6-0.6,1.2-1.3,1.5-2.1c1.2,1.1,2.8,1.7,4.5,1.7h0.2c2.3,2.6,4.8,5,7.6,7l0.7-0.9C31.9,30,29.4,27.5,27.1,24.9z M22,22.8
		l-1.3-1.7l-0.9,0.7l1.1,1.4c-0.3,0.7-0.7,1.4-1.2,1.9c-0.8-0.5-1.3-1.3-1.7-2.1v-1.6h-1.2V23c-0.3,0.8-0.9,1.6-1.7,2.1
		c-0.5-0.6-0.9-1.2-1.2-1.9l1.1-1.4l-0.9-0.7L13,22.8c-0.8,1.1-2.1,1.7-3.5,1.9c2.1-2.5,3.9-5.2,5.4-8.1l0.1-0.1h5.1l0.1,0.1
		c1.5,2.9,3.3,5.6,5.4,8.1C24.1,24.6,22.9,23.9,22,22.8z"/>
	<path class="st0" d="M8.7,30.4l-2.6,1.7L6.7,33l2.6-1.7c1.8-1.1,3.2-2.8,4-4.7l-1.1-0.4C11.6,28,10.3,29.4,8.7,30.4z"/>
	<path class="st0" d="M22.7,26.3l-1.1,0.4c0.8,1.9,2.2,3.5,4,4.7l2.6,1.7l0.6-0.9l-2.6-1.7C24.7,29.4,23.4,28,22.7,26.3z"/>
	<path class="st0" d="M19.8,28.1v-0.6h-1.2v0.6c0,1.9,1,3.7,2.6,4.9l0.7-0.9C20.6,31.2,19.8,29.7,19.8,28.1z"/>
	<path class="st0" d="M15.8,28.1c0,1.6-0.8,3-2.1,4l0.7,0.9c1.6-1.1,2.6-2.9,2.6-4.9v-0.6h-1.2V28.1z"/>
	<path class="st0" d="M35,3.9h-3.1c-0.8-1-2-1.7-3.4-1.7c-0.6,0-1.2,0.1-1.7,0.4C20-1.5,11.1-0.6,5.3,4.6C3.2,3.9,0.9,5,0.2,7
		C0.1,7.4,0,7.9,0,8.3h1.2c0-1.5,1.3-2.8,2.9-2.8c1.5,0,2.7,1,2.9,2.4l0,0C7,8,7,8.2,7,8.3C7,9,6.7,9.6,6.3,10.1l0.9,0.7
		c0.7-0.7,1-1.6,1-2.6c0.6,0,1.2,0.5,1.2,1.1c0,0.1,0,0.2-0.1,0.4c-0.1,0.3,0,0.6,0.4,0.7c0.1,0,0.1,0,0.2,0h2.4
		c1,0,1.7,0.7,1.7,1.7s-0.8,1.7-1.7,1.7H0.7c-0.3,0-0.5,0.2-0.6,0.5C0.1,15,0,15.8,0,16.5c0,3.7,1.3,7.4,3.8,10.3l0.9-0.7
		c-2.3-2.7-3.5-6.1-3.5-9.6c0-0.6,0-1.1,0.1-1.7h11c1.6,0,2.9-1.2,2.9-2.8s-1.3-2.8-2.9-2.8h-1.7C10.6,8,9.6,7,8.3,7
		C8.2,7,8.2,7,8.1,7C7.8,6.2,7.3,5.5,6.6,5c5.3-4.6,13.1-5.4,19.3-1.9C25,4,24.5,5,24.5,6.1h-1.2c-1.6,0-2.9,1.2-2.9,2.8
		c0,1.5,1.3,2.8,2.9,2.8h1.2c0,1.2,1,2.2,2.3,2.2h6.7c0.2,0.9,0.3,1.8,0.3,2.8c0,3.5-1.2,6.9-3.5,9.6l0.9,0.7
		c2.5-2.9,3.8-6.5,3.8-10.3c0-0.9-0.1-1.8-0.2-2.8H35v-1.1h-8.2c-0.6,0-1.2-0.5-1.2-1.1h1.7v-1.1h-4.1c-1,0-1.7-0.7-1.7-1.7
		s0.8-1.7,1.7-1.7h1.2c1,0,1.7,0.7,1.7,1.7h1.2c0-1.1-0.7-2.1-1.7-2.5c0-0.1,0-0.2,0-0.2c0-1.5,1.3-2.8,2.9-2.8c1,0,2,0.5,2.5,1.4
		l0,0c0.4,0.7,0.5,1.5,0.2,2.3l1.1,0.4c0.3-0.8,0.3-1.6,0.1-2.4H35V3.9z"/>
	<rect x="28.6" y="10.5" class="st0" width="1.2" height="1.1"/>
</g>
</svg>
