<?xml version="1.0" encoding="utf-8"?>
<!-- Generator: Adobe Illustrator 24.0.1, SVG Export Plug-In . SVG Version: 6.00 Build 0)  -->
<svg version="1.1" id="Layer_1" xmlns="http://www.w3.org/2000/svg" xmlns:xlink="http://www.w3.org/1999/xlink" x="0px" y="0px"
	 viewBox="0 0 35 33" style="enable-background:new 0 0 35 33;" xml:space="preserve">
<style type="text/css">
	.st0{fill:#CC3300;}
</style>
<g>
	<g>
		<path class="st0" d="M35,31.9l-3-12.5c-0.6-3-3-12.8-5.9-12.8s-5.2,9.8-5.9,12.8l-0.5,2.1l-1.3-5.4C17.8,13.4,14.7,0,11.1,0
			S4.4,13.4,3.8,16L0,31.9c-0.1,0.4,0.1,0.9,0.4,1c0.1,0,0.1,0,0.2,0l0,0h33.7c0.4,0,0.7-0.3,0.7-0.8C35,32.1,35,32,35,31.9z
			 M26.1,8.3c0.9,0,2.1,2.6,3.1,5.9l-1.3,1.9l-1.3-2l0,0c0,0,0,0-0.1-0.1h-0.1l-0.1-0.1h-0.1H26h-0.1h-0.1L25.7,14h-0.1
			c0,0,0,0,0,0.1l0,0l-1.3,2L23,14.2C24,10.8,25.2,8.3,26.1,8.3z M11.1,1.6L11.1,1.6c1.2,0,2.8,3.6,4.2,7.8l-1.9,2.8l-1.8-2.8l0,0
			c0,0,0,0,0-0.1h-0.1l-0.1-0.1h-0.1h-0.1H11h-0.1l-0.1,0.1h-0.1c0,0,0,0,0,0.1l0,0L9,12.2L6.9,9.4C8.3,5.2,9.9,1.6,11.1,1.6z
			 M1.5,31.3L5,16.4c0.4-1.7,0.8-3.6,1.4-5.4l2,2.9c0.1,0.2,0.3,0.3,0.5,0.3s0.4-0.1,0.5-0.3l1.7-2.7l1.8,2.8
			c0.1,0.2,0.3,0.3,0.5,0.3s0.4-0.1,0.5-0.3l2-2.9c0.5,1.8,1,3.7,1.4,5.3l3.5,14.9C20.8,31.3,1.5,31.3,1.5,31.3z M22.1,31.4
			l-1.7-7.1l1-4.4c0.3-1.3,0.6-2.7,1-3.9l1.4,2c0.1,0.2,0.3,0.3,0.5,0.3s0.4-0.1,0.5-0.3l1.3-2l1.3,2c0.1,0.2,0.3,0.3,0.5,0.3
			s0.4-0.1,0.5-0.3l1.4-2c0.4,1.3,0.7,2.6,1,4l2.7,11.5H22.1V31.4z"/>
	</g>
</g>
</svg>
