<svg width="16" height="16" viewBox="0 0 16 16" fill="none" xmlns="http://www.w3.org/2000/svg">
<path fill-rule="evenodd" clip-rule="evenodd" d="M8.00016 1.33325C10.2068 1.33325 12.0002 3.12659 12.0002 5.33325C12.0002 8.33325 8.00016 12.6666 8.00016 12.6666C8.00016 12.6666 4.00016 8.33325 4.00016 5.33325C4.00016 3.12659 5.7935 1.33325 8.00016 1.33325ZM12.6668 14.6666V13.3333H3.3335V14.6666H12.6668ZM5.3335 5.33325C5.3335 3.85992 6.52683 2.66659 8.00016 2.66659C9.4735 2.66659 10.6668 3.85992 10.6668 5.33325C10.6668 6.75325 9.28016 8.97325 8.00016 10.6066C6.72016 8.97992 5.3335 6.75325 5.3335 5.33325ZM6.66683 5.33325C6.66683 4.59992 7.26683 3.99992 8.00016 3.99992C8.7335 3.99992 9.3335 4.59992 9.3335 5.33325C9.3335 6.06659 8.74016 6.66658 8.00016 6.66658C7.26683 6.66658 6.66683 6.06659 6.66683 5.33325Z" fill="#F2F2F2"/>
</svg>
