<?xml version="1.0"?>
<svg xmlns="http://www.w3.org/2000/svg" height="512px" viewBox="0 0 60 58" width="512px"><g><g id="064---Drone-Flying"><path id="Shape" d="m30.838 32.344c2.3195145.0031085 4.3366096-1.589417 4.8717904-3.8463483.5351807-2.2569313-.5520936-4.5855885-2.6260401-5.6242911-2.0739466-1.0387026-4.5899381-.5146827-6.0767503 1.2656394-1.243438 1.4889037-1.513473 3.5626542-.6927918 5.3203386.8206812 1.7576845 2.5839553 2.8820618 4.5237918 2.8846614zm-2.3-6.922c.7782251-.931096 2.0407348-1.30166 3.1987327-.9388722 1.1579979.3627879 1.9833928 1.3874691 2.0912455 2.5961634s-.5230805 2.3633248-1.5985515 2.9254067c-1.0754711.562082-2.3836441.420902-3.3144267-.3576979-1.2695594-1.0636431-1.436973-2.9548795-.374-4.225z" data-original="#000000" class="active-path" data-old_color="#000000" fill="#DD2528"/><path id="Shape" d="m1.652 26.4c-.42470697-.3542907-1.05620933-.297207-1.4105.1275s-.29720697 1.0562093.1275 1.4105l9.206 7.7c.42470698.3542906 1.0562093.2972069 1.4105-.1275.3542906-.424707.2972069-1.0562093-.1275-1.4105l-1.416-1.185c4.636-3.2 16.322 2.808 19.5 11.364.7364073 1.6124263.8128543 3.4489505.213 5.117l-1.418-1.185c-.4238785-.3542906-1.0547093-.2978785-1.409.126-.3542906.4238786-.2978785 1.0547093.126 1.409l9.207 7.7c.4238785.3542907 1.0547093.2978785 1.409-.126s.2978785-1.0547093-.126-1.409l-2.595-2.169 3.331-14.08 9.7 7c1.8089337 1.3092545 4.3245518.9835083 5.7403453-.7433146 1.4157934-1.7268229 1.2421012-4.2574901-.3963453-5.7746854l1.785-2.135c4.238 3.543 3.989 3.44 4.477 3.44.4207357.0001485.7965638-.2630693.9402395-.6585131.1436757-.3954439.0244648-.8385231-.2982395-1.1084869l-3.828-3.205 1.283-1.535c.2350859-.2733563.3048236-.6520953.1825215-.9912579-.1223021-.3391625-.4177063-.5862313-.773149-.6466428-.3554426-.0604115-.7158857.0751887-.9433725.3549007l-1.283 1.535-3.836-3.208c-.4238785-.3542906-1.0547093-.2978785-1.409.126-.3542906.4238786-.2978785 1.0547093.126 1.409l3.836 3.208-1.694 2.025-8.389-8.1c-.5625635-.5422362-.7578472-1.3624279-.5-2.1l.2-.582c.3629512-1.0466353.1195844-2.2081065-.633-3.021.778-.931 1.469-1.6 1.347-2.98-.0683117-.7935914-.4514846-1.5268058-1.064-2.036l-6.138-5.13c-1.2709151-1.0622515-3.162237-.8934874-4.225.377l-.661.789c-.9352689-.5994578-2.1255638-.6317945-3.092-.084l-.53.3c-.6797394.3848805-1.5213479.3387971-2.155-.118l-10.269-7.407 1.74-2.08c4.238 3.543 3.989 3.439 4.477 3.439.4207357.0001485.7965638-.26306926.9402395-.65851314.1436757-.39544387.0244648-.83852302-.2982395-1.10848686l-3.839-3.207 1.282-1.534c.3545668-.4236024.2986024-1.05443319-.125-1.409s-1.0544332-.2986024-1.409.125l-1.28 1.535-3.835-3.207c-.4238785-.35456681-1.0549332-.29837854-1.4095.1255-.3545668.42387855-.2983785 1.05493319.1255 1.4095l3.836 3.208-1.9 2.278c-1.8713577-.80186418-4.04840506-.15187917-5.17381828 1.54470887-1.12541321 1.69658803-.87764934 3.95504523.58881828 5.36729113l8.61 8.31-13.263 5.772zm31.769-9.934c.3541294-.4233827.9843235-.4797779 1.408-.126l6.138 5.13c.2037877.1702255.3315071.4145114.355.679.043.493-.167.656-.871 1.5l-7.672-6.414zm-23.294-6.437c.7497652-.88617597 2.0529612-1.05124746 3-.38l11.146 8.043c1.2679613.9133551 2.9512221 1.0062624 4.312.238l.522-.295c.3665099-.2089371.8240958-.1691124 1.149.1l10.144 8.48c.3223151.2685556.4445912.7086696.307 1.105l-.2.575c-.5128381 1.4752895-.1226426 3.1141107 1 4.2l9.89 9.546c.8356313.8101395.9045246 2.1278204.1579327 3.0206844-.746592.8928641-2.0556567 1.0583289-3.0009327.3793156l-11.148-8.041c-1.2688243-.9103439-2.9503847-1.0023987-4.311-.236l-.522.3c-.3661179.2107176-.8247895.1707984-1.149-.1l-10.142-8.486c-.3226319-.2688004-.4445871-.7095929-.306-1.106l.2-.574c.5461512-1.5799173.0636569-3.3330331-1.214-4.411l-9.674-9.336c-.83403761-.8109822-.9041493-2.1269917-.161-3.022zm8.888 14.3c.3803714.5228225.4825837 1.1980208.274 1.81l-.2.582c-.4111869 1.1796767-.0482782 2.4906893.911 3.291l10.141 8.478c.9598579.8061966 2.3197773.9306232 3.41.312l.53-.3c.5659589-.3115722 1.2475668-.3305678 1.83-.051l-3.279 13.849-1.894-1.58c1.073-1.869 1.109-4.361.078-7.136-3.458-9.316-17.016-16.984-22.959-11.994l-1.894-1.584z" data-original="#000000" class="active-path" data-old_color="#000000" fill="#DD2528"/><path id="Shape" d="m19.293 39.293-12 12c-.25995658.2510745-.3642126.6228779-.27269716.9725073.09151544.3496295.3645604.6226744.71418984.7141899.34962943.0915154.72143285-.0127406.97250732-.2726972l12-12c.3789722-.3923789.3735524-1.0160848-.0121814-1.4018186s-1.0094397-.3911536-1.4018186-.0121814z" data-original="#000000" class="active-path" data-old_color="#000000" fill="#DD2528"/><path id="Shape" d="m12.293 38.293-8 8c-.37897221.3923789-.37355237 1.0160848.01218142 1.4018186.3857338.3857338 1.00943969.3911536 1.40181858.0121814l8-8c.3789722-.3923789.3735524-1.0160848-.0121814-1.4018186s-1.0094397-.3911536-1.4018186-.0121814z" data-original="#000000" class="active-path" data-old_color="#000000" fill="#DD2528"/><path id="Shape" d="m12.293 54.293c-.2599566.2510745-.3642126.6228779-.2726972.9725073.0915155.3496295.3645604.6226744.7141899.7141899.3496294.0915154.7214328-.0127406.9725073-.2726972l8-8c.3789722-.3923789.3735524-1.0160848-.0121814-1.4018186s-1.0094397-.3911536-1.4018186-.0121814z" data-original="#000000" class="active-path" data-old_color="#000000" fill="#DD2528"/><path id="Shape" d="m2.293 57.707c.39049985.3903819 1.02350015.3903819 1.414 0l2-2c.37897221-.3923789.37355237-1.0160848-.01218142-1.4018186-.3857338-.3857338-1.00943969-.3911536-1.40181858-.0121814l-2 2c-.39038194.3904999-.39038194 1.0235001 0 1.414z" data-original="#000000" class="active-path" data-old_color="#000000" fill="#DD2528"/><path id="Shape" d="m53.648 19.965c.5320425.1448651 1.0809459-.1682827 1.227-.7 1.2794835-4.8268625-.1057507-9.96992035-3.6364245-13.50121222s-8.6734891-4.91742637-13.5005755-3.63878778c-.3484729.09034184-.6214933.36101445-.7148412.7086942-.0933479.34767974.0073852.71870078.2637467.97143352.2563615.25273275.6287807.34816683.9750945.24987228 4.1348268-1.09177415 8.5383153.09674894 11.5622832 3.12071684 3.0239679 3.02396786 4.2124909 7.42745636 3.1207168 11.56228316-.1446598.5329498.1700692 1.0822704.703 1.227z" data-original="#000000" class="active-path" data-old_color="#000000" fill="#DD2528"/><path id="Shape" d="m49.8 18.938c.2568637.0662051.5295075.027643.7579353-.1072007s.3939219-.3549196.4600647-.6117993c.9087836-3.4459385-.082077-7.115219-2.6019324-9.63528027-2.5198553-2.52006129-6.1890548-3.51122173-9.6350676-2.60271973-.5351639.13807119-.8570712.68383608-.719 1.219.1380712.53516391.6838361.85707118 1.219.719 2.7603552-.73304246 5.7022189.05874368 7.7217376 2.07826241 2.0195187 2.01951869 2.8113049 4.96138239 2.0782624 7.72173759-.0665067.2570039-.0280929.5299056.106776.7585636.1348688.2286581.3551233.3943052.612224.4604364z" data-original="#000000" class="active-path" data-old_color="#000000" fill="#DD2528"/><path id="Shape" d="m45.921 17.906c.2562003.0687239.5292086.0328414.758949-.0997517.2297404-.132593.3973878-.3510317.466051-.6072483.5488563-2.0689733-.0449222-4.2736908-1.5586127-5.7871752-1.5136905-1.51348439-3.7184887-2.10696281-5.7873873-1.5578248-.3451186.09288905-.6144655.3628406-.7065805.7081666s.0069964.7135631.26.966c.2530035.2524369.6214619.3507225.9665805.2578334 1.3798869-.3678003 2.8511921.0279524 3.8603665 1.0383641 1.0091745 1.0104117 1.4031242 2.4822007 1.0336335 3.8616359-.1399271.5318939.1759374 1.0769501.707 1.22z" data-original="#000000" class="active-path" data-old_color="#000000" fill="#DD2528"/></g></g> </svg>
