<svg width="35" height="33" viewBox="0 0 35 33" fill="none" xmlns="http://www.w3.org/2000/svg">
<path d="M29.0039 19.0175V14.7441C29.0039 14.705 28.9999 14.6669 28.9928 14.6299C29.4622 13.853 29.7305 12.9467 29.7305 11.9893V8.87109C29.7305 8.53669 29.4594 8.26562 29.125 8.26562H28.4543C29.241 7.49571 29.7305 6.4233 29.7305 5.23828C29.7305 2.90129 27.8292 1 25.4922 1H9.50781C7.17082 1 5.26953 2.90129 5.26953 5.23828C5.26953 6.4233 5.75899 7.49571 6.54634 8.26562H5.875C5.5406 8.26562 5.26953 8.53669 5.26953 8.87109V11.9893C5.26953 12.9467 5.53781 13.853 6.00723 14.6299C6.00015 14.6669 5.99609 14.705 5.99609 14.7441V19.0175C3.74762 19.2923 2 21.2121 2 23.5336V27.4488C2 29.9584 4.04164 32 6.55119 32H28.4488C30.9584 32 33 29.9584 33 27.4488V23.5336C33 21.2121 31.2524 19.2923 29.0039 19.0175ZM26.0924 2.27094C27.4752 2.55018 28.5195 3.77444 28.5195 5.23828C28.5195 6.70212 27.4752 7.92638 26.0924 8.20562V2.27094ZM26.0924 9.47656H28.5195V11.9893C28.5195 13.5954 27.5339 15.0141 26.0924 15.6037V9.47656ZM23.1861 2.21094H24.8815V16.4077C24.8815 16.4089 24.8815 16.4102 24.8815 16.4114V17.8918C24.8815 18.3592 24.5012 18.7394 24.0338 18.7394C23.5664 18.7394 23.1861 18.3592 23.1861 17.8918V2.21094ZM13.0248 9.47656H14.3718C14.7062 9.47656 14.9773 9.20549 14.9773 8.87109C14.9773 8.53669 14.7062 8.26562 14.3718 8.26562H13.0248V2.21094H21.9752V8.26562H19.9017C19.5673 8.26562 19.2962 8.53669 19.2962 8.87109C19.2962 9.20549 19.5673 9.47656 19.9017 9.47656H21.9752V15.8945H13.0248V9.47656ZM10.1185 16.4114C10.1185 16.4101 10.1185 16.4089 10.1185 16.4077V2.21094H11.8139V17.8918C11.8139 18.3592 11.4336 18.7394 10.9662 18.7394C10.4988 18.7394 10.1185 18.3592 10.1185 17.8918V16.4114ZM6.48047 5.23828C6.48047 3.77444 7.52484 2.55018 8.90761 2.27094V8.20568C7.52484 7.92638 6.48047 6.70212 6.48047 5.23828ZM6.48047 9.47656H8.90761V15.6037C7.46605 15.0141 6.48047 13.5954 6.48047 11.9893V9.47656ZM6.55119 30.7891C4.70935 30.7891 3.21094 29.2906 3.21094 27.4488V23.5336C3.21094 21.8809 4.41764 20.5056 5.99609 20.2403V28.0039C5.99609 29.0862 6.42925 30.0687 7.1305 30.7891H6.55119ZM27.793 28.0039C27.793 29.5396 26.5435 30.7891 25.0078 30.7891H9.99219C8.45648 30.7891 7.20703 29.5396 7.20703 28.0039V15.9969C7.704 16.3923 8.27853 16.6974 8.90761 16.8869V17.8918C8.90761 19.0269 9.83107 19.9504 10.9662 19.9504C12.1013 19.9504 13.0248 19.0269 13.0248 17.8918V17.1055H21.9752V17.8918C21.9752 19.0269 22.8987 19.9504 24.0338 19.9504C25.1689 19.9504 26.0924 19.0269 26.0924 17.8918V16.8869C26.7215 16.6974 27.2959 16.3923 27.793 15.9969V28.0039ZM31.7891 27.4488C31.7891 29.2906 30.2906 30.7891 28.4488 30.7891H27.8695C28.5708 30.0687 29.0039 29.0862 29.0039 28.0039V20.2396C30.5824 20.5048 31.7891 21.8809 31.7891 23.5336V27.4488Z" fill="#C33D00"/>
<path d="M21.3724 20.5566H13.6276C12.2268 20.5566 11.0872 21.6963 11.0872 23.097V26.9141C11.0872 28.2495 12.1737 29.3359 13.5091 29.3359H21.4908C22.8262 29.3359 23.9126 28.2495 23.9126 26.9141V23.097C23.9127 21.6963 22.7731 20.5566 21.3724 20.5566ZM22.7018 26.9141C22.7018 27.5818 22.1585 28.125 21.4908 28.125H13.5092C12.8415 28.125 12.2982 27.5818 12.2982 26.9141V24.805H18.3275C18.6619 24.805 18.933 24.534 18.933 24.1996C18.933 23.8652 18.6619 23.5941 18.3275 23.5941H12.2982V23.097C12.2982 22.364 12.8946 21.7676 13.6277 21.7676H21.3724C22.1054 21.7676 22.7018 22.364 22.7018 23.097V26.9141Z" fill="#C33D00"/>
<path d="M17.787 8.44303C17.6744 8.33041 17.5182 8.26562 17.3589 8.26562C17.1991 8.26562 17.0435 8.33041 16.9309 8.44303C16.8176 8.55564 16.7535 8.71186 16.7535 8.87109C16.7535 9.03033 16.8176 9.18654 16.9309 9.29916C17.0435 9.41178 17.1997 9.47656 17.3589 9.47656C17.5182 9.47656 17.6744 9.41178 17.787 9.29916C17.8996 9.18654 17.9644 9.03033 17.9644 8.87109C17.9644 8.71186 17.8996 8.55564 17.787 8.44303Z" fill="#C33D00"/>
<path d="M24.4617 13.549C24.3491 13.4364 24.1929 13.3716 24.0336 13.3716C23.8744 13.3716 23.7182 13.4364 23.6055 13.549C23.4929 13.6616 23.4281 13.8178 23.4281 13.9771C23.4281 14.1369 23.4929 14.2925 23.6055 14.4051C23.7182 14.5183 23.8744 14.5825 24.0336 14.5825C24.1929 14.5825 24.3491 14.5183 24.4617 14.4051C24.5749 14.2925 24.6391 14.1369 24.6391 13.9771C24.6391 13.8178 24.5749 13.6616 24.4617 13.549Z" fill="#C33D00"/>
<path d="M24.4617 10.5216C24.3491 10.409 24.1929 10.3442 24.0336 10.3442C23.8744 10.3442 23.7182 10.409 23.6055 10.5216C23.4929 10.6343 23.4281 10.7905 23.4281 10.9497C23.4281 11.1096 23.4929 11.2652 23.6055 11.3778C23.7182 11.491 23.8744 11.5552 24.0336 11.5552C24.1929 11.5552 24.3491 11.491 24.4617 11.3778C24.5749 11.2652 24.6391 11.1089 24.6391 10.9497C24.6391 10.7905 24.5749 10.6349 24.4617 10.5216Z" fill="#C33D00"/>
<path d="M11.3945 13.549C11.2818 13.4364 11.1256 13.3716 10.9664 13.3716C10.8071 13.3716 10.6509 13.4364 10.5383 13.549C10.4251 13.6616 10.3609 13.8178 10.3609 13.9771C10.3609 14.1369 10.4251 14.2925 10.5383 14.4051C10.6509 14.5183 10.8071 14.5825 10.9664 14.5825C11.1256 14.5825 11.2818 14.5183 11.3945 14.4051C11.5071 14.2925 11.5719 14.1369 11.5719 13.9771C11.5719 13.8178 11.5071 13.6616 11.3945 13.549Z" fill="#C33D00"/>
<path d="M11.3945 10.5216C11.2818 10.409 11.1256 10.3442 10.9664 10.3442C10.8065 10.3442 10.6509 10.409 10.5383 10.5216C10.4251 10.6349 10.3609 10.7905 10.3609 10.9497C10.3609 11.1089 10.4251 11.2652 10.5383 11.3784C10.6509 11.491 10.8071 11.5552 10.9664 11.5552C11.1256 11.5552 11.2812 11.491 11.3945 11.3784C11.5071 11.2652 11.5719 11.1096 11.5719 10.9497C11.5719 10.7905 11.5071 10.6343 11.3945 10.5216Z" fill="#C33D00"/>
<path d="M21.349 23.7716C21.2363 23.6584 21.0801 23.5942 20.9209 23.5942C20.7617 23.5942 20.6054 23.6584 20.4928 23.7716C20.3802 23.8843 20.3154 24.0405 20.3154 24.1997C20.3154 24.3589 20.3802 24.5152 20.4928 24.6278C20.6054 24.7404 20.7617 24.8052 20.9209 24.8052C21.0801 24.8052 21.2363 24.7404 21.349 24.6278C21.4616 24.5152 21.5264 24.3589 21.5264 24.1997C21.5264 24.0405 21.4616 23.8843 21.349 23.7716Z" fill="#C33D00"/>
<path d="M17.9281 25.9806C17.8154 25.868 17.6592 25.8032 17.5 25.8032C17.3408 25.8032 17.1846 25.868 17.0719 25.9806C16.9593 26.0932 16.8945 26.2495 16.8945 26.4087C16.8945 26.5679 16.9593 26.7241 17.0719 26.8368C17.1846 26.95 17.3408 27.0142 17.5 27.0142C17.6592 27.0142 17.8154 26.95 17.9281 26.8368C18.0407 26.7241 18.1055 26.5679 18.1055 26.4087C18.1055 26.2495 18.0407 26.0932 17.9281 25.9806Z" fill="#C33D00"/>
</svg>
