<svg width="23" height="23" viewBox="0 0 23 23" fill="none" xmlns="http://www.w3.org/2000/svg">
<g clip-path="url(#clip0)">
<path d="M22.6363 15.031L17.4015 5.38508C17.339 5.27009 17.2187 5.19849 17.0878 5.19849C16.957 5.19849 16.8366 5.27009 16.7742 5.38513L15.5521 7.63716C15.4581 7.81039 15.5223 8.02696 15.6955 8.12097C15.8688 8.21503 16.0853 8.1507 16.1793 7.97753L17.0879 6.30336L19.9218 11.5252L18.4906 12.8079C18.3439 12.9394 18.3315 13.165 18.4631 13.3118C18.5335 13.3904 18.631 13.4304 18.7289 13.4304C18.8137 13.4304 18.8988 13.4003 18.967 13.3393L20.2717 12.1699L22.0092 15.3714C22.0738 15.4905 22.1965 15.5581 22.3231 15.5581C22.3806 15.5581 22.4389 15.5441 22.493 15.5148C22.6661 15.4208 22.7303 15.2042 22.6363 15.031Z" fill="white"/>
<path d="M4.03103 13.3393C4.09916 13.4003 4.18427 13.4304 4.26905 13.4304C4.36692 13.4304 4.4644 13.3903 4.53486 13.3117C4.66641 13.165 4.65404 12.9394 4.50732 12.8078L3.07617 11.5251L5.91006 6.30331L6.81863 7.97748C6.9126 8.1507 7.12912 8.21489 7.30244 8.12092C7.47562 8.02691 7.53984 7.81029 7.44583 7.63712L6.22364 5.38508C6.16122 5.27009 6.0409 5.19849 5.91002 5.19849C5.77913 5.19849 5.65881 5.27009 5.59639 5.38508L0.36164 15.031C0.267629 15.2042 0.331857 15.4208 0.505036 15.5148C0.55913 15.5441 0.617411 15.5581 0.674931 15.5581C0.80158 15.5581 0.924232 15.4905 0.988889 15.3714L2.72634 12.1699L4.03103 13.3393Z" fill="white"/>
<path d="M11.8125 2.52497C11.7501 2.40998 11.6298 2.33838 11.4989 2.33838C11.3681 2.33838 11.2477 2.40998 11.1853 2.52497L1.62922 20.1334C1.53521 20.3067 1.59944 20.5233 1.77261 20.6172C1.82671 20.6466 1.88499 20.6605 1.94251 20.6605C2.06916 20.6605 2.19181 20.593 2.25647 20.4738L7.17869 11.4039L9.05149 13.0827C9.18704 13.2042 9.39228 13.2041 9.52783 13.0827L11.4987 11.316L13.4699 13.0827C13.5377 13.1435 13.6229 13.1738 13.7081 13.1738C13.7933 13.1738 13.8785 13.1435 13.9463 13.0827L15.8193 11.404L20.7415 20.4739C20.8355 20.6471 21.052 20.7113 21.2253 20.6173C21.3986 20.5233 21.4627 20.3067 21.3688 20.1335L11.8125 2.52497ZM13.708 12.3378L11.7368 10.571C11.6013 10.4495 11.3961 10.4496 11.2605 10.571L9.28961 12.3377L7.52856 10.7592L11.4989 3.44325L15.4693 10.7592L13.708 12.3378Z" fill="white"/>
<path d="M15.3464 15.8411C15.1366 15.8411 14.9658 16.0118 14.9658 16.2217C14.9658 16.4315 15.1366 16.6023 15.3464 16.6023C15.5563 16.6023 15.727 16.4315 15.727 16.2217C15.727 16.0118 15.5563 15.8411 15.3464 15.8411Z" fill="white"/>
<path d="M7.04467 17.9243C6.83481 17.9243 6.66406 18.0951 6.66406 18.3049C6.66406 18.5148 6.83481 18.6855 7.04467 18.6855C7.25453 18.6855 7.42529 18.5148 7.42529 18.3049C7.42529 18.0951 7.25453 17.9243 7.04467 17.9243Z" fill="white"/>
<path d="M16.6023 16.9917C16.3924 16.9917 16.2217 17.1625 16.2217 17.3723C16.2217 17.5822 16.3924 17.7529 16.6023 17.7529C16.8122 17.7529 16.9829 17.5822 16.9829 17.3723C16.9829 17.1625 16.8122 16.9917 16.6023 16.9917Z" fill="white"/>
</g>
<defs>
<clipPath id="clip0">
<rect x="0.319336" y="0.319336" width="22.3611" height="22.3611" fill="white"/>
</clipPath>
</defs>
</svg>
